<?xml version="1.0" encoding="UTF-8" standalone="no"?><!DOCTYPE svg PUBLIC "-//W3C//DTD SVG 1.1//EN" "http://www.w3.org/Graphics/SVG/1.1/DTD/svg11.dtd"><!-- Generated by graphviz version 2.40.1 (20161225.0304)
 --><!-- Title: fsm Pages: 1 --><svg xmlns="http://www.w3.org/2000/svg" xmlns:xlink="http://www.w3.org/1999/xlink" width="1332pt" height="2991pt" viewBox="0.00 0.00 1332.00 2990.80">
<g id="graph0" class="graph" transform="scale(1 1) rotate(0) translate(4 2986.8)">
<title>fsm</title>
<polygon fill="#ffffff" stroke="transparent" points="-4,4 -4,-2986.8 1327.996,-2986.8 1327.996,4 -4,4"/>
<!-- Start -->
<g id="node1" class="node">
<title>Start</title>
<ellipse fill="none" stroke="#000000" cx="54" cy="-1524" rx="54" ry="54"/>
<text text-anchor="middle" x="54" y="-1519.8" font-family="monospace" font-size="14.00" fill="#000000">Start</text>
</g>
<!-- Identifier -->
<g id="node2" class="node">
<title>Identifier</title>
<ellipse fill="none" stroke="#000000" cx="277.4096" cy="-2890" rx="54" ry="54"/>
<ellipse fill="none" stroke="#000000" cx="277.4096" cy="-2890" rx="58" ry="58"/>
<text text-anchor="middle" x="277.4096" y="-2885.8" font-family="monospace" font-size="14.00" fill="#000000">Identifier</text>
</g>
<!-- Start&#45;&gt;Identifier -->
<g id="edge1" class="edge">
<title>Start-&gt;Identifier</title>
<path fill="none" stroke="#000000" d="M55.4241,-1578.1442C61.3928,-1795.3636 85.9582,-2597.011 126,-2703 146.8807,-2758.2705 190.9067,-2809.5498 226.1286,-2844.3766"/>
<polygon fill="#000000" stroke="#000000" points="223.8932,-2847.0852 233.4995,-2851.5541 228.7768,-2842.07 223.8932,-2847.0852"/>
<text text-anchor="middle" x="163.7048" y="-2820.2" font-family="monospace" font-size="14.00" fill="#000000">  _, a-z, A-Z  </text>
</g>
<!-- Var_prefix -->
<g id="node3" class="node">
<title>Var_prefix</title>
<ellipse fill="none" stroke="#000000" cx="277.4096" cy="-2756" rx="54" ry="54"/>
<ellipse fill="none" stroke="#000000" cx="277.4096" cy="-2756" rx="58" ry="58"/>
<text text-anchor="middle" x="277.4096" y="-2751.8" font-family="monospace" font-size="14.00" fill="#000000">Var_prefix</text>
</g>
<!-- Start&#45;&gt;Var_prefix -->
<g id="edge3" class="edge">
<title>Start-&gt;Var_prefix</title>
<path fill="none" stroke="#000000" d="M55.8741,-1578.0365C63.0948,-1778.9519 90.4903,-2476.1043 126,-2569 147.0961,-2624.1886 191.0994,-2675.4765 226.258,-2710.3275"/>
<polygon fill="#000000" stroke="#000000" points="224.0145,-2713.0286 233.6148,-2717.5103 228.9047,-2708.02 224.0145,-2713.0286"/>
<text text-anchor="middle" x="163.7048" y="-2686.2" font-family="monospace" font-size="14.00" fill="#000000">$</text>
</g>
<!-- Type_prefix -->
<g id="node4" class="node">
<title>Type_prefix</title>
<ellipse fill="none" stroke="#000000" cx="277.4096" cy="-2622" rx="54" ry="54"/>
<ellipse fill="none" stroke="#000000" cx="277.4096" cy="-2622" rx="58" ry="58"/>
<text text-anchor="middle" x="277.4096" y="-2617.8" font-family="monospace" font-size="14.00" fill="#000000">Type_prefix</text>
</g>
<!-- Start&#45;&gt;Type_prefix -->
<g id="edge4" class="edge">
<title>Start-&gt;Type_prefix</title>
<path fill="none" stroke="#000000" d="M56.44,-1577.9872C64.9967,-1761.7671 94.8145,-2356.1046 126,-2436 147.414,-2490.8615 191.384,-2541.8785 226.449,-2576.5524"/>
<polygon fill="#000000" stroke="#000000" points="224.1797,-2579.228 233.785,-2583.6989 229.0643,-2574.2139 224.1797,-2579.228"/>
<text text-anchor="middle" x="163.7048" y="-2552.2" font-family="monospace" font-size="14.00" fill="#000000">?</text>
</g>
<!-- Assign -->
<g id="node7" class="node">
<title>Assign</title>
<ellipse fill="none" stroke="#000000" cx="277.4096" cy="-2488" rx="54" ry="54"/>
<ellipse fill="none" stroke="#000000" cx="277.4096" cy="-2488" rx="58" ry="58"/>
<text text-anchor="middle" x="277.4096" y="-2483.8" font-family="monospace" font-size="14.00" fill="#000000">Assign</text>
</g>
<!-- Start&#45;&gt;Assign -->
<g id="edge38" class="edge">
<title>Start-&gt;Assign</title>
<path fill="none" stroke="#000000" d="M54.9834,-1578.2234C58.4122,-1732.5755 72.7151,-2171.7058 126,-2304 147.7887,-2358.0963 191.4942,-2408.4103 226.3713,-2442.7033"/>
<polygon fill="#000000" stroke="#000000" points="224.0512,-2445.3288 233.6686,-2449.7735 228.9221,-2440.3014 224.0512,-2445.3288"/>
<text text-anchor="middle" x="163.7048" y="-2419.2" font-family="monospace" font-size="14.00" fill="#000000">=</text>
</g>
<!-- Noteq_begin -->
<g id="node10" class="node">
<title>Noteq_begin</title>
<ellipse fill="none" stroke="#000000" cx="277.4096" cy="-2358" rx="54" ry="54"/>
<text text-anchor="middle" x="277.4096" y="-2353.8" font-family="monospace" font-size="14.00" fill="#000000">Noteq_begin</text>
</g>
<!-- Start&#45;&gt;Noteq_begin -->
<g id="edge26" class="edge">
<title>Start-&gt;Noteq_begin</title>
<path fill="none" stroke="#000000" d="M56.4584,-1578.1998C63.1486,-1713.0933 84.0561,-2060.735 126,-2168 148.3713,-2225.2112 194.293,-2278.8213 229.7283,-2314.411"/>
<polygon fill="#000000" stroke="#000000" points="227.5493,-2317.1788 237.1184,-2321.7267 232.474,-2312.2041 227.5493,-2317.1788"/>
<text text-anchor="middle" x="163.7048" y="-2287.2" font-family="monospace" font-size="14.00" fill="#000000">!</text>
</g>
<!-- Concat -->
<g id="node13" class="node">
<title>Concat</title>
<ellipse fill="none" stroke="#000000" cx="277.4096" cy="-2228" rx="54" ry="54"/>
<ellipse fill="none" stroke="#000000" cx="277.4096" cy="-2228" rx="58" ry="58"/>
<text text-anchor="middle" x="277.4096" y="-2223.8" font-family="monospace" font-size="14.00" fill="#000000">Concat</text>
</g>
<!-- Start&#45;&gt;Concat -->
<g id="edge29" class="edge">
<title>Start-&gt;Concat</title>
<path fill="none" stroke="#000000" d="M58.5565,-1578.0982C68.5463,-1690.5803 94.0544,-1945.955 126,-2027 149.0554,-2085.4907 194.0349,-2141.7371 229.0046,-2179.7796"/>
<polygon fill="#000000" stroke="#000000" points="226.4807,-2182.2051 235.8557,-2187.1407 231.6048,-2177.436 226.4807,-2182.2051"/>
<text text-anchor="middle" x="163.7048" y="-2151.2" font-family="monospace" font-size="14.00" fill="#000000">.</text>
</g>
<!-- Smaller -->
<g id="node14" class="node">
<title>Smaller</title>
<ellipse fill="none" stroke="#000000" cx="277.4096" cy="-2094" rx="54" ry="54"/>
<ellipse fill="none" stroke="#000000" cx="277.4096" cy="-2094" rx="58" ry="58"/>
<text text-anchor="middle" x="277.4096" y="-2089.8" font-family="monospace" font-size="14.00" fill="#000000">Smaller</text>
</g>
<!-- Start&#45;&gt;Smaller -->
<g id="edge30" class="edge">
<title>Start-&gt;Smaller</title>
<path fill="none" stroke="#000000" d="M57.8088,-1578.0845C64.4693,-1651.2943 82.0008,-1784.8584 126,-1890 150.5021,-1948.5508 195.3019,-2005.7377 229.8368,-2044.5924"/>
<polygon fill="#000000" stroke="#000000" points="227.3097,-2047.0166 236.5978,-2052.1138 232.5156,-2042.337 227.3097,-2047.0166"/>
<text text-anchor="middle" x="163.7048" y="-2010.2" font-family="monospace" font-size="14.00" fill="#000000">&lt;</text>
</g>
<!-- Larger -->
<g id="node15" class="node">
<title>Larger</title>
<ellipse fill="none" stroke="#000000" cx="277.4096" cy="-1960" rx="54" ry="54"/>
<ellipse fill="none" stroke="#000000" cx="277.4096" cy="-1960" rx="58" ry="58"/>
<text text-anchor="middle" x="277.4096" y="-1955.8" font-family="monospace" font-size="14.00" fill="#000000">Larger</text>
</g>
<!-- Start&#45;&gt;Larger -->
<g id="edge31" class="edge">
<title>Start-&gt;Larger</title>
<path fill="none" stroke="#000000" d="M64.3266,-1577.4211C75.3382,-1627.8161 95.4424,-1704.5816 126,-1766 157.2114,-1828.7324 175.6878,-1838.2469 219.4096,-1893 223.5376,-1898.1696 227.9153,-1903.4928 232.3422,-1908.7722"/>
<polygon fill="#000000" stroke="#000000" points="229.7093,-1911.079 238.8402,-1916.4528 235.0534,-1906.5578 229.7093,-1911.079"/>
<text text-anchor="middle" x="163.7048" y="-1873.2" font-family="monospace" font-size="14.00" fill="#000000">&gt;</text>
</g>
<!-- Plus -->
<g id="node18" class="node">
<title>Plus</title>
<ellipse fill="none" stroke="#000000" cx="277.4096" cy="-1826" rx="54" ry="54"/>
<ellipse fill="none" stroke="#000000" cx="277.4096" cy="-1826" rx="58" ry="58"/>
<text text-anchor="middle" x="277.4096" y="-1821.8" font-family="monospace" font-size="14.00" fill="#000000">Plus</text>
</g>
<!-- Start&#45;&gt;Plus -->
<g id="edge35" class="edge">
<title>Start-&gt;Plus</title>
<path fill="none" stroke="#000000" d="M78.0332,-1572.6238C91.0568,-1597.4281 108.1198,-1627.6344 126,-1653 157.3202,-1697.4321 198.171,-1743.5542 229.546,-1776.9915"/>
<polygon fill="#000000" stroke="#000000" points="227.0851,-1779.4833 236.4939,-1784.3542 232.1762,-1774.6791 227.0851,-1779.4833"/>
<text text-anchor="middle" x="163.7048" y="-1749.2" font-family="monospace" font-size="14.00" fill="#000000">+</text>
</g>
<!-- Minus -->
<g id="node19" class="node">
<title>Minus</title>
<ellipse fill="none" stroke="#000000" cx="277.4096" cy="-1692" rx="54" ry="54"/>
<ellipse fill="none" stroke="#000000" cx="277.4096" cy="-1692" rx="58" ry="58"/>
<text text-anchor="middle" x="277.4096" y="-1687.8" font-family="monospace" font-size="14.00" fill="#000000">Minus</text>
</g>
<!-- Start&#45;&gt;Minus -->
<g id="edge36" class="edge">
<title>Start-&gt;Minus</title>
<path fill="none" stroke="#000000" d="M97.3405,-1556.5913C133.1171,-1583.4947 184.0958,-1621.8297 222.6847,-1650.8479"/>
<polygon fill="#000000" stroke="#000000" points="220.6253,-1653.6784 230.7212,-1656.8912 224.8324,-1648.0837 220.6253,-1653.6784"/>
<text text-anchor="middle" x="163.7048" y="-1636.2" font-family="monospace" font-size="14.00" fill="#000000">-</text>
</g>
<!-- Mul -->
<g id="node20" class="node">
<title>Mul</title>
<ellipse fill="none" stroke="#000000" cx="277.4096" cy="-1558" rx="54" ry="54"/>
<ellipse fill="none" stroke="#000000" cx="277.4096" cy="-1558" rx="58" ry="58"/>
<text text-anchor="middle" x="277.4096" y="-1553.8" font-family="monospace" font-size="14.00" fill="#000000">Mul</text>
</g>
<!-- Start&#45;&gt;Mul -->
<g id="edge37" class="edge">
<title>Start-&gt;Mul</title>
<path fill="none" stroke="#000000" d="M107.5122,-1532.1438C138.2798,-1536.8263 177.2194,-1542.7524 210.055,-1547.7495"/>
<polygon fill="#000000" stroke="#000000" points="209.6209,-1551.2237 220.0337,-1549.2681 210.6741,-1544.3033 209.6209,-1551.2237"/>
<text text-anchor="middle" x="163.7048" y="-1550.2" font-family="monospace" font-size="14.00" fill="#000000">*</text>
</g>
<!-- Div -->
<g id="node21" class="node">
<title>Div</title>
<ellipse fill="none" stroke="#000000" cx="277.4096" cy="-1424" rx="54" ry="54"/>
<ellipse fill="none" stroke="#000000" cx="277.4096" cy="-1424" rx="58" ry="58"/>
<text text-anchor="middle" x="277.4096" y="-1419.8" font-family="monospace" font-size="14.00" fill="#000000">Div</text>
</g>
<!-- Start&#45;&gt;Div -->
<g id="edge39" class="edge">
<title>Start-&gt;Div</title>
<path fill="none" stroke="#000000" d="M103.3048,-1501.9308C136.2152,-1487.1998 179.7654,-1467.7064 215.0759,-1451.9011"/>
<polygon fill="#000000" stroke="#000000" points="216.6339,-1455.0384 224.3313,-1447.7583 213.774,-1448.6492 216.6339,-1455.0384"/>
<text text-anchor="middle" x="163.7048" y="-1495.2" font-family="monospace" font-size="14.00" fill="#000000">/</text>
</g>
<!-- String_begin -->
<g id="node27" class="node">
<title>String_begin</title>
<ellipse fill="none" stroke="#000000" cx="277.4096" cy="-1294" rx="54" ry="54"/>
<text text-anchor="middle" x="277.4096" y="-1289.8" font-family="monospace" font-size="14.00" fill="#000000">String_begin</text>
</g>
<!-- Start&#45;&gt;String_begin -->
<g id="edge6" class="edge">
<title>Start-&gt;String_begin</title>
<path fill="none" stroke="#000000" d="M87.8797,-1481.7326C99.6238,-1467.5986 113.0879,-1451.9502 126,-1438.2 159.2162,-1402.8278 199.0257,-1365.0796 229.4867,-1337.0807"/>
<polygon fill="#000000" stroke="#000000" points="232.0103,-1339.5155 237.0199,-1330.1798 227.2819,-1334.3538 232.0103,-1339.5155"/>
<text text-anchor="middle" x="163.7048" y="-1442.2" font-family="monospace" font-size="14.00" fill="#000000">"</text>
</g>
<!-- Int_in -->
<g id="node31" class="node">
<title>Int_in</title>
<ellipse fill="none" stroke="#000000" cx="277.4096" cy="-1130" rx="54" ry="54"/>
<ellipse fill="none" stroke="#000000" cx="277.4096" cy="-1130" rx="58" ry="58"/>
<text text-anchor="middle" x="277.4096" y="-1125.8" font-family="monospace" font-size="14.00" fill="#000000">Int_in</text>
</g>
<!-- Start&#45;&gt;Int_in -->
<g id="edge13" class="edge">
<title>Start-&gt;Int_in</title>
<path fill="none" stroke="#000000" d="M70.96,-1472.5715C83.946,-1435.8077 103.4291,-1385.7027 126,-1344.2 157.5139,-1286.2532 201.8369,-1225.3078 234.386,-1183.3071"/>
<polygon fill="#000000" stroke="#000000" points="237.3443,-1185.2049 240.7315,-1175.1661 231.8233,-1180.9016 237.3443,-1185.2049"/>
<text text-anchor="middle" x="163.7048" y="-1348.2" font-family="monospace" font-size="14.00" fill="#000000">0-9</text>
</g>
<!-- L_r_par -->
<g id="node37" class="node">
<title>L_r_par</title>
<ellipse fill="none" stroke="#000000" cx="277.4096" cy="-996" rx="54" ry="54"/>
<ellipse fill="none" stroke="#000000" cx="277.4096" cy="-996" rx="58" ry="58"/>
<text text-anchor="middle" x="277.4096" y="-991.8" font-family="monospace" font-size="14.00" fill="#000000">L_r_par</text>
</g>
<!-- Start&#45;&gt;L_r_par -->
<g id="edge48" class="edge">
<title>Start-&gt;L_r_par</title>
<path fill="none" stroke="#000000" d="M60.5702,-1470.2028C69.6817,-1406.113 89.3376,-1296.7196 126,-1209.2 151.5419,-1148.2269 197.0146,-1087.6383 231.4804,-1046.7243"/>
<polygon fill="#000000" stroke="#000000" points="234.1838,-1048.9482 237.9989,-1039.0641 228.8526,-1044.4117 234.1838,-1048.9482"/>
<text text-anchor="middle" x="163.7048" y="-1213.2" font-family="monospace" font-size="14.00" fill="#000000">(</text>
</g>
<!-- R_r_par -->
<g id="node38" class="node">
<title>R_r_par</title>
<ellipse fill="none" stroke="#000000" cx="277.4096" cy="-862" rx="54" ry="54"/>
<ellipse fill="none" stroke="#000000" cx="277.4096" cy="-862" rx="58" ry="58"/>
<text text-anchor="middle" x="277.4096" y="-857.8" font-family="monospace" font-size="14.00" fill="#000000">R_r_par</text>
</g>
<!-- Start&#45;&gt;R_r_par -->
<g id="edge49" class="edge">
<title>Start-&gt;R_r_par</title>
<path fill="none" stroke="#000000" d="M59.484,-1470.0282C70.6036,-1365.4175 97.2055,-1138.9525 126,-1066.2 149.4489,-1006.9537 194.6059,-949.586 229.5277,-910.8216"/>
<polygon fill="#000000" stroke="#000000" points="232.2147,-913.0693 236.3661,-903.3217 227.0421,-908.3529 232.2147,-913.0693"/>
<text text-anchor="middle" x="163.7048" y="-1070.2" font-family="monospace" font-size="14.00" fill="#000000">)</text>
</g>
<!-- L_c_par -->
<g id="node39" class="node">
<title>L_c_par</title>
<ellipse fill="none" stroke="#000000" cx="277.4096" cy="-728" rx="54" ry="54"/>
<ellipse fill="none" stroke="#000000" cx="277.4096" cy="-728" rx="58" ry="58"/>
<text text-anchor="middle" x="277.4096" y="-723.8" font-family="monospace" font-size="14.00" fill="#000000">L_c_par</text>
</g>
<!-- Start&#45;&gt;L_c_par -->
<g id="edge50" class="edge">
<title>Start-&gt;L_c_par</title>
<path fill="none" stroke="#000000" d="M56.9343,-1470.0702C64.4776,-1341.7411 86.7576,-1021.532 126,-922.2 148.3642,-865.5909 192.6834,-811.882 227.6202,-775.3565"/>
<polygon fill="#000000" stroke="#000000" points="230.4719,-777.4434 234.9217,-767.8283 225.4471,-772.5699 230.4719,-777.4434"/>
<text text-anchor="middle" x="163.7048" y="-926.2" font-family="monospace" font-size="14.00" fill="#000000">{</text>
</g>
<!-- R_c_par -->
<g id="node40" class="node">
<title>R_c_par</title>
<ellipse fill="none" stroke="#000000" cx="277.4096" cy="-594" rx="54" ry="54"/>
<ellipse fill="none" stroke="#000000" cx="277.4096" cy="-594" rx="58" ry="58"/>
<text text-anchor="middle" x="277.4096" y="-589.8" font-family="monospace" font-size="14.00" fill="#000000">R_c_par</text>
</g>
<!-- Start&#45;&gt;R_c_par -->
<g id="edge51" class="edge">
<title>Start-&gt;R_c_par</title>
<path fill="none" stroke="#000000" d="M55.4549,-1469.9826C60.0535,-1321.4267 76.9924,-909.4846 126,-784.2 147.8185,-728.4225 191.972,-676.0392 226.9948,-640.426"/>
<polygon fill="#000000" stroke="#000000" points="229.7329,-642.637 234.3184,-633.0858 224.7776,-637.6928 229.7329,-642.637"/>
<text text-anchor="middle" x="163.7048" y="-788.2" font-family="monospace" font-size="14.00" fill="#000000">}</text>
</g>
<!-- Whitespace -->
<g id="node41" class="node">
<title>Whitespace</title>
<ellipse fill="none" stroke="#000000" cx="277.4096" cy="-460" rx="54" ry="54"/>
<ellipse fill="none" stroke="#000000" cx="277.4096" cy="-460" rx="58" ry="58"/>
<text text-anchor="middle" x="277.4096" y="-455.8" font-family="monospace" font-size="14.00" fill="#000000">Whitespace</text>
</g>
<!-- Start&#45;&gt;Whitespace -->
<g id="edge52" class="edge">
<title>Start-&gt;Whitespace</title>
<path fill="none" stroke="#000000" d="M54.4616,-1469.8258C56.5041,-1303.0253 67.4855,-799.3667 126,-648.2 147.4109,-592.8868 191.3813,-541.2457 226.4472,-506.1036"/>
<polygon fill="#000000" stroke="#000000" points="229.1268,-508.3763 233.7834,-498.8597 224.2085,-503.3953 229.1268,-508.3763"/>
<text text-anchor="middle" x="163.7048" y="-652.2" font-family="monospace" font-size="14.00" fill="#000000">(space)</text>
</g>
<!-- Comma -->
<g id="node42" class="node">
<title>Comma</title>
<ellipse fill="none" stroke="#000000" cx="277.4096" cy="-326" rx="54" ry="54"/>
<ellipse fill="none" stroke="#000000" cx="277.4096" cy="-326" rx="58" ry="58"/>
<text text-anchor="middle" x="277.4096" y="-321.8" font-family="monospace" font-size="14.00" fill="#000000">Comma</text>
</g>
<!-- Start&#45;&gt;Comma -->
<g id="edge53" class="edge">
<title>Start-&gt;Comma</title>
<path fill="none" stroke="#000000" d="M56.0208,-1469.7154C63.6048,-1272.7714 91.6969,-602.736 126,-513.2 147.1515,-457.9917 191.149,-406.6448 226.2913,-371.745"/>
<polygon fill="#000000" stroke="#000000" points="228.9434,-374.0468 233.6444,-364.552 224.0484,-369.0428 228.9434,-374.0468"/>
<text text-anchor="middle" x="163.7048" y="-517.2" font-family="monospace" font-size="14.00" fill="#000000">,</text>
</g>
<!-- Colon -->
<g id="node43" class="node">
<title>Colon</title>
<ellipse fill="none" stroke="#000000" cx="277.4096" cy="-192" rx="54" ry="54"/>
<ellipse fill="none" stroke="#000000" cx="277.4096" cy="-192" rx="58" ry="58"/>
<text text-anchor="middle" x="277.4096" y="-187.8" font-family="monospace" font-size="14.00" fill="#000000">Colon</text>
</g>
<!-- Start&#45;&gt;Colon -->
<g id="edge54" class="edge">
<title>Start-&gt;Colon</title>
<path fill="none" stroke="#000000" d="M55.5147,-1469.9339C61.7435,-1256.7322 86.9124,-480.885 126,-378.2 146.9648,-323.1245 190.9819,-272.069 226.1791,-237.4033"/>
<polygon fill="#000000" stroke="#000000" points="228.8032,-239.734 233.5445,-230.2592 223.9295,-234.7093 228.8032,-239.734"/>
<text text-anchor="middle" x="163.7048" y="-382.2" font-family="monospace" font-size="14.00" fill="#000000">:</text>
</g>
<!-- Semicolon -->
<g id="node44" class="node">
<title>Semicolon</title>
<ellipse fill="none" stroke="#000000" cx="277.4096" cy="-58" rx="54" ry="54"/>
<ellipse fill="none" stroke="#000000" cx="277.4096" cy="-58" rx="58" ry="58"/>
<text text-anchor="middle" x="277.4096" y="-53.8" font-family="monospace" font-size="14.00" fill="#000000">Semicolon</text>
</g>
<!-- Start&#45;&gt;Semicolon -->
<g id="edge55" class="edge">
<title>Start-&gt;Semicolon</title>
<path fill="none" stroke="#000000" d="M55.1333,-1469.9398C60.1846,-1241.2835 82.3418,-360.0328 126,-244.2 146.7841,-189.0561 190.8203,-138.0077 226.0706,-103.3622"/>
<polygon fill="#000000" stroke="#000000" points="228.6959,-105.6921 233.4477,-96.2226 223.8278,-100.662 228.6959,-105.6921"/>
<text text-anchor="middle" x="163.7048" y="-248.2" font-family="monospace" font-size="14.00" fill="#000000">;</text>
</g>
<!-- Identifier&#45;&gt;Identifier -->
<g id="edge2" class="edge">
<title>Identifier-&gt;Identifier</title>
<path fill="none" stroke="#000000" d="M256.8723,-2944.3104C258.642,-2956.8147 265.4877,-2966 277.4096,-2966 285.9784,-2966 291.925,-2961.2548 295.2492,-2953.9428"/>
<polygon fill="#000000" stroke="#000000" points="298.6202,-2954.8838 297.9469,-2944.3104 291.8796,-2952.9959 298.6202,-2954.8838"/>
<text text-anchor="middle" x="277.4096" y="-2970.2" font-family="monospace" font-size="14.00" fill="#000000">  _, 0-9, a-z, A-Z  </text>
</g>
<!-- End_closing -->
<g id="node5" class="node">
<title>End_closing</title>
<ellipse fill="none" stroke="#000000" cx="511.6596" cy="-2622" rx="54" ry="54"/>
<ellipse fill="none" stroke="#000000" cx="511.6596" cy="-2622" rx="58" ry="58"/>
<text text-anchor="middle" x="511.6596" y="-2617.8" font-family="monospace" font-size="14.00" fill="#000000">End_closing</text>
</g>
<!-- Type_prefix&#45;&gt;End_closing -->
<g id="edge5" class="edge">
<title>Type_prefix-&gt;End_closing</title>
<path fill="none" stroke="#000000" d="M335.6151,-2622C368.1563,-2622 408.9023,-2622 442.9966,-2622"/>
<polygon fill="#000000" stroke="#000000" points="443.3477,-2625.5001 453.3476,-2622 443.3476,-2618.5001 443.3477,-2625.5001"/>
<text text-anchor="middle" x="394.5346" y="-2626.2" font-family="monospace" font-size="14.00" fill="#000000">&gt;</text>
</g>
<!-- Start_opening -->
<g id="node6" class="node">
<title>Start_opening</title>
<ellipse fill="none" stroke="#000000" cx="511.6596" cy="-2228" rx="54" ry="54"/>
<ellipse fill="none" stroke="#000000" cx="511.6596" cy="-2228" rx="58" ry="58"/>
<text text-anchor="middle" x="511.6596" y="-2223.8" font-family="monospace" font-size="14.00" fill="#000000">Start_opening</text>
</g>
<!-- Eq_in -->
<g id="node8" class="node">
<title>Eq_in</title>
<ellipse fill="none" stroke="#000000" cx="511.6596" cy="-2490" rx="54" ry="54"/>
<text text-anchor="middle" x="511.6596" y="-2485.8" font-family="monospace" font-size="14.00" fill="#000000">Eq_in</text>
</g>
<!-- Assign&#45;&gt;Eq_in -->
<g id="edge24" class="edge">
<title>Assign-&gt;Eq_in</title>
<path fill="none" stroke="#000000" d="M335.6151,-2488.497C369.5298,-2488.7865 412.3566,-2489.1522 447.2772,-2489.4503"/>
<polygon fill="#000000" stroke="#000000" points="447.3416,-2492.9509 457.3712,-2489.5365 447.4015,-2485.9511 447.3416,-2492.9509"/>
<text text-anchor="middle" x="394.5346" y="-2493.2" font-family="monospace" font-size="14.00" fill="#000000">=</text>
</g>
<!-- Eq_end -->
<g id="node9" class="node">
<title>Eq_end</title>
<ellipse fill="none" stroke="#000000" cx="729.1495" cy="-2491" rx="54" ry="54"/>
<ellipse fill="none" stroke="#000000" cx="729.1495" cy="-2491" rx="58" ry="58"/>
<text text-anchor="middle" x="729.1495" y="-2486.8" font-family="monospace" font-size="14.00" fill="#000000">Eq_end</text>
</g>
<!-- Eq_in&#45;&gt;Eq_end -->
<g id="edge25" class="edge">
<title>Eq_in-&gt;Eq_end</title>
<path fill="none" stroke="#000000" d="M565.7006,-2490.2485C594.4098,-2490.3805 629.9973,-2490.5441 660.6284,-2490.6849"/>
<polygon fill="#000000" stroke="#000000" points="660.7932,-2494.1856 670.8092,-2490.7318 660.8255,-2487.1857 660.7932,-2494.1856"/>
<text text-anchor="middle" x="616.9273" y="-2494.2" font-family="monospace" font-size="14.00" fill="#000000">=</text>
</g>
<!-- Noteq_in -->
<g id="node11" class="node">
<title>Noteq_in</title>
<ellipse fill="none" stroke="#000000" cx="511.6596" cy="-2358" rx="54" ry="54"/>
<text text-anchor="middle" x="511.6596" y="-2353.8" font-family="monospace" font-size="14.00" fill="#000000">Noteq_in</text>
</g>
<!-- Noteq_begin&#45;&gt;Noteq_in -->
<g id="edge27" class="edge">
<title>Noteq_begin-&gt;Noteq_in</title>
<path fill="none" stroke="#000000" d="M331.4454,-2358C366.0268,-2358 411.0668,-2358 447.4682,-2358"/>
<polygon fill="#000000" stroke="#000000" points="447.4904,-2361.5001 457.4903,-2358 447.4903,-2354.5001 447.4904,-2361.5001"/>
<text text-anchor="middle" x="394.5346" y="-2362.2" font-family="monospace" font-size="14.00" fill="#000000">=</text>
</g>
<!-- Noteq_end -->
<g id="node12" class="node">
<title>Noteq_end</title>
<ellipse fill="none" stroke="#000000" cx="729.1495" cy="-2357" rx="54" ry="54"/>
<ellipse fill="none" stroke="#000000" cx="729.1495" cy="-2357" rx="58" ry="58"/>
<text text-anchor="middle" x="729.1495" y="-2352.8" font-family="monospace" font-size="14.00" fill="#000000">Noteq_end</text>
</g>
<!-- Noteq_in&#45;&gt;Noteq_end -->
<g id="edge28" class="edge">
<title>Noteq_in-&gt;Noteq_end</title>
<path fill="none" stroke="#000000" d="M565.7006,-2357.7515C594.4098,-2357.6195 629.9973,-2357.4559 660.6284,-2357.3151"/>
<polygon fill="#000000" stroke="#000000" points="660.8255,-2360.8143 670.8092,-2357.2682 660.7932,-2353.8144 660.8255,-2360.8143"/>
<text text-anchor="middle" x="616.9273" y="-2361.2" font-family="monospace" font-size="14.00" fill="#000000">=</text>
</g>
<!-- Smaller&#45;&gt;Start_opening -->
<g id="edge34" class="edge">
<title>Smaller-&gt;Start_opening</title>
<path fill="none" stroke="#000000" d="M327.95,-2122.911C364.4331,-2143.7808 413.8229,-2172.0337 452.2036,-2193.9889"/>
<polygon fill="#000000" stroke="#000000" points="450.7918,-2197.2134 461.2098,-2199.1408 454.2676,-2191.1373 450.7918,-2197.2134"/>
<text text-anchor="middle" x="394.5346" y="-2184.2" font-family="monospace" font-size="14.00" fill="#000000">?</text>
</g>
<!-- Smaller_eq -->
<g id="node16" class="node">
<title>Smaller_eq</title>
<ellipse fill="none" stroke="#000000" cx="511.6596" cy="-2094" rx="54" ry="54"/>
<ellipse fill="none" stroke="#000000" cx="511.6596" cy="-2094" rx="58" ry="58"/>
<text text-anchor="middle" x="511.6596" y="-2089.8" font-family="monospace" font-size="14.00" fill="#000000">Smaller_eq</text>
</g>
<!-- Smaller&#45;&gt;Smaller_eq -->
<g id="edge32" class="edge">
<title>Smaller-&gt;Smaller_eq</title>
<path fill="none" stroke="#000000" d="M335.6151,-2094C368.1563,-2094 408.9023,-2094 442.9966,-2094"/>
<polygon fill="#000000" stroke="#000000" points="443.3477,-2097.5001 453.3476,-2094 443.3476,-2090.5001 443.3477,-2097.5001"/>
<text text-anchor="middle" x="394.5346" y="-2098.2" font-family="monospace" font-size="14.00" fill="#000000">=</text>
</g>
<!-- Larger_eq -->
<g id="node17" class="node">
<title>Larger_eq</title>
<ellipse fill="none" stroke="#000000" cx="511.6596" cy="-1960" rx="54" ry="54"/>
<ellipse fill="none" stroke="#000000" cx="511.6596" cy="-1960" rx="58" ry="58"/>
<text text-anchor="middle" x="511.6596" y="-1955.8" font-family="monospace" font-size="14.00" fill="#000000">Larger_eq</text>
</g>
<!-- Larger&#45;&gt;Larger_eq -->
<g id="edge33" class="edge">
<title>Larger-&gt;Larger_eq</title>
<path fill="none" stroke="#000000" d="M335.6151,-1960C368.1563,-1960 408.9023,-1960 442.9966,-1960"/>
<polygon fill="#000000" stroke="#000000" points="443.3477,-1963.5001 453.3476,-1960 443.3476,-1956.5001 443.3477,-1963.5001"/>
<text text-anchor="middle" x="394.5346" y="-1964.2" font-family="monospace" font-size="14.00" fill="#000000">=</text>
</g>
<!-- Comment_l_in -->
<g id="node22" class="node">
<title>Comment_l_in</title>
<ellipse fill="none" stroke="#000000" cx="511.6596" cy="-1667" rx="54" ry="54"/>
<text text-anchor="middle" x="511.6596" y="-1662.8" font-family="monospace" font-size="14.00" fill="#000000">Comment_l_in</text>
</g>
<!-- Div&#45;&gt;Comment_l_in -->
<g id="edge40" class="edge">
<title>Div-&gt;Comment_l_in</title>
<path fill="none" stroke="#000000" d="M317.6786,-1465.7732C359.1896,-1508.8347 423.7606,-1575.8177 466.8607,-1620.5277"/>
<polygon fill="#000000" stroke="#000000" points="464.3914,-1623.0092 473.8515,-1627.7796 469.431,-1618.151 464.3914,-1623.0092"/>
<text text-anchor="middle" x="394.5346" y="-1585.2" font-family="monospace" font-size="14.00" fill="#000000">/</text>
</g>
<!-- Comment_b_in -->
<g id="node24" class="node">
<title>Comment_b_in</title>
<ellipse fill="none" stroke="#000000" cx="511.6596" cy="-1506" rx="54" ry="54"/>
<text text-anchor="middle" x="511.6596" y="-1501.8" font-family="monospace" font-size="14.00" fill="#000000">Comment_b_in</text>
</g>
<!-- Div&#45;&gt;Comment_b_in -->
<g id="edge43" class="edge">
<title>Div-&gt;Comment_b_in</title>
<path fill="none" stroke="#000000" d="M332.3308,-1443.2254C367.9579,-1455.6967 414.4021,-1471.9547 451.0981,-1484.8003"/>
<polygon fill="#000000" stroke="#000000" points="450.0927,-1488.1565 460.6876,-1488.1571 452.4055,-1481.5496 450.0927,-1488.1565"/>
<text text-anchor="middle" x="394.5346" y="-1481.2" font-family="monospace" font-size="14.00" fill="#000000">*</text>
</g>
<!-- Comment_l_in&#45;&gt;Comment_l_in -->
<g id="edge41" class="edge">
<title>Comment_l_in-&gt;Comment_l_in</title>
<path fill="none" stroke="#000000" d="M492.5036,-1717.7967C494.0008,-1729.9758 500.3862,-1739 511.6596,-1739 519.5862,-1739 525.0963,-1734.5386 528.1897,-1727.656"/>
<polygon fill="#000000" stroke="#000000" points="531.624,-1728.3607 530.8156,-1717.7967 524.8598,-1726.559 531.624,-1728.3607"/>
<text text-anchor="middle" x="511.6596" y="-1743.2" font-family="monospace" font-size="14.00" fill="#000000">ASCII-{\n, EOF}</text>
</g>
<!-- Comment_l_end -->
<g id="node23" class="node">
<title>Comment_l_end</title>
<ellipse fill="none" stroke="#000000" cx="729.1495" cy="-1667" rx="56.3193" ry="56.3193"/>
<ellipse fill="none" stroke="#000000" cx="729.1495" cy="-1667" rx="60.3303" ry="60.3303"/>
<text text-anchor="middle" x="729.1495" y="-1662.8" font-family="monospace" font-size="14.00" fill="#000000">Comment_l_end</text>
</g>
<!-- Comment_l_in&#45;&gt;Comment_l_end -->
<g id="edge42" class="edge">
<title>Comment_l_in-&gt;Comment_l_end</title>
<path fill="none" stroke="#000000" d="M565.7006,-1667C593.8447,-1667 628.5989,-1667 658.8138,-1667"/>
<polygon fill="#000000" stroke="#000000" points="658.8705,-1670.5001 668.8705,-1667 658.8705,-1663.5001 658.8705,-1670.5001"/>
<text text-anchor="middle" x="616.9273" y="-1671.2" font-family="monospace" font-size="14.00" fill="#000000">\n, EOF</text>
</g>
<!-- Comment_b_in&#45;&gt;Comment_b_in -->
<g id="edge44" class="edge">
<title>Comment_b_in-&gt;Comment_b_in</title>
<path fill="none" stroke="#000000" d="M492.5036,-1556.7967C494.0008,-1568.9758 500.3862,-1578 511.6596,-1578 519.5862,-1578 525.0963,-1573.5386 528.1897,-1566.656"/>
<polygon fill="#000000" stroke="#000000" points="531.624,-1567.3607 530.8156,-1556.7967 524.8598,-1565.559 531.624,-1567.3607"/>
<text text-anchor="middle" x="511.6596" y="-1582.2" font-family="monospace" font-size="14.00" fill="#000000">ASCII-{*}</text>
</g>
<!-- Comment_b_end_1 -->
<g id="node25" class="node">
<title>Comment_b_end_1</title>
<ellipse fill="none" stroke="#000000" cx="729.1495" cy="-1524" rx="64.909" ry="64.909"/>
<text text-anchor="middle" x="729.1495" y="-1519.8" font-family="monospace" font-size="14.00" fill="#000000">Comment_b_end_1</text>
</g>
<!-- Comment_b_in&#45;&gt;Comment_b_end_1 -->
<g id="edge45" class="edge">
<title>Comment_b_in-&gt;Comment_b_end_1</title>
<path fill="none" stroke="#000000" d="M564.9497,-1496.4106C589.7662,-1493.402 619.6147,-1491.8646 646.195,-1496.2 650.1301,-1496.8418 654.1304,-1497.6443 658.1412,-1498.5678"/>
<polygon fill="#000000" stroke="#000000" points="657.548,-1502.028 668.1012,-1501.0899 659.2664,-1495.2422 657.548,-1502.028"/>
<text text-anchor="middle" x="616.9273" y="-1500.2" font-family="monospace" font-size="14.00" fill="#000000">*</text>
</g>
<!-- Comment_b_end_1&#45;&gt;Comment_b_in -->
<g id="edge46" class="edge">
<title>Comment_b_end_1-&gt;Comment_b_in</title>
<path fill="none" stroke="#000000" d="M664.3312,-1519.1559C640.2489,-1517.3047 612.7006,-1515.1265 587.6596,-1513 583.7607,-1512.6689 579.7499,-1512.321 575.705,-1511.9647"/>
<polygon fill="#000000" stroke="#000000" points="575.8958,-1508.4679 565.6245,-1511.0661 575.2743,-1515.4403 575.8958,-1508.4679"/>
<text text-anchor="middle" x="616.9273" y="-1521.2" font-family="monospace" font-size="14.00" fill="#000000">ASCII-{/}</text>
</g>
<!-- Comment_b_end_2 -->
<g id="node26" class="node">
<title>Comment_b_end_2</title>
<ellipse fill="none" stroke="#000000" cx="920.8257" cy="-1524" rx="64.9117" ry="64.9117"/>
<ellipse fill="none" stroke="#000000" cx="920.8257" cy="-1524" rx="68.909" ry="68.909"/>
<text text-anchor="middle" x="920.8257" y="-1519.8" font-family="monospace" font-size="14.00" fill="#000000">Comment_b_end_2</text>
</g>
<!-- Comment_b_end_1&#45;&gt;Comment_b_end_2 -->
<g id="edge47" class="edge">
<title>Comment_b_end_1-&gt;Comment_b_end_2</title>
<path fill="none" stroke="#000000" d="M794.3098,-1524C809.4446,-1524 825.7205,-1524 841.3931,-1524"/>
<polygon fill="#000000" stroke="#000000" points="841.5871,-1527.5001 851.5871,-1524 841.587,-1520.5001 841.5871,-1527.5001"/>
<text text-anchor="middle" x="822.9876" y="-1528.2" font-family="monospace" font-size="14.00" fill="#000000">/</text>
</g>
<!-- String_in -->
<g id="node28" class="node">
<title>String_in</title>
<ellipse fill="none" stroke="#000000" cx="511.6596" cy="-1346" rx="54" ry="54"/>
<text text-anchor="middle" x="511.6596" y="-1341.8" font-family="monospace" font-size="14.00" fill="#000000">String_in</text>
</g>
<!-- String_begin&#45;&gt;String_in -->
<g id="edge7" class="edge">
<title>String_begin-&gt;String_in</title>
<path fill="none" stroke="#000000" d="M330.272,-1305.7347C365.3017,-1313.5107 411.439,-1323.7525 448.4153,-1331.9607"/>
<polygon fill="#000000" stroke="#000000" points="448.0638,-1335.4678 458.5847,-1334.2182 449.5809,-1328.6342 448.0638,-1335.4678"/>
<text text-anchor="middle" x="394.5346" y="-1331.2" font-family="monospace" font-size="14.00" fill="#000000">ASCII&gt;31-{"}</text>
</g>
<!-- String_end -->
<g id="node29" class="node">
<title>String_end</title>
<ellipse fill="none" stroke="#000000" cx="729.1495" cy="-1257" rx="54" ry="54"/>
<ellipse fill="none" stroke="#000000" cx="729.1495" cy="-1257" rx="58" ry="58"/>
<text text-anchor="middle" x="729.1495" y="-1252.8" font-family="monospace" font-size="14.00" fill="#000000">String_end</text>
</g>
<!-- String_begin&#45;&gt;String_end -->
<g id="edge12" class="edge">
<title>String_begin-&gt;String_end</title>
<path fill="none" stroke="#000000" d="M330.7992,-1283.8261C365.6377,-1277.6218 412.1827,-1270.1485 453.6596,-1266.2 524.071,-1259.497 605.0077,-1257.4673 660.846,-1256.9489"/>
<polygon fill="#000000" stroke="#000000" points="660.9999,-1260.4479 670.9719,-1256.8689 660.9446,-1253.4481 660.9999,-1260.4479"/>
<text text-anchor="middle" x="511.6596" y="-1270.2" font-family="monospace" font-size="14.00" fill="#000000">"</text>
</g>
<!-- String_in&#45;&gt;String_in -->
<g id="edge10" class="edge">
<title>String_in-&gt;String_in</title>
<path fill="none" stroke="#000000" d="M492.5036,-1396.7967C494.0008,-1408.9758 500.3862,-1418 511.6596,-1418 519.5862,-1418 525.0963,-1413.5386 528.1897,-1406.656"/>
<polygon fill="#000000" stroke="#000000" points="531.624,-1407.3607 530.8156,-1396.7967 524.8598,-1405.559 531.624,-1407.3607"/>
<text text-anchor="middle" x="511.6596" y="-1422.2" font-family="monospace" font-size="14.00" fill="#000000">ASCII&gt;31-{"}</text>
</g>
<!-- String_in&#45;&gt;String_end -->
<g id="edge8" class="edge">
<title>String_in-&gt;String_end</title>
<path fill="none" stroke="#000000" d="M561.8293,-1325.4699C592.7716,-1312.8078 632.7325,-1296.4552 665.8417,-1282.9065"/>
<polygon fill="#000000" stroke="#000000" points="667.5015,-1286.009 675.431,-1278.9824 664.8504,-1279.5305 667.5015,-1286.009"/>
<text text-anchor="middle" x="616.9273" y="-1318.2" font-family="monospace" font-size="14.00" fill="#000000">"</text>
</g>
<!-- String_esc -->
<g id="node30" class="node">
<title>String_esc</title>
<ellipse fill="none" stroke="#000000" cx="729.1495" cy="-1387" rx="54" ry="54"/>
<text text-anchor="middle" x="729.1495" y="-1382.8" font-family="monospace" font-size="14.00" fill="#000000">String_esc</text>
</g>
<!-- String_in&#45;&gt;String_esc -->
<g id="edge9" class="edge">
<title>String_in-&gt;String_esc</title>
<path fill="none" stroke="#000000" d="M564.2599,-1359.807C572.0788,-1361.6682 580.0612,-1363.4628 587.6596,-1365 612.9238,-1370.1112 640.9338,-1374.6911 665.3207,-1378.3316"/>
<polygon fill="#000000" stroke="#000000" points="665.1291,-1381.841 675.5319,-1379.8331 666.1475,-1374.9155 665.1291,-1381.841"/>
<text text-anchor="middle" x="616.9273" y="-1379.2" font-family="monospace" font-size="14.00" fill="#000000">\</text>
</g>
<!-- String_esc&#45;&gt;String_in -->
<g id="edge11" class="edge">
<title>String_esc-&gt;String_in</title>
<path fill="none" stroke="#000000" d="M683.2994,-1358.4637C671.6192,-1352.5852 658.7936,-1347.2586 646.195,-1344.2 623.5575,-1338.7043 598.1408,-1337.7636 575.5456,-1338.6629"/>
<polygon fill="#000000" stroke="#000000" points="575.1856,-1335.1769 565.3827,-1339.1959 575.5523,-1342.1673 575.1856,-1335.1769"/>
<text text-anchor="middle" x="616.9273" y="-1348.2" font-family="monospace" font-size="14.00" fill="#000000">ASCII&gt;31</text>
</g>
<!-- Int_in&#45;&gt;Int_in -->
<g id="edge14" class="edge">
<title>Int_in-&gt;Int_in</title>
<path fill="none" stroke="#000000" d="M256.8723,-1184.3104C258.642,-1196.8147 265.4877,-1206 277.4096,-1206 285.9784,-1206 291.925,-1201.2548 295.2492,-1193.9428"/>
<polygon fill="#000000" stroke="#000000" points="298.6202,-1194.8838 297.9469,-1184.3104 291.8796,-1192.9959 298.6202,-1194.8838"/>
<text text-anchor="middle" x="277.4096" y="-1210.2" font-family="monospace" font-size="14.00" fill="#000000">0-9</text>
</g>
<!-- Float_begin -->
<g id="node32" class="node">
<title>Float_begin</title>
<ellipse fill="none" stroke="#000000" cx="511.6596" cy="-1105" rx="54" ry="54"/>
<text text-anchor="middle" x="511.6596" y="-1100.8" font-family="monospace" font-size="14.00" fill="#000000">Float_begin</text>
</g>
<!-- Int_in&#45;&gt;Float_begin -->
<g id="edge15" class="edge">
<title>Int_in-&gt;Float_begin</title>
<path fill="none" stroke="#000000" d="M335.3141,-1123.8202C369.3483,-1120.188 412.4357,-1115.5895 447.5001,-1111.8473"/>
<polygon fill="#000000" stroke="#000000" points="448.0609,-1115.3074 457.633,-1110.7659 447.318,-1108.347 448.0609,-1115.3074"/>
<text text-anchor="middle" x="394.5346" y="-1125.2" font-family="monospace" font-size="14.00" fill="#000000">.</text>
</g>
<!-- Exp_begin -->
<g id="node34" class="node">
<title>Exp_begin</title>
<ellipse fill="none" stroke="#000000" cx="920.8257" cy="-1025" rx="54" ry="54"/>
<text text-anchor="middle" x="920.8257" y="-1020.8" font-family="monospace" font-size="14.00" fill="#000000">Exp_begin</text>
</g>
<!-- Int_in&#45;&gt;Exp_begin -->
<g id="edge18" class="edge">
<title>Int_in-&gt;Exp_begin</title>
<path fill="none" stroke="#000000" d="M326.6812,-1099.2112C360.96,-1079.3721 408.4504,-1054.9461 453.6596,-1042 593.0212,-1002.0925 765.3345,-1009.5977 856.7745,-1017.7815"/>
<polygon fill="#000000" stroke="#000000" points="856.6992,-1021.2895 866.9798,-1018.728 857.3458,-1014.3194 856.6992,-1021.2895"/>
<text text-anchor="middle" x="616.9273" y="-1021.2" font-family="monospace" font-size="14.00" fill="#000000">e, E</text>
</g>
<!-- Float_in -->
<g id="node33" class="node">
<title>Float_in</title>
<ellipse fill="none" stroke="#000000" cx="729.1495" cy="-1089" rx="54" ry="54"/>
<ellipse fill="none" stroke="#000000" cx="729.1495" cy="-1089" rx="58" ry="58"/>
<text text-anchor="middle" x="729.1495" y="-1084.8" font-family="monospace" font-size="14.00" fill="#000000">Float_in</text>
</g>
<!-- Float_begin&#45;&gt;Float_in -->
<g id="edge16" class="edge">
<title>Float_begin-&gt;Float_in</title>
<path fill="none" stroke="#000000" d="M565.7006,-1101.0244C594.5228,-1098.904 630.2776,-1096.2737 660.99,-1094.0143"/>
<polygon fill="#000000" stroke="#000000" points="661.4786,-1097.4879 671.1948,-1093.2635 660.965,-1090.5067 661.4786,-1097.4879"/>
<text text-anchor="middle" x="616.9273" y="-1103.2" font-family="monospace" font-size="14.00" fill="#000000">0-9</text>
</g>
<!-- Float_in&#45;&gt;Float_in -->
<g id="edge17" class="edge">
<title>Float_in-&gt;Float_in</title>
<path fill="none" stroke="#000000" d="M712.4565,-1144.6733C714.1516,-1156.4764 719.7159,-1165 729.1495,-1165 735.6351,-1165 740.2919,-1160.9713 743.1198,-1154.6179"/>
<polygon fill="#000000" stroke="#000000" points="746.5775,-1155.2426 745.8425,-1144.6733 739.826,-1153.3941 746.5775,-1155.2426"/>
<text text-anchor="middle" x="729.1495" y="-1169.2" font-family="monospace" font-size="14.00" fill="#000000">0-9</text>
</g>
<!-- Float_in&#45;&gt;Exp_begin -->
<g id="edge23" class="edge">
<title>Float_in-&gt;Exp_begin</title>
<path fill="none" stroke="#000000" d="M784.3331,-1070.5744C807.8562,-1062.7201 835.3905,-1053.5265 859.5438,-1045.4618"/>
<polygon fill="#000000" stroke="#000000" points="860.9385,-1048.6861 869.3153,-1042.1992 858.7215,-1042.0465 860.9385,-1048.6861"/>
<text text-anchor="middle" x="822.9876" y="-1064.2" font-family="monospace" font-size="14.00" fill="#000000">e, E</text>
</g>
<!-- Exp_sign -->
<g id="node35" class="node">
<title>Exp_sign</title>
<ellipse fill="none" stroke="#000000" cx="1099.3354" cy="-1098" rx="54" ry="54"/>
<text text-anchor="middle" x="1099.3354" y="-1093.8" font-family="monospace" font-size="14.00" fill="#000000">Exp_sign</text>
</g>
<!-- Exp_begin&#45;&gt;Exp_sign -->
<g id="edge19" class="edge">
<title>Exp_begin-&gt;Exp_sign</title>
<path fill="none" stroke="#000000" d="M971.0257,-1045.5288C992.4107,-1054.2741 1017.5217,-1064.543 1039.8321,-1073.6666"/>
<polygon fill="#000000" stroke="#000000" points="1038.6225,-1076.9533 1049.2033,-1077.4989 1041.2721,-1070.4741 1038.6225,-1076.9533"/>
<text text-anchor="middle" x="1017.5578" y="-1072.2" font-family="monospace" font-size="14.00" fill="#000000">+, -</text>
</g>
<!-- Exp_in -->
<g id="node36" class="node">
<title>Exp_in</title>
<ellipse fill="none" stroke="#000000" cx="1265.996" cy="-1025" rx="54" ry="54"/>
<ellipse fill="none" stroke="#000000" cx="1265.996" cy="-1025" rx="58" ry="58"/>
<text text-anchor="middle" x="1265.996" y="-1020.8" font-family="monospace" font-size="14.00" fill="#000000">Exp_in</text>
</g>
<!-- Exp_begin&#45;&gt;Exp_in -->
<g id="edge20" class="edge">
<title>Exp_begin-&gt;Exp_in</title>
<path fill="none" stroke="#000000" d="M974.7314,-1021.4129C996.6297,-1020.1234 1022.1802,-1018.8318 1045.3354,-1018.2 1093.3176,-1016.8907 1105.3572,-1016.7534 1153.3354,-1018.2 1167.8167,-1018.6366 1183.3308,-1019.3883 1198.0731,-1020.2366"/>
<polygon fill="#000000" stroke="#000000" points="1197.9431,-1023.7349 1208.1338,-1020.8366 1198.3599,-1016.7474 1197.9431,-1023.7349"/>
<text text-anchor="middle" x="1099.3354" y="-1022.2" font-family="monospace" font-size="14.00" fill="#000000">0-9</text>
</g>
<!-- Exp_sign&#45;&gt;Exp_in -->
<g id="edge21" class="edge">
<title>Exp_sign-&gt;Exp_in</title>
<path fill="none" stroke="#000000" d="M1148.8879,-1076.2952C1166.0466,-1068.7794 1185.5055,-1060.2561 1203.5644,-1052.346"/>
<polygon fill="#000000" stroke="#000000" points="1205.1053,-1055.4922 1212.8609,-1048.274 1202.2968,-1049.0803 1205.1053,-1055.4922"/>
<text text-anchor="middle" x="1180.6657" y="-1069.2" font-family="monospace" font-size="14.00" fill="#000000">0-9</text>
</g>
<!-- Exp_in&#45;&gt;Exp_in -->
<g id="edge22" class="edge">
<title>Exp_in-&gt;Exp_in</title>
<path fill="none" stroke="#000000" d="M1250.7997,-1081.0096C1252.3994,-1092.638 1257.4648,-1101 1265.996,-1101 1271.8613,-1101 1276.0884,-1097.0477 1278.6773,-1090.7988"/>
<polygon fill="#000000" stroke="#000000" points="1282.0938,-1091.5661 1281.1923,-1081.0096 1275.314,-1089.8241 1282.0938,-1091.5661"/>
<text text-anchor="middle" x="1265.996" y="-1105.2" font-family="monospace" font-size="14.00" fill="#000000">0-9</text>
</g>
</g>
</svg>