<?xml version="1.0" encoding="UTF-8" standalone="no"?><!DOCTYPE svg PUBLIC "-//W3C//DTD SVG 1.1//EN" "http://www.w3.org/Graphics/SVG/1.1/DTD/svg11.dtd"><!-- Generated by graphviz version 2.40.1 (20161225.0304)
 --><!-- Title: fsm Pages: 1 --><svg xmlns="http://www.w3.org/2000/svg" xmlns:xlink="http://www.w3.org/1999/xlink" width="1351pt" height="2983pt" viewBox="0.00 0.00 1350.82 2982.80">
<g id="graph0" class="graph" transform="scale(1 1) rotate(0) translate(4 2978.8)">
<title>fsm</title>
<polygon fill="#ffffff" stroke="transparent" points="-4,4 -4,-2978.8 1346.8162,-2978.8 1346.8162,4 -4,4"/>
<!-- Start -->
<g id="node1" class="node">
<title>Start</title>
<ellipse fill="none" stroke="#000000" cx="54" cy="-1509" rx="54" ry="54"/>
<text text-anchor="middle" x="54" y="-1504.8" font-family="monospace" font-size="14.00" fill="#000000">Start</text>
</g>
<!-- Identifier -->
<g id="node2" class="node">
<title>Identifier</title>
<ellipse fill="none" stroke="#000000" cx="277.4096" cy="-2882" rx="54" ry="54"/>
<ellipse fill="none" stroke="#000000" cx="277.4096" cy="-2882" rx="58" ry="58"/>
<text text-anchor="middle" x="277.4096" y="-2877.8" font-family="monospace" font-size="14.00" fill="#000000">Identifier</text>
</g>
<!-- Start&#45;&gt;Identifier -->
<g id="edge1" class="edge">
<title>Start-&gt;Identifier</title>
<path fill="none" stroke="#000000" d="M55.293,-1563.0765C60.7925,-1781.9116 83.9066,-2595.2271 126,-2702 147.0434,-2755.378 190.5976,-2804.3856 225.6135,-2837.7407"/>
<polygon fill="#000000" stroke="#000000" points="223.2564,-2840.3286 232.9447,-2844.6167 228.0451,-2835.2228 223.2564,-2840.3286"/>
<text text-anchor="middle" x="163.7048" y="-2815.2" font-family="monospace" font-size="14.00" fill="#000000">  _, a-z, A-Z  </text>
</g>
<!-- Var_id_prefix -->
<g id="node3" class="node">
<title>Var_id_prefix</title>
<ellipse fill="none" stroke="#000000" cx="277.4096" cy="-2752" rx="54" ry="54"/>
<text text-anchor="middle" x="277.4096" y="-2747.8" font-family="monospace" font-size="14.00" fill="#000000">Var_id_prefix</text>
</g>
<!-- Start&#45;&gt;Var_id_prefix -->
<g id="edge3" class="edge">
<title>Start-&gt;Var_id_prefix</title>
<path fill="none" stroke="#000000" d="M55.7925,-1563.226C62.7694,-1766.5184 89.5404,-2476.6205 126,-2571 147.2944,-2626.1229 192.6596,-2676.5899 228.2105,-2710.1481"/>
<polygon fill="#000000" stroke="#000000" points="225.9276,-2712.8046 235.6356,-2717.048 230.6927,-2707.6768 225.9276,-2712.8046"/>
<text text-anchor="middle" x="163.7048" y="-2685.2" font-family="monospace" font-size="14.00" fill="#000000">$</text>
</g>
<!-- Assign -->
<g id="node7" class="node">
<title>Assign</title>
<ellipse fill="none" stroke="#000000" cx="277.4096" cy="-2622" rx="54" ry="54"/>
<ellipse fill="none" stroke="#000000" cx="277.4096" cy="-2622" rx="58" ry="58"/>
<text text-anchor="middle" x="277.4096" y="-2617.8" font-family="monospace" font-size="14.00" fill="#000000">Assign</text>
</g>
<!-- Start&#45;&gt;Assign -->
<g id="edge39" class="edge">
<title>Start-&gt;Assign</title>
<path fill="none" stroke="#000000" d="M56.3196,-1563.0937C64.5657,-1749.4111 93.7025,-2357.5711 126,-2439 147.4323,-2493.0355 191.174,-2543.0524 226.1554,-2577.0907"/>
<polygon fill="#000000" stroke="#000000" points="223.8347,-2579.7144 233.4759,-2584.1073 228.6784,-2574.6609 223.8347,-2579.7144"/>
<text text-anchor="middle" x="163.7048" y="-2554.2" font-family="monospace" font-size="14.00" fill="#000000">=</text>
</g>
<!-- Noteq_begin -->
<g id="node10" class="node">
<title>Noteq_begin</title>
<ellipse fill="none" stroke="#000000" cx="277.4096" cy="-2492" rx="54" ry="54"/>
<text text-anchor="middle" x="277.4096" y="-2487.8" font-family="monospace" font-size="14.00" fill="#000000">Noteq_begin</text>
</g>
<!-- Start&#45;&gt;Noteq_begin -->
<g id="edge27" class="edge">
<title>Start-&gt;Noteq_begin</title>
<path fill="none" stroke="#000000" d="M55.0189,-1563.2172C58.5675,-1719.7378 73.2125,-2169.8214 126,-2306 147.8475,-2362.3612 193.6074,-2414.6142 229.1331,-2449.2933"/>
<polygon fill="#000000" stroke="#000000" points="226.9122,-2452.0134 236.5463,-2456.4219 231.7641,-2446.9677 226.9122,-2452.0134"/>
<text text-anchor="middle" x="163.7048" y="-2422.2" font-family="monospace" font-size="14.00" fill="#000000">!</text>
</g>
<!-- Concat -->
<g id="node13" class="node">
<title>Concat</title>
<ellipse fill="none" stroke="#000000" cx="277.4096" cy="-2362" rx="54" ry="54"/>
<ellipse fill="none" stroke="#000000" cx="277.4096" cy="-2362" rx="58" ry="58"/>
<text text-anchor="middle" x="277.4096" y="-2357.8" font-family="monospace" font-size="14.00" fill="#000000">Concat</text>
</g>
<!-- Start&#45;&gt;Concat -->
<g id="edge30" class="edge">
<title>Start-&gt;Concat</title>
<path fill="none" stroke="#000000" d="M56.3002,-1563.2016C62.693,-1700.3143 83.0985,-2057.8781 126,-2168 148.0809,-2224.6784 192.432,-2278.3176 227.4528,-2314.7677"/>
<polygon fill="#000000" stroke="#000000" points="225.2872,-2317.5603 234.7729,-2322.2797 230.3006,-2312.675 225.2872,-2317.5603"/>
<text text-anchor="middle" x="163.7048" y="-2289.2" font-family="monospace" font-size="14.00" fill="#000000">.</text>
</g>
<!-- Smaller -->
<g id="node14" class="node">
<title>Smaller</title>
<ellipse fill="none" stroke="#000000" cx="277.4096" cy="-2228" rx="54" ry="54"/>
<ellipse fill="none" stroke="#000000" cx="277.4096" cy="-2228" rx="58" ry="58"/>
<text text-anchor="middle" x="277.4096" y="-2223.8" font-family="monospace" font-size="14.00" fill="#000000">Smaller</text>
</g>
<!-- Start&#45;&gt;Smaller -->
<g id="edge31" class="edge">
<title>Start-&gt;Smaller</title>
<path fill="none" stroke="#000000" d="M58.2897,-1562.9604C67.9431,-1677.8716 93.1245,-1943.0967 126,-2027 148.9365,-2085.5375 193.9308,-2141.778 228.9362,-2179.8065"/>
<polygon fill="#000000" stroke="#000000" points="226.416,-2182.2359 235.7947,-2187.1647 231.5366,-2177.4631 226.416,-2182.2359"/>
<text text-anchor="middle" x="163.7048" y="-2151.2" font-family="monospace" font-size="14.00" fill="#000000">&lt;</text>
</g>
<!-- Larger -->
<g id="node15" class="node">
<title>Larger</title>
<ellipse fill="none" stroke="#000000" cx="277.4096" cy="-2094" rx="54" ry="54"/>
<ellipse fill="none" stroke="#000000" cx="277.4096" cy="-2094" rx="58" ry="58"/>
<text text-anchor="middle" x="277.4096" y="-2089.8" font-family="monospace" font-size="14.00" fill="#000000">Larger</text>
</g>
<!-- Start&#45;&gt;Larger -->
<g id="edge32" class="edge">
<title>Start-&gt;Larger</title>
<path fill="none" stroke="#000000" d="M57.3406,-1563.1986C63.5194,-1638.7432 80.5611,-1778.8176 126,-1889 150.3539,-1948.0544 195.3951,-2005.7012 230.0438,-2044.7454"/>
<polygon fill="#000000" stroke="#000000" points="227.5414,-2047.1971 236.8258,-2052.3011 232.7507,-2042.5213 227.5414,-2047.1971"/>
<text text-anchor="middle" x="163.7048" y="-2010.2" font-family="monospace" font-size="14.00" fill="#000000">&gt;</text>
</g>
<!-- Plus -->
<g id="node18" class="node">
<title>Plus</title>
<ellipse fill="none" stroke="#000000" cx="277.4096" cy="-1960" rx="54" ry="54"/>
<ellipse fill="none" stroke="#000000" cx="277.4096" cy="-1960" rx="58" ry="58"/>
<text text-anchor="middle" x="277.4096" y="-1955.8" font-family="monospace" font-size="14.00" fill="#000000">Plus</text>
</g>
<!-- Start&#45;&gt;Plus -->
<g id="edge36" class="edge">
<title>Start-&gt;Plus</title>
<path fill="none" stroke="#000000" d="M64.0819,-1562.5352C75.0747,-1614.4435 95.3073,-1694.5737 126,-1759 157.2233,-1824.5401 174.8332,-1835.6996 219.4096,-1893 223.4717,-1898.2216 227.8055,-1903.5793 232.2052,-1908.8802"/>
<polygon fill="#000000" stroke="#000000" points="229.5632,-1911.1765 238.6745,-1916.5834 234.9236,-1906.6747 229.5632,-1911.1765"/>
<text text-anchor="middle" x="163.7048" y="-1872.2" font-family="monospace" font-size="14.00" fill="#000000">+</text>
</g>
<!-- Minus -->
<g id="node19" class="node">
<title>Minus</title>
<ellipse fill="none" stroke="#000000" cx="277.4096" cy="-1826" rx="54" ry="54"/>
<ellipse fill="none" stroke="#000000" cx="277.4096" cy="-1826" rx="58" ry="58"/>
<text text-anchor="middle" x="277.4096" y="-1821.8" font-family="monospace" font-size="14.00" fill="#000000">Minus</text>
</g>
<!-- Start&#45;&gt;Minus -->
<g id="edge37" class="edge">
<title>Start-&gt;Minus</title>
<path fill="none" stroke="#000000" d="M76.2889,-1558.423C89.3859,-1585.6751 107.0596,-1619.635 126,-1648 161.8052,-1701.6217 177.5507,-1709.9578 219.4096,-1759 223.7044,-1764.0319 228.1928,-1769.2636 232.6886,-1774.4862"/>
<polygon fill="#000000" stroke="#000000" points="230.0784,-1776.8187 239.2591,-1782.1069 235.38,-1772.2477 230.0784,-1776.8187"/>
<text text-anchor="middle" x="163.7048" y="-1742.2" font-family="monospace" font-size="14.00" fill="#000000">-</text>
</g>
<!-- Mul -->
<g id="node20" class="node">
<title>Mul</title>
<ellipse fill="none" stroke="#000000" cx="277.4096" cy="-1692" rx="54" ry="54"/>
<ellipse fill="none" stroke="#000000" cx="277.4096" cy="-1692" rx="58" ry="58"/>
<text text-anchor="middle" x="277.4096" y="-1687.8" font-family="monospace" font-size="14.00" fill="#000000">Mul</text>
</g>
<!-- Start&#45;&gt;Mul -->
<g id="edge38" class="edge">
<title>Start-&gt;Mul</title>
<path fill="none" stroke="#000000" d="M96.0216,-1543.4209C132.3673,-1573.1925 185.1002,-1616.3873 224.35,-1648.5376"/>
<polygon fill="#000000" stroke="#000000" points="222.5561,-1651.5925 232.51,-1655.2217 226.9919,-1646.1773 222.5561,-1651.5925"/>
<text text-anchor="middle" x="163.7048" y="-1631.2" font-family="monospace" font-size="14.00" fill="#000000">*</text>
</g>
<!-- Div -->
<g id="node21" class="node">
<title>Div</title>
<ellipse fill="none" stroke="#000000" cx="277.4096" cy="-1558" rx="54" ry="54"/>
<ellipse fill="none" stroke="#000000" cx="277.4096" cy="-1558" rx="58" ry="58"/>
<text text-anchor="middle" x="277.4096" y="-1553.8" font-family="monospace" font-size="14.00" fill="#000000">Div</text>
</g>
<!-- Start&#45;&gt;Div -->
<g id="edge40" class="edge">
<title>Start-&gt;Div</title>
<path fill="none" stroke="#000000" d="M106.945,-1520.6123C137.9332,-1527.4089 177.3554,-1536.0553 210.4819,-1543.3209"/>
<polygon fill="#000000" stroke="#000000" points="210.0264,-1546.8041 220.544,-1545.5278 211.5261,-1539.9666 210.0264,-1546.8041"/>
<text text-anchor="middle" x="163.7048" y="-1544.2" font-family="monospace" font-size="14.00" fill="#000000">/</text>
</g>
<!-- String_begin -->
<g id="node27" class="node">
<title>String_begin</title>
<ellipse fill="none" stroke="#000000" cx="277.4096" cy="-1428" rx="54" ry="54"/>
<text text-anchor="middle" x="277.4096" y="-1423.8" font-family="monospace" font-size="14.00" fill="#000000">String_begin</text>
</g>
<!-- Start&#45;&gt;String_begin -->
<g id="edge7" class="edge">
<title>Start-&gt;String_begin</title>
<path fill="none" stroke="#000000" d="M104.9746,-1490.5185C138.1706,-1478.4829 181.6471,-1462.7199 216.6388,-1450.0332"/>
<polygon fill="#000000" stroke="#000000" points="218.0595,-1453.2412 226.2677,-1446.5422 215.6735,-1446.6603 218.0595,-1453.2412"/>
<text text-anchor="middle" x="163.7048" y="-1486.2" font-family="monospace" font-size="14.00" fill="#000000">"</text>
</g>
<!-- Int_in -->
<g id="node31" class="node">
<title>Int_in</title>
<ellipse fill="none" stroke="#000000" cx="277.4096" cy="-1264" rx="54" ry="54"/>
<ellipse fill="none" stroke="#000000" cx="277.4096" cy="-1264" rx="58" ry="58"/>
<text text-anchor="middle" x="277.4096" y="-1259.8" font-family="monospace" font-size="14.00" fill="#000000">Int_in</text>
</g>
<!-- Start&#45;&gt;Int_in -->
<g id="edge14" class="edge">
<title>Start-&gt;Int_in</title>
<path fill="none" stroke="#000000" d="M90.3918,-1469.0912C128.8084,-1426.9621 189.4701,-1360.438 231.2311,-1314.6412"/>
<polygon fill="#000000" stroke="#000000" points="233.871,-1316.9406 238.0228,-1307.1932 228.6986,-1312.224 233.871,-1316.9406"/>
<text text-anchor="middle" x="163.7048" y="-1433.2" font-family="monospace" font-size="14.00" fill="#000000">0-9</text>
</g>
<!-- L_r_par -->
<g id="node37" class="node">
<title>L_r_par</title>
<ellipse fill="none" stroke="#000000" cx="277.4096" cy="-1130" rx="54" ry="54"/>
<ellipse fill="none" stroke="#000000" cx="277.4096" cy="-1130" rx="58" ry="58"/>
<text text-anchor="middle" x="277.4096" y="-1125.8" font-family="monospace" font-size="14.00" fill="#000000">L_r_par</text>
</g>
<!-- Start&#45;&gt;L_r_par -->
<g id="edge49" class="edge">
<title>Start-&gt;L_r_par</title>
<path fill="none" stroke="#000000" d="M70.9624,-1457.5728C83.9495,-1420.8096 103.433,-1370.7048 126,-1329.2 160.3653,-1265.9958 175.055,-1253.6428 219.4096,-1197 223.4882,-1191.7914 227.8331,-1186.4422 232.2397,-1181.1467"/>
<polygon fill="#000000" stroke="#000000" points="234.9562,-1183.3544 238.7161,-1173.4491 229.5999,-1178.8477 234.9562,-1183.3544"/>
<text text-anchor="middle" x="163.7048" y="-1333.2" font-family="monospace" font-size="14.00" fill="#000000">(</text>
</g>
<!-- R_r_par -->
<g id="node38" class="node">
<title>R_r_par</title>
<ellipse fill="none" stroke="#000000" cx="277.4096" cy="-996" rx="54" ry="54"/>
<ellipse fill="none" stroke="#000000" cx="277.4096" cy="-996" rx="58" ry="58"/>
<text text-anchor="middle" x="277.4096" y="-991.8" font-family="monospace" font-size="14.00" fill="#000000">R_r_par</text>
</g>
<!-- Start&#45;&gt;R_r_par -->
<g id="edge50" class="edge">
<title>Start-&gt;R_r_par</title>
<path fill="none" stroke="#000000" d="M60.4243,-1455.2049C69.3342,-1392.0488 88.7364,-1285.1436 126,-1200.2 151.5143,-1142.0393 196.1883,-1084.7407 230.419,-1045.7135"/>
<polygon fill="#000000" stroke="#000000" points="233.1031,-1047.9618 237.1171,-1038.1568 227.8647,-1043.3186 233.1031,-1047.9618"/>
<text text-anchor="middle" x="163.7048" y="-1204.2" font-family="monospace" font-size="14.00" fill="#000000">)</text>
</g>
<!-- L_c_par -->
<g id="node39" class="node">
<title>L_c_par</title>
<ellipse fill="none" stroke="#000000" cx="277.4096" cy="-862" rx="54" ry="54"/>
<ellipse fill="none" stroke="#000000" cx="277.4096" cy="-862" rx="58" ry="58"/>
<text text-anchor="middle" x="277.4096" y="-857.8" font-family="monospace" font-size="14.00" fill="#000000">L_c_par</text>
</g>
<!-- Start&#45;&gt;L_c_par -->
<g id="edge51" class="edge">
<title>Start-&gt;L_c_par</title>
<path fill="none" stroke="#000000" d="M59.6222,-1455.1019C70.8332,-1352.425 97.3667,-1132.7238 126,-1062.2 149.591,-1004.0954 194.504,-948.0538 229.3127,-910.1166"/>
<polygon fill="#000000" stroke="#000000" points="231.8901,-912.4846 236.1304,-902.7753 226.7608,-907.7212 231.8901,-912.4846"/>
<text text-anchor="middle" x="163.7048" y="-1066.2" font-family="monospace" font-size="14.00" fill="#000000">{</text>
</g>
<!-- R_c_par -->
<g id="node40" class="node">
<title>R_c_par</title>
<ellipse fill="none" stroke="#000000" cx="277.4096" cy="-728" rx="54" ry="54"/>
<ellipse fill="none" stroke="#000000" cx="277.4096" cy="-728" rx="58" ry="58"/>
<text text-anchor="middle" x="277.4096" y="-723.8" font-family="monospace" font-size="14.00" fill="#000000">R_c_par</text>
</g>
<!-- Start&#45;&gt;R_c_par -->
<g id="edge52" class="edge">
<title>Start-&gt;R_c_par</title>
<path fill="none" stroke="#000000" d="M57.2786,-1454.956C65.4298,-1329.5504 88.6866,-1022.1707 126,-926.2 148.4134,-868.5524 192.953,-813.5305 227.9494,-776.1516"/>
<polygon fill="#000000" stroke="#000000" points="230.9152,-778.1111 235.261,-768.4485 225.8381,-773.292 230.9152,-778.1111"/>
<text text-anchor="middle" x="163.7048" y="-930.2" font-family="monospace" font-size="14.00" fill="#000000">}</text>
</g>
<!-- Whitespace -->
<g id="node41" class="node">
<title>Whitespace</title>
<ellipse fill="none" stroke="#000000" cx="277.4096" cy="-594" rx="54" ry="54"/>
<ellipse fill="none" stroke="#000000" cx="277.4096" cy="-594" rx="58" ry="58"/>
<text text-anchor="middle" x="277.4096" y="-589.8" font-family="monospace" font-size="14.00" fill="#000000">Whitespace</text>
</g>
<!-- Start&#45;&gt;Whitespace -->
<g id="edge53" class="edge">
<title>Start-&gt;Whitespace</title>
<path fill="none" stroke="#000000" d="M55.6189,-1454.8441C60.5893,-1308.4196 78.2934,-907.4752 126,-785.2 147.8396,-729.2236 191.9909,-676.5546 227.0074,-640.7263"/>
<polygon fill="#000000" stroke="#000000" points="229.7741,-642.9069 234.3296,-633.3414 224.8033,-637.9783 229.7741,-642.9069"/>
<text text-anchor="middle" x="163.7048" y="-789.2" font-family="monospace" font-size="14.00" fill="#000000">(space)</text>
</g>
<!-- Comma -->
<g id="node42" class="node">
<title>Comma</title>
<ellipse fill="none" stroke="#000000" cx="277.4096" cy="-460" rx="54" ry="54"/>
<ellipse fill="none" stroke="#000000" cx="277.4096" cy="-460" rx="58" ry="58"/>
<text text-anchor="middle" x="277.4096" y="-455.8" font-family="monospace" font-size="14.00" fill="#000000">Comma</text>
</g>
<!-- Start&#45;&gt;Comma -->
<g id="edge54" class="edge">
<title>Start-&gt;Comma</title>
<path fill="none" stroke="#000000" d="M54.5508,-1454.8805C56.8474,-1290.0558 68.4769,-796.4921 126,-648.2 147.4503,-592.902 191.4165,-541.2593 226.4708,-506.1127"/>
<polygon fill="#000000" stroke="#000000" points="229.1502,-508.3856 233.8044,-498.8678 224.2307,-503.4058 229.1502,-508.3856"/>
<text text-anchor="middle" x="163.7048" y="-652.2" font-family="monospace" font-size="14.00" fill="#000000">,</text>
</g>
<!-- Colon -->
<g id="node43" class="node">
<title>Colon</title>
<ellipse fill="none" stroke="#000000" cx="277.4096" cy="-326" rx="54" ry="54"/>
<ellipse fill="none" stroke="#000000" cx="277.4096" cy="-326" rx="58" ry="58"/>
<text text-anchor="middle" x="277.4096" y="-321.8" font-family="monospace" font-size="14.00" fill="#000000">Colon</text>
</g>
<!-- Start&#45;&gt;Colon -->
<g id="edge55" class="edge">
<title>Start-&gt;Colon</title>
<path fill="none" stroke="#000000" d="M56.0777,-1454.8508C63.8064,-1259.983 92.1951,-601.2949 126,-513.2 147.1809,-458.003 191.1754,-406.6549 226.309,-371.7518"/>
<polygon fill="#000000" stroke="#000000" points="228.9609,-374.0537 233.6602,-364.558 224.065,-369.0506 228.9609,-374.0537"/>
<text text-anchor="middle" x="163.7048" y="-517.2" font-family="monospace" font-size="14.00" fill="#000000">:</text>
</g>
<!-- Semicolon -->
<g id="node44" class="node">
<title>Semicolon</title>
<ellipse fill="none" stroke="#000000" cx="277.4096" cy="-192" rx="54" ry="54"/>
<ellipse fill="none" stroke="#000000" cx="277.4096" cy="-192" rx="58" ry="58"/>
<text text-anchor="middle" x="277.4096" y="-187.8" font-family="monospace" font-size="14.00" fill="#000000">Semicolon</text>
</g>
<!-- Start&#45;&gt;Semicolon -->
<g id="edge56" class="edge">
<title>Start-&gt;Semicolon</title>
<path fill="none" stroke="#000000" d="M55.5633,-1454.9233C61.931,-1243.4927 87.4238,-479.4152 126,-378.2 146.9876,-323.1333 191.0024,-272.0768 226.1928,-237.4085"/>
<polygon fill="#000000" stroke="#000000" points="228.8168,-239.7394 233.5567,-230.2639 223.9424,-234.7154 228.8168,-239.7394"/>
<text text-anchor="middle" x="163.7048" y="-382.2" font-family="monospace" font-size="14.00" fill="#000000">;</text>
</g>
<!-- Type_prefix -->
<g id="node45" class="node">
<title>Type_prefix</title>
<ellipse fill="none" stroke="#000000" cx="277.4096" cy="-58" rx="54" ry="54"/>
<ellipse fill="none" stroke="#000000" cx="277.4096" cy="-58" rx="58" ry="58"/>
<text text-anchor="middle" x="277.4096" y="-53.8" font-family="monospace" font-size="14.00" fill="#000000">Type_prefix</text>
</g>
<!-- Start&#45;&gt;Type_prefix -->
<g id="edge5" class="edge">
<title>Start-&gt;Type_prefix</title>
<path fill="none" stroke="#000000" d="M55.175,-1454.8087C60.3588,-1227.6383 82.8623,-358.5365 126,-244.2 146.8025,-189.063 190.8367,-138.0139 226.0816,-103.3663"/>
<polygon fill="#000000" stroke="#000000" points="228.7068,-105.6963 233.4576,-96.2263 223.8381,-100.6668 228.7068,-105.6963"/>
<text text-anchor="middle" x="163.7048" y="-248.2" font-family="monospace" font-size="14.00" fill="#000000">?</text>
</g>
<!-- Identifier&#45;&gt;Identifier -->
<g id="edge2" class="edge">
<title>Identifier-&gt;Identifier</title>
<path fill="none" stroke="#000000" d="M256.8723,-2936.3104C258.642,-2948.8147 265.4877,-2958 277.4096,-2958 285.9784,-2958 291.925,-2953.2548 295.2492,-2945.9428"/>
<polygon fill="#000000" stroke="#000000" points="298.6202,-2946.8838 297.9469,-2936.3104 291.8796,-2944.9959 298.6202,-2946.8838"/>
<text text-anchor="middle" x="277.4096" y="-2962.2" font-family="monospace" font-size="14.00" fill="#000000">  _, 0-9, a-z, A-Z  </text>
</g>
<!-- Var_id -->
<g id="node4" class="node">
<title>Var_id</title>
<ellipse fill="none" stroke="#000000" cx="530.4798" cy="-2752" rx="54" ry="54"/>
<ellipse fill="none" stroke="#000000" cx="530.4798" cy="-2752" rx="58" ry="58"/>
<text text-anchor="middle" x="530.4798" y="-2747.8" font-family="monospace" font-size="14.00" fill="#000000">Var_id</text>
</g>
<!-- Var_id_prefix&#45;&gt;Var_id -->
<g id="edge4" class="edge">
<title>Var_id_prefix-&gt;Var_id</title>
<path fill="none" stroke="#000000" d="M331.6995,-2752C369.8578,-2752 421.198,-2752 462.1434,-2752"/>
<polygon fill="#000000" stroke="#000000" points="462.315,-2755.5001 472.3149,-2752 462.3149,-2748.5001 462.315,-2755.5001"/>
<text text-anchor="middle" x="403.9447" y="-2756.2" font-family="monospace" font-size="14.00" fill="#000000">  _, 0-9, a-z, A-Z  </text>
</g>
<!-- End_closing -->
<g id="node5" class="node">
<title>End_closing</title>
<ellipse fill="none" stroke="#000000" cx="530.4798" cy="-58" rx="54" ry="54"/>
<ellipse fill="none" stroke="#000000" cx="530.4798" cy="-58" rx="58" ry="58"/>
<text text-anchor="middle" x="530.4798" y="-53.8" font-family="monospace" font-size="14.00" fill="#000000">End_closing</text>
</g>
<!-- Start_opening -->
<g id="node6" class="node">
<title>Start_opening</title>
<ellipse fill="none" stroke="#000000" cx="530.4798" cy="-2228" rx="54" ry="54"/>
<ellipse fill="none" stroke="#000000" cx="530.4798" cy="-2228" rx="58" ry="58"/>
<text text-anchor="middle" x="530.4798" y="-2223.8" font-family="monospace" font-size="14.00" fill="#000000">Start_opening</text>
</g>
<!-- Eq_in -->
<g id="node8" class="node">
<title>Eq_in</title>
<ellipse fill="none" stroke="#000000" cx="530.4798" cy="-2622" rx="54" ry="54"/>
<text text-anchor="middle" x="530.4798" y="-2617.8" font-family="monospace" font-size="14.00" fill="#000000">Eq_in</text>
</g>
<!-- Assign&#45;&gt;Eq_in -->
<g id="edge25" class="edge">
<title>Assign-&gt;Eq_in</title>
<path fill="none" stroke="#000000" d="M335.469,-2622C374.3992,-2622 425.7043,-2622 465.9191,-2622"/>
<polygon fill="#000000" stroke="#000000" points="466.1535,-2625.5001 476.1535,-2622 466.1534,-2618.5001 466.1535,-2625.5001"/>
<text text-anchor="middle" x="403.9447" y="-2626.2" font-family="monospace" font-size="14.00" fill="#000000">=</text>
</g>
<!-- Eq_end -->
<g id="node9" class="node">
<title>Eq_end</title>
<ellipse fill="none" stroke="#000000" cx="747.9697" cy="-2624" rx="54" ry="54"/>
<ellipse fill="none" stroke="#000000" cx="747.9697" cy="-2624" rx="58" ry="58"/>
<text text-anchor="middle" x="747.9697" y="-2619.8" font-family="monospace" font-size="14.00" fill="#000000">Eq_end</text>
</g>
<!-- Eq_in&#45;&gt;Eq_end -->
<g id="edge26" class="edge">
<title>Eq_in-&gt;Eq_end</title>
<path fill="none" stroke="#000000" d="M584.5208,-2622.497C613.23,-2622.761 648.8175,-2623.0882 679.4486,-2623.3699"/>
<polygon fill="#000000" stroke="#000000" points="679.5976,-2626.8713 689.6294,-2623.4635 679.6621,-2619.8716 679.5976,-2626.8713"/>
<text text-anchor="middle" x="635.7475" y="-2627.2" font-family="monospace" font-size="14.00" fill="#000000">=</text>
</g>
<!-- Noteq_in -->
<g id="node11" class="node">
<title>Noteq_in</title>
<ellipse fill="none" stroke="#000000" cx="530.4798" cy="-2492" rx="54" ry="54"/>
<text text-anchor="middle" x="530.4798" y="-2487.8" font-family="monospace" font-size="14.00" fill="#000000">Noteq_in</text>
</g>
<!-- Noteq_begin&#45;&gt;Noteq_in -->
<g id="edge28" class="edge">
<title>Noteq_begin-&gt;Noteq_in</title>
<path fill="none" stroke="#000000" d="M331.6995,-2492C371.1461,-2492 424.68,-2492 466.2544,-2492"/>
<polygon fill="#000000" stroke="#000000" points="466.2797,-2495.5001 476.2797,-2492 466.2796,-2488.5001 466.2797,-2495.5001"/>
<text text-anchor="middle" x="403.9447" y="-2496.2" font-family="monospace" font-size="14.00" fill="#000000">=</text>
</g>
<!-- Noteq_end -->
<g id="node12" class="node">
<title>Noteq_end</title>
<ellipse fill="none" stroke="#000000" cx="747.9697" cy="-2490" rx="54" ry="54"/>
<ellipse fill="none" stroke="#000000" cx="747.9697" cy="-2490" rx="58" ry="58"/>
<text text-anchor="middle" x="747.9697" y="-2485.8" font-family="monospace" font-size="14.00" fill="#000000">Noteq_end</text>
</g>
<!-- Noteq_in&#45;&gt;Noteq_end -->
<g id="edge29" class="edge">
<title>Noteq_in-&gt;Noteq_end</title>
<path fill="none" stroke="#000000" d="M584.5208,-2491.503C613.23,-2491.239 648.8175,-2490.9118 679.4486,-2490.6301"/>
<polygon fill="#000000" stroke="#000000" points="679.6621,-2494.1284 689.6294,-2490.5365 679.5976,-2487.1287 679.6621,-2494.1284"/>
<text text-anchor="middle" x="635.7475" y="-2495.2" font-family="monospace" font-size="14.00" fill="#000000">=</text>
</g>
<!-- Smaller&#45;&gt;Start_opening -->
<g id="edge35" class="edge">
<title>Smaller-&gt;Start_opening</title>
<path fill="none" stroke="#000000" d="M335.469,-2228C373.191,-2228 422.5317,-2228 462.1436,-2228"/>
<polygon fill="#000000" stroke="#000000" points="462.2529,-2231.5001 472.2529,-2228 462.2528,-2224.5001 462.2529,-2231.5001"/>
<text text-anchor="middle" x="403.9447" y="-2232.2" font-family="monospace" font-size="14.00" fill="#000000">?</text>
</g>
<!-- Smaller_eq -->
<g id="node16" class="node">
<title>Smaller_eq</title>
<ellipse fill="none" stroke="#000000" cx="530.4798" cy="-2362" rx="54" ry="54"/>
<ellipse fill="none" stroke="#000000" cx="530.4798" cy="-2362" rx="58" ry="58"/>
<text text-anchor="middle" x="530.4798" y="-2357.8" font-family="monospace" font-size="14.00" fill="#000000">Smaller_eq</text>
</g>
<!-- Smaller&#45;&gt;Smaller_eq -->
<g id="edge33" class="edge">
<title>Smaller-&gt;Smaller_eq</title>
<path fill="none" stroke="#000000" d="M328.9272,-2255.2784C369.8087,-2276.9251 427.041,-2307.2294 470.0774,-2330.0171"/>
<polygon fill="#000000" stroke="#000000" points="468.559,-2333.1734 479.0344,-2334.7598 471.8346,-2326.9871 468.559,-2333.1734"/>
<text text-anchor="middle" x="403.9447" y="-2322.2" font-family="monospace" font-size="14.00" fill="#000000">=</text>
</g>
<!-- Larger_eq -->
<g id="node17" class="node">
<title>Larger_eq</title>
<ellipse fill="none" stroke="#000000" cx="530.4798" cy="-2094" rx="54" ry="54"/>
<ellipse fill="none" stroke="#000000" cx="530.4798" cy="-2094" rx="58" ry="58"/>
<text text-anchor="middle" x="530.4798" y="-2089.8" font-family="monospace" font-size="14.00" fill="#000000">Larger_eq</text>
</g>
<!-- Larger&#45;&gt;Larger_eq -->
<g id="edge34" class="edge">
<title>Larger-&gt;Larger_eq</title>
<path fill="none" stroke="#000000" d="M335.469,-2094C373.191,-2094 422.5317,-2094 462.1436,-2094"/>
<polygon fill="#000000" stroke="#000000" points="462.2529,-2097.5001 472.2529,-2094 462.2528,-2090.5001 462.2529,-2097.5001"/>
<text text-anchor="middle" x="403.9447" y="-2098.2" font-family="monospace" font-size="14.00" fill="#000000">=</text>
</g>
<!-- Comment_l_in -->
<g id="node22" class="node">
<title>Comment_l_in</title>
<ellipse fill="none" stroke="#000000" cx="530.4798" cy="-1562" rx="54" ry="54"/>
<text text-anchor="middle" x="530.4798" y="-1557.8" font-family="monospace" font-size="14.00" fill="#000000">Comment_l_in</text>
</g>
<!-- Div&#45;&gt;Comment_l_in -->
<g id="edge41" class="edge">
<title>Div-&gt;Comment_l_in</title>
<path fill="none" stroke="#000000" d="M335.469,-1558.9177C374.3992,-1559.533 425.7043,-1560.3439 465.9191,-1560.9796"/>
<polygon fill="#000000" stroke="#000000" points="466.0994,-1564.4828 476.1535,-1561.1413 466.2101,-1557.4836 466.0994,-1564.4828"/>
<text text-anchor="middle" x="403.9447" y="-1564.2" font-family="monospace" font-size="14.00" fill="#000000">/</text>
</g>
<!-- Comment_b_in -->
<g id="node24" class="node">
<title>Comment_b_in</title>
<ellipse fill="none" stroke="#000000" cx="530.4798" cy="-1722" rx="54" ry="54"/>
<text text-anchor="middle" x="530.4798" y="-1717.8" font-family="monospace" font-size="14.00" fill="#000000">Comment_b_in</text>
</g>
<!-- Div&#45;&gt;Comment_b_in -->
<g id="edge44" class="edge">
<title>Div-&gt;Comment_b_in</title>
<path fill="none" stroke="#000000" d="M326.2041,-1589.6208C369.1588,-1617.4573 431.6282,-1657.94 476.1595,-1686.7982"/>
<polygon fill="#000000" stroke="#000000" points="474.5202,-1689.9065 484.8156,-1692.4077 478.327,-1684.0321 474.5202,-1689.9065"/>
<text text-anchor="middle" x="403.9447" y="-1672.2" font-family="monospace" font-size="14.00" fill="#000000">*</text>
</g>
<!-- Comment_l_in&#45;&gt;Comment_l_in -->
<g id="edge42" class="edge">
<title>Comment_l_in-&gt;Comment_l_in</title>
<path fill="none" stroke="#000000" d="M511.3238,-1612.7967C512.821,-1624.9758 519.2064,-1634 530.4798,-1634 538.4064,-1634 543.9165,-1629.5386 547.0099,-1622.656"/>
<polygon fill="#000000" stroke="#000000" points="550.4442,-1623.3607 549.6358,-1612.7967 543.68,-1621.559 550.4442,-1623.3607"/>
<text text-anchor="middle" x="530.4798" y="-1638.2" font-family="monospace" font-size="14.00" fill="#000000">ASCII-{\n, EOF}</text>
</g>
<!-- Comment_l_end -->
<g id="node23" class="node">
<title>Comment_l_end</title>
<ellipse fill="none" stroke="#000000" cx="747.9697" cy="-1609" rx="56.3193" ry="56.3193"/>
<ellipse fill="none" stroke="#000000" cx="747.9697" cy="-1609" rx="60.3303" ry="60.3303"/>
<text text-anchor="middle" x="747.9697" y="-1604.8" font-family="monospace" font-size="14.00" fill="#000000">Comment_l_end</text>
</g>
<!-- Comment_l_in&#45;&gt;Comment_l_end -->
<g id="edge43" class="edge">
<title>Comment_l_in-&gt;Comment_l_end</title>
<path fill="none" stroke="#000000" d="M583.4057,-1573.4374C612.2241,-1579.6651 648.2182,-1587.4435 679.1888,-1594.1363"/>
<polygon fill="#000000" stroke="#000000" points="678.5385,-1597.5765 689.0522,-1596.2678 680.0171,-1590.7344 678.5385,-1597.5765"/>
<text text-anchor="middle" x="635.7475" y="-1593.2" font-family="monospace" font-size="14.00" fill="#000000">\n, EOF</text>
</g>
<!-- Comment_b_in&#45;&gt;Comment_b_in -->
<g id="edge45" class="edge">
<title>Comment_b_in-&gt;Comment_b_in</title>
<path fill="none" stroke="#000000" d="M511.3238,-1772.7967C512.821,-1784.9758 519.2064,-1794 530.4798,-1794 538.4064,-1794 543.9165,-1789.5386 547.0099,-1782.656"/>
<polygon fill="#000000" stroke="#000000" points="550.4442,-1783.3607 549.6358,-1772.7967 543.68,-1781.559 550.4442,-1783.3607"/>
<text text-anchor="middle" x="530.4798" y="-1798.2" font-family="monospace" font-size="14.00" fill="#000000">ASCII-{*}</text>
</g>
<!-- Comment_b_end_1 -->
<g id="node25" class="node">
<title>Comment_b_end_1</title>
<ellipse fill="none" stroke="#000000" cx="747.9697" cy="-1757" rx="64.909" ry="64.909"/>
<text text-anchor="middle" x="747.9697" y="-1752.8" font-family="monospace" font-size="14.00" fill="#000000">Comment_b_end_1</text>
</g>
<!-- Comment_b_in&#45;&gt;Comment_b_end_1 -->
<g id="edge46" class="edge">
<title>Comment_b_in-&gt;Comment_b_end_1</title>
<path fill="none" stroke="#000000" d="M584.3447,-1716.5781C609.1484,-1715.379 638.8241,-1715.7896 665.0152,-1721.2 669.9765,-1722.2249 675.0062,-1723.5609 680.0082,-1725.1134"/>
<polygon fill="#000000" stroke="#000000" points="678.9737,-1728.4582 689.5679,-1728.3406 681.2128,-1721.8259 678.9737,-1728.4582"/>
<text text-anchor="middle" x="635.7475" y="-1725.2" font-family="monospace" font-size="14.00" fill="#000000">*</text>
</g>
<!-- Comment_b_end_1&#45;&gt;Comment_b_in -->
<g id="edge47" class="edge">
<title>Comment_b_end_1-&gt;Comment_b_in</title>
<path fill="none" stroke="#000000" d="M683.3675,-1749.3477C659.1861,-1746.2149 631.5158,-1742.3103 606.4798,-1738 602.294,-1737.2794 597.9877,-1736.4938 593.6538,-1735.6703"/>
<polygon fill="#000000" stroke="#000000" points="594.0209,-1732.1759 583.5351,-1733.6923 592.6779,-1739.0458 594.0209,-1732.1759"/>
<text text-anchor="middle" x="635.7475" y="-1750.2" font-family="monospace" font-size="14.00" fill="#000000">ASCII-{/}</text>
</g>
<!-- Comment_b_end_2 -->
<g id="node26" class="node">
<title>Comment_b_end_2</title>
<ellipse fill="none" stroke="#000000" cx="939.6459" cy="-1757" rx="64.9117" ry="64.9117"/>
<ellipse fill="none" stroke="#000000" cx="939.6459" cy="-1757" rx="68.909" ry="68.909"/>
<text text-anchor="middle" x="939.6459" y="-1752.8" font-family="monospace" font-size="14.00" fill="#000000">Comment_b_end_2</text>
</g>
<!-- Comment_b_end_1&#45;&gt;Comment_b_end_2 -->
<g id="edge48" class="edge">
<title>Comment_b_end_1-&gt;Comment_b_end_2</title>
<path fill="none" stroke="#000000" d="M813.13,-1757C828.2648,-1757 844.5407,-1757 860.2133,-1757"/>
<polygon fill="#000000" stroke="#000000" points="860.4073,-1760.5001 870.4073,-1757 860.4072,-1753.5001 860.4073,-1760.5001"/>
<text text-anchor="middle" x="841.8078" y="-1761.2" font-family="monospace" font-size="14.00" fill="#000000">/</text>
</g>
<!-- String_in -->
<g id="node28" class="node">
<title>String_in</title>
<ellipse fill="none" stroke="#000000" cx="530.4798" cy="-1349" rx="54" ry="54"/>
<text text-anchor="middle" x="530.4798" y="-1344.8" font-family="monospace" font-size="14.00" fill="#000000">String_in</text>
</g>
<!-- String_begin&#45;&gt;String_in -->
<g id="edge8" class="edge">
<title>String_begin-&gt;String_in</title>
<path fill="none" stroke="#000000" d="M329.2328,-1411.8225C369.7483,-1399.175 426.1852,-1381.5573 468.9862,-1368.1962"/>
<polygon fill="#000000" stroke="#000000" points="470.2232,-1371.4767 478.7259,-1365.1558 468.1372,-1364.7947 470.2232,-1371.4767"/>
<text text-anchor="middle" x="403.9447" y="-1406.2" font-family="monospace" font-size="14.00" fill="#000000">ASCII&gt;31-{"}</text>
</g>
<!-- String_end -->
<g id="node29" class="node">
<title>String_end</title>
<ellipse fill="none" stroke="#000000" cx="747.9697" cy="-1473" rx="54" ry="54"/>
<ellipse fill="none" stroke="#000000" cx="747.9697" cy="-1473" rx="58" ry="58"/>
<text text-anchor="middle" x="747.9697" y="-1468.8" font-family="monospace" font-size="14.00" fill="#000000">String_end</text>
</g>
<!-- String_begin&#45;&gt;String_end -->
<g id="edge13" class="edge">
<title>String_begin-&gt;String_end</title>
<path fill="none" stroke="#000000" d="M331.3888,-1433.1621C417.5696,-1441.4036 586.0954,-1457.5198 680.2385,-1466.5228"/>
<polygon fill="#000000" stroke="#000000" points="679.9378,-1470.0099 690.2256,-1467.4779 680.6043,-1463.0417 679.9378,-1470.0099"/>
<text text-anchor="middle" x="530.4798" y="-1461.2" font-family="monospace" font-size="14.00" fill="#000000">"</text>
</g>
<!-- String_in&#45;&gt;String_in -->
<g id="edge11" class="edge">
<title>String_in-&gt;String_in</title>
<path fill="none" stroke="#000000" d="M511.3238,-1399.7967C512.821,-1411.9758 519.2064,-1421 530.4798,-1421 538.4064,-1421 543.9165,-1416.5386 547.0099,-1409.656"/>
<polygon fill="#000000" stroke="#000000" points="550.4442,-1410.3607 549.6358,-1399.7967 543.68,-1408.559 550.4442,-1410.3607"/>
<text text-anchor="middle" x="530.4798" y="-1425.2" font-family="monospace" font-size="14.00" fill="#000000">ASCII&gt;31-{"}</text>
</g>
<!-- String_in&#45;&gt;String_end -->
<g id="edge9" class="edge">
<title>String_in-&gt;String_end</title>
<path fill="none" stroke="#000000" d="M577.4041,-1375.7535C609.9829,-1394.328 653.6467,-1419.2225 688.6399,-1439.1736"/>
<polygon fill="#000000" stroke="#000000" points="686.9168,-1442.2201 697.3376,-1444.1325 690.3839,-1436.139 686.9168,-1442.2201"/>
<text text-anchor="middle" x="635.7475" y="-1426.2" font-family="monospace" font-size="14.00" fill="#000000">"</text>
</g>
<!-- String_esc -->
<g id="node30" class="node">
<title>String_esc</title>
<ellipse fill="none" stroke="#000000" cx="747.9697" cy="-1343" rx="54" ry="54"/>
<text text-anchor="middle" x="747.9697" y="-1338.8" font-family="monospace" font-size="14.00" fill="#000000">String_esc</text>
</g>
<!-- String_in&#45;&gt;String_esc -->
<g id="edge10" class="edge">
<title>String_in-&gt;String_esc</title>
<path fill="none" stroke="#000000" d="M580.9934,-1329.3067C589.3888,-1326.7743 598.0936,-1324.5846 606.4798,-1323.2 632.3979,-1318.9207 661.0873,-1321.5709 685.8191,-1326.1495"/>
<polygon fill="#000000" stroke="#000000" points="685.3073,-1329.6162 695.7986,-1328.1387 686.6757,-1322.7513 685.3073,-1329.6162"/>
<text text-anchor="middle" x="635.7475" y="-1327.2" font-family="monospace" font-size="14.00" fill="#000000">\</text>
</g>
<!-- String_esc&#45;&gt;String_in -->
<g id="edge12" class="edge">
<title>String_esc-&gt;String_in</title>
<path fill="none" stroke="#000000" d="M693.8298,-1344.4936C663.7306,-1345.3239 626.094,-1346.3622 594.536,-1347.2328"/>
<polygon fill="#000000" stroke="#000000" points="594.4204,-1343.7346 584.5208,-1347.5091 594.6135,-1350.7319 594.4204,-1343.7346"/>
<text text-anchor="middle" x="635.7475" y="-1350.2" font-family="monospace" font-size="14.00" fill="#000000">ASCII&gt;31</text>
</g>
<!-- Int_in&#45;&gt;Int_in -->
<g id="edge15" class="edge">
<title>Int_in-&gt;Int_in</title>
<path fill="none" stroke="#000000" d="M256.8723,-1318.3104C258.642,-1330.8147 265.4877,-1340 277.4096,-1340 285.9784,-1340 291.925,-1335.2548 295.2492,-1327.9428"/>
<polygon fill="#000000" stroke="#000000" points="298.6202,-1328.8838 297.9469,-1318.3104 291.8796,-1326.9959 298.6202,-1328.8838"/>
<text text-anchor="middle" x="277.4096" y="-1344.2" font-family="monospace" font-size="14.00" fill="#000000">0-9</text>
</g>
<!-- Float_begin -->
<g id="node32" class="node">
<title>Float_begin</title>
<ellipse fill="none" stroke="#000000" cx="530.4798" cy="-1169" rx="54" ry="54"/>
<text text-anchor="middle" x="530.4798" y="-1164.8" font-family="monospace" font-size="14.00" fill="#000000">Float_begin</text>
</g>
<!-- Int_in&#45;&gt;Float_begin -->
<g id="edge16" class="edge">
<title>Int_in-&gt;Float_begin</title>
<path fill="none" stroke="#000000" d="M330.3157,-1239.7765C338.0184,-1236.4527 345.8867,-1233.1666 353.4096,-1230.2 391.4141,-1215.2132 434.7504,-1200.2003 469.0382,-1188.7947"/>
<polygon fill="#000000" stroke="#000000" points="470.52,-1191.991 478.9137,-1185.5259 468.3204,-1185.3455 470.52,-1191.991"/>
<text text-anchor="middle" x="403.9447" y="-1234.2" font-family="monospace" font-size="14.00" fill="#000000">.</text>
</g>
<!-- Exp_begin -->
<g id="node34" class="node">
<title>Exp_begin</title>
<ellipse fill="none" stroke="#000000" cx="939.6459" cy="-1231" rx="54" ry="54"/>
<text text-anchor="middle" x="939.6459" y="-1226.8" font-family="monospace" font-size="14.00" fill="#000000">Exp_begin</text>
</g>
<!-- Int_in&#45;&gt;Exp_begin -->
<g id="edge19" class="edge">
<title>Int_in-&gt;Exp_begin</title>
<path fill="none" stroke="#000000" d="M335.6984,-1262.4744C434.1243,-1259.7036 639.5077,-1253.083 812.9242,-1242 833.3796,-1240.6927 855.6605,-1238.8873 875.7541,-1237.1169"/>
<polygon fill="#000000" stroke="#000000" points="876.0832,-1240.6016 885.7319,-1236.2252 875.46,-1233.6294 876.0832,-1240.6016"/>
<text text-anchor="middle" x="635.7475" y="-1256.2" font-family="monospace" font-size="14.00" fill="#000000">e, E</text>
</g>
<!-- Float_in -->
<g id="node33" class="node">
<title>Float_in</title>
<ellipse fill="none" stroke="#000000" cx="747.9697" cy="-1141" rx="54" ry="54"/>
<ellipse fill="none" stroke="#000000" cx="747.9697" cy="-1141" rx="58" ry="58"/>
<text text-anchor="middle" x="747.9697" y="-1136.8" font-family="monospace" font-size="14.00" fill="#000000">Float_in</text>
</g>
<!-- Float_begin&#45;&gt;Float_in -->
<g id="edge17" class="edge">
<title>Float_begin-&gt;Float_in</title>
<path fill="none" stroke="#000000" d="M584.2414,-1162.0786C613.1733,-1158.3539 649.1517,-1153.722 680.0073,-1149.7496"/>
<polygon fill="#000000" stroke="#000000" points="680.7862,-1153.1783 690.2574,-1148.43 679.8923,-1146.2356 680.7862,-1153.1783"/>
<text text-anchor="middle" x="635.7475" y="-1163.2" font-family="monospace" font-size="14.00" fill="#000000">0-9</text>
</g>
<!-- Float_in&#45;&gt;Float_in -->
<g id="edge18" class="edge">
<title>Float_in-&gt;Float_in</title>
<path fill="none" stroke="#000000" d="M731.2767,-1196.6733C732.9718,-1208.4764 738.5361,-1217 747.9697,-1217 754.4553,-1217 759.1121,-1212.9713 761.94,-1206.6179"/>
<polygon fill="#000000" stroke="#000000" points="765.3977,-1207.2426 764.6627,-1196.6733 758.6462,-1205.3941 765.3977,-1207.2426"/>
<text text-anchor="middle" x="747.9697" y="-1221.2" font-family="monospace" font-size="14.00" fill="#000000">0-9</text>
</g>
<!-- Float_in&#45;&gt;Exp_begin -->
<g id="edge24" class="edge">
<title>Float_in-&gt;Exp_begin</title>
<path fill="none" stroke="#000000" d="M800.5996,-1165.7119C825.6709,-1177.484 855.7317,-1191.5988 881.4786,-1203.688"/>
<polygon fill="#000000" stroke="#000000" points="880.2125,-1206.9601 890.7519,-1208.0422 883.1877,-1200.6238 880.2125,-1206.9601"/>
<text text-anchor="middle" x="841.8078" y="-1192.2" font-family="monospace" font-size="14.00" fill="#000000">e, E</text>
</g>
<!-- Exp_sign -->
<g id="node35" class="node">
<title>Exp_sign</title>
<ellipse fill="none" stroke="#000000" cx="1118.1556" cy="-1304" rx="54" ry="54"/>
<text text-anchor="middle" x="1118.1556" y="-1299.8" font-family="monospace" font-size="14.00" fill="#000000">Exp_sign</text>
</g>
<!-- Exp_begin&#45;&gt;Exp_sign -->
<g id="edge20" class="edge">
<title>Exp_begin-&gt;Exp_sign</title>
<path fill="none" stroke="#000000" d="M989.8459,-1251.5288C1011.2309,-1260.2741 1036.3419,-1270.543 1058.6523,-1279.6666"/>
<polygon fill="#000000" stroke="#000000" points="1057.4427,-1282.9533 1068.0235,-1283.4989 1060.0923,-1276.4741 1057.4427,-1282.9533"/>
<text text-anchor="middle" x="1036.378" y="-1278.2" font-family="monospace" font-size="14.00" fill="#000000">+, -</text>
</g>
<!-- Exp_in -->
<g id="node36" class="node">
<title>Exp_in</title>
<ellipse fill="none" stroke="#000000" cx="1284.8162" cy="-1231" rx="54" ry="54"/>
<ellipse fill="none" stroke="#000000" cx="1284.8162" cy="-1231" rx="58" ry="58"/>
<text text-anchor="middle" x="1284.8162" y="-1226.8" font-family="monospace" font-size="14.00" fill="#000000">Exp_in</text>
</g>
<!-- Exp_begin&#45;&gt;Exp_in -->
<g id="edge21" class="edge">
<title>Exp_begin-&gt;Exp_in</title>
<path fill="none" stroke="#000000" d="M993.5516,-1227.4129C1015.4499,-1226.1234 1041.0004,-1224.8318 1064.1556,-1224.2 1112.1378,-1222.8907 1124.1774,-1222.7534 1172.1556,-1224.2 1186.6369,-1224.6366 1202.151,-1225.3883 1216.8933,-1226.2366"/>
<polygon fill="#000000" stroke="#000000" points="1216.7633,-1229.7349 1226.954,-1226.8366 1217.1801,-1222.7474 1216.7633,-1229.7349"/>
<text text-anchor="middle" x="1118.1556" y="-1228.2" font-family="monospace" font-size="14.00" fill="#000000">0-9</text>
</g>
<!-- Exp_sign&#45;&gt;Exp_in -->
<g id="edge22" class="edge">
<title>Exp_sign-&gt;Exp_in</title>
<path fill="none" stroke="#000000" d="M1167.7081,-1282.2952C1184.8668,-1274.7794 1204.3257,-1266.2561 1222.3846,-1258.346"/>
<polygon fill="#000000" stroke="#000000" points="1223.9255,-1261.4922 1231.6811,-1254.274 1221.117,-1255.0803 1223.9255,-1261.4922"/>
<text text-anchor="middle" x="1199.4859" y="-1275.2" font-family="monospace" font-size="14.00" fill="#000000">0-9</text>
</g>
<!-- Exp_in&#45;&gt;Exp_in -->
<g id="edge23" class="edge">
<title>Exp_in-&gt;Exp_in</title>
<path fill="none" stroke="#000000" d="M1269.6199,-1287.0096C1271.2196,-1298.638 1276.285,-1307 1284.8162,-1307 1290.6815,-1307 1294.9086,-1303.0477 1297.4975,-1296.7988"/>
<polygon fill="#000000" stroke="#000000" points="1300.914,-1297.5661 1300.0125,-1287.0096 1294.1342,-1295.8241 1300.914,-1297.5661"/>
<text text-anchor="middle" x="1284.8162" y="-1311.2" font-family="monospace" font-size="14.00" fill="#000000">0-9</text>
</g>
<!-- Type_prefix&#45;&gt;End_closing -->
<g id="edge6" class="edge">
<title>Type_prefix-&gt;End_closing</title>
<path fill="none" stroke="#000000" d="M335.469,-58C373.191,-58 422.5317,-58 462.1436,-58"/>
<polygon fill="#000000" stroke="#000000" points="462.2529,-61.5001 472.2529,-58 462.2528,-54.5001 462.2529,-61.5001"/>
<text text-anchor="middle" x="403.9447" y="-62.2" font-family="monospace" font-size="14.00" fill="#000000">&gt;</text>
</g>
</g>
</svg>