<?xml version="1.0" encoding="UTF-8" standalone="no"?><!DOCTYPE svg PUBLIC "-//W3C//DTD SVG 1.1//EN" "http://www.w3.org/Graphics/SVG/1.1/DTD/svg11.dtd"><!-- Generated by graphviz version 2.40.1 (20161225.0304)
 --><!-- Title: fsm Pages: 1 --><svg xmlns="http://www.w3.org/2000/svg" xmlns:xlink="http://www.w3.org/1999/xlink" width="1332pt" height="2857pt" viewBox="0.00 0.00 1332.00 2856.80">
<g id="graph0" class="graph" transform="scale(1 1) rotate(0) translate(4 2852.8)">
<title>fsm</title>
<polygon fill="#ffffff" stroke="transparent" points="-4,4 -4,-2852.8 1327.996,-2852.8 1327.996,4 -4,4"/>
<!-- Start -->
<g id="node1" class="node">
<title>Start</title>
<ellipse fill="none" stroke="#000000" cx="54" cy="-1424" rx="54" ry="54"/>
<text text-anchor="middle" x="54" y="-1419.8" font-family="monospace" font-size="14.00" fill="#000000">Start</text>
</g>
<!-- Identifier -->
<g id="node2" class="node">
<title>Identifier</title>
<ellipse fill="none" stroke="#000000" cx="277.4096" cy="-2756" rx="54" ry="54"/>
<ellipse fill="none" stroke="#000000" cx="277.4096" cy="-2756" rx="58" ry="58"/>
<text text-anchor="middle" x="277.4096" y="-2751.8" font-family="monospace" font-size="14.00" fill="#000000">Identifier</text>
</g>
<!-- Start&#45;&gt;Identifier -->
<g id="edge1" class="edge">
<title>Start-&gt;Identifier</title>
<path fill="none" stroke="#000000" d="M55.5258,-1478.0247C61.7966,-1691.0638 87.1038,-2466.324 126,-2569 146.9306,-2624.2516 190.9514,-2675.5329 226.1586,-2710.3653"/>
<polygon fill="#000000" stroke="#000000" points="223.9213,-2713.0721 233.5262,-2717.544 228.8064,-2708.0585 223.9213,-2713.0721"/>
<text text-anchor="middle" x="163.7048" y="-2686.2" font-family="monospace" font-size="14.00" fill="#000000">  _, a-z, A-Z  </text>
</g>
<!-- Var_prefix -->
<g id="node3" class="node">
<title>Var_prefix</title>
<ellipse fill="none" stroke="#000000" cx="277.4096" cy="-2622" rx="54" ry="54"/>
<ellipse fill="none" stroke="#000000" cx="277.4096" cy="-2622" rx="58" ry="58"/>
<text text-anchor="middle" x="277.4096" y="-2617.8" font-family="monospace" font-size="14.00" fill="#000000">Var_prefix</text>
</g>
<!-- Start&#45;&gt;Var_prefix -->
<g id="edge3" class="edge">
<title>Start-&gt;Var_prefix</title>
<path fill="none" stroke="#000000" d="M56.018,-1478.2963C63.5923,-1675.2824 91.6546,-2345.4599 126,-2435 147.1597,-2490.1643 191.1564,-2541.4547 226.2962,-2576.3128"/>
<polygon fill="#000000" stroke="#000000" points="224.0503,-2579.0118 233.6488,-2583.4972 228.9425,-2574.0051 224.0503,-2579.0118"/>
<text text-anchor="middle" x="163.7048" y="-2552.2" font-family="monospace" font-size="14.00" fill="#000000">$</text>
</g>
<!-- Type_prefix -->
<g id="node4" class="node">
<title>Type_prefix</title>
<ellipse fill="none" stroke="#000000" cx="277.4096" cy="-2488" rx="54" ry="54"/>
<ellipse fill="none" stroke="#000000" cx="277.4096" cy="-2488" rx="58" ry="58"/>
<text text-anchor="middle" x="277.4096" y="-2483.8" font-family="monospace" font-size="14.00" fill="#000000">Type_prefix</text>
</g>
<!-- Start&#45;&gt;Type_prefix -->
<g id="edge4" class="edge">
<title>Start-&gt;Type_prefix</title>
<path fill="none" stroke="#000000" d="M54.3889,-1478.0378C56.219,-1645.0233 66.648,-2150.6229 126,-2302 147.4973,-2356.8289 191.4586,-2407.8493 226.499,-2442.5329"/>
<polygon fill="#000000" stroke="#000000" points="224.2266,-2445.2056 233.8296,-2449.6815 229.1138,-2440.194 224.2266,-2445.2056"/>
<text text-anchor="middle" x="163.7048" y="-2418.2" font-family="monospace" font-size="14.00" fill="#000000">?</text>
</g>
<!-- Assign -->
<g id="node6" class="node">
<title>Assign</title>
<ellipse fill="none" stroke="#000000" cx="277.4096" cy="-2354" rx="54" ry="54"/>
<ellipse fill="none" stroke="#000000" cx="277.4096" cy="-2354" rx="58" ry="58"/>
<text text-anchor="middle" x="277.4096" y="-2349.8" font-family="monospace" font-size="14.00" fill="#000000">Assign</text>
</g>
<!-- Start&#45;&gt;Assign -->
<g id="edge37" class="edge">
<title>Start-&gt;Assign</title>
<path fill="none" stroke="#000000" d="M55.2808,-1478.181C59.4358,-1627.6897 75.3489,-2043.2726 126,-2169 147.8635,-2223.2701 191.5615,-2273.8697 226.4166,-2308.3844"/>
<polygon fill="#000000" stroke="#000000" points="224.1076,-2311.0215 233.709,-2315.5008 228.9966,-2306.0117 224.1076,-2311.0215"/>
<text text-anchor="middle" x="163.7048" y="-2285.2" font-family="monospace" font-size="14.00" fill="#000000">=</text>
</g>
<!-- Noteq_begin -->
<g id="node9" class="node">
<title>Noteq_begin</title>
<ellipse fill="none" stroke="#000000" cx="277.4096" cy="-2224" rx="54" ry="54"/>
<text text-anchor="middle" x="277.4096" y="-2219.8" font-family="monospace" font-size="14.00" fill="#000000">Noteq_begin</text>
</g>
<!-- Start&#45;&gt;Noteq_begin -->
<g id="edge26" class="edge">
<title>Start-&gt;Noteq_begin</title>
<path fill="none" stroke="#000000" d="M56.8447,-1478.1852C64.2226,-1607.9435 86.2235,-1933.193 126,-2034 148.5472,-2091.1421 194.4446,-2144.7618 229.8263,-2180.3725"/>
<polygon fill="#000000" stroke="#000000" points="227.6406,-2183.1343 237.2046,-2187.6928 232.5708,-2178.165 227.6406,-2183.1343"/>
<text text-anchor="middle" x="163.7048" y="-2152.2" font-family="monospace" font-size="14.00" fill="#000000">!</text>
</g>
<!-- Concat -->
<g id="node12" class="node">
<title>Concat</title>
<ellipse fill="none" stroke="#000000" cx="277.4096" cy="-2094" rx="54" ry="54"/>
<ellipse fill="none" stroke="#000000" cx="277.4096" cy="-2094" rx="58" ry="58"/>
<text text-anchor="middle" x="277.4096" y="-2089.8" font-family="monospace" font-size="14.00" fill="#000000">Concat</text>
</g>
<!-- Start&#45;&gt;Concat -->
<g id="edge29" class="edge">
<title>Start-&gt;Concat</title>
<path fill="none" stroke="#000000" d="M59.193,-1478.0838C69.9404,-1584.7427 96.1292,-1818.3322 126,-1893 149.352,-1951.3729 194.2947,-2007.6339 229.1753,-2045.7119"/>
<polygon fill="#000000" stroke="#000000" points="226.6419,-2048.1274 236.0078,-2053.0803 231.7748,-2043.3678 226.6419,-2048.1274"/>
<text text-anchor="middle" x="163.7048" y="-2017.2" font-family="monospace" font-size="14.00" fill="#000000">.</text>
</g>
<!-- Smaller -->
<g id="node13" class="node">
<title>Smaller</title>
<ellipse fill="none" stroke="#000000" cx="277.4096" cy="-1960" rx="54" ry="54"/>
<ellipse fill="none" stroke="#000000" cx="277.4096" cy="-1960" rx="58" ry="58"/>
<text text-anchor="middle" x="277.4096" y="-1955.8" font-family="monospace" font-size="14.00" fill="#000000">Smaller</text>
</g>
<!-- Start&#45;&gt;Smaller -->
<g id="edge30" class="edge">
<title>Start-&gt;Smaller</title>
<path fill="none" stroke="#000000" d="M59.2632,-1477.9688C67.2612,-1545.3117 85.9952,-1662.9382 126,-1756 151.0665,-1814.3114 195.7961,-1871.5281 230.1614,-1910.4547"/>
<polygon fill="#000000" stroke="#000000" points="227.6175,-1912.8607 236.8874,-1917.991 232.8401,-1908.1997 227.6175,-1912.8607"/>
<text text-anchor="middle" x="163.7048" y="-1876.2" font-family="monospace" font-size="14.00" fill="#000000">&lt;</text>
</g>
<!-- Larger -->
<g id="node14" class="node">
<title>Larger</title>
<ellipse fill="none" stroke="#000000" cx="277.4096" cy="-1826" rx="54" ry="54"/>
<ellipse fill="none" stroke="#000000" cx="277.4096" cy="-1826" rx="58" ry="58"/>
<text text-anchor="middle" x="277.4096" y="-1821.8" font-family="monospace" font-size="14.00" fill="#000000">Larger</text>
</g>
<!-- Start&#45;&gt;Larger -->
<g id="edge31" class="edge">
<title>Start-&gt;Larger</title>
<path fill="none" stroke="#000000" d="M67.2523,-1476.4991C79.3303,-1519.9075 99.3486,-1582.4082 126,-1633 158.4904,-1694.6758 175.8081,-1704.6085 219.4096,-1759 223.5474,-1764.1618 227.9315,-1769.4798 232.3625,-1774.756"/>
<polygon fill="#000000" stroke="#000000" points="229.7309,-1777.0643 238.8647,-1782.4332 235.0725,-1772.5402 229.7309,-1777.0643"/>
<text text-anchor="middle" x="163.7048" y="-1739.2" font-family="monospace" font-size="14.00" fill="#000000">&gt;</text>
</g>
<!-- Plus -->
<g id="node17" class="node">
<title>Plus</title>
<ellipse fill="none" stroke="#000000" cx="277.4096" cy="-1692" rx="54" ry="54"/>
<ellipse fill="none" stroke="#000000" cx="277.4096" cy="-1692" rx="58" ry="58"/>
<text text-anchor="middle" x="277.4096" y="-1687.8" font-family="monospace" font-size="14.00" fill="#000000">Plus</text>
</g>
<!-- Start&#45;&gt;Plus -->
<g id="edge34" class="edge">
<title>Start-&gt;Plus</title>
<path fill="none" stroke="#000000" d="M82.5538,-1469.9259C95.1841,-1489.2858 110.6378,-1511.7486 126,-1531 157.9051,-1570.9824 197.6405,-1612.9834 228.3989,-1644.058"/>
<polygon fill="#000000" stroke="#000000" points="226.0816,-1646.6914 235.6147,-1651.3143 231.0452,-1641.7555 226.0816,-1646.6914"/>
<text text-anchor="middle" x="163.7048" y="-1616.2" font-family="monospace" font-size="14.00" fill="#000000">+</text>
</g>
<!-- Minus -->
<g id="node18" class="node">
<title>Minus</title>
<ellipse fill="none" stroke="#000000" cx="277.4096" cy="-1558" rx="54" ry="54"/>
<ellipse fill="none" stroke="#000000" cx="277.4096" cy="-1558" rx="58" ry="58"/>
<text text-anchor="middle" x="277.4096" y="-1553.8" font-family="monospace" font-size="14.00" fill="#000000">Minus</text>
</g>
<!-- Start&#45;&gt;Minus -->
<g id="edge35" class="edge">
<title>Start-&gt;Minus</title>
<path fill="none" stroke="#000000" d="M100.562,-1451.9277C134.895,-1472.5204 181.8481,-1500.6827 218.7459,-1522.8138"/>
<polygon fill="#000000" stroke="#000000" points="217.0385,-1525.871 227.4145,-1528.0132 220.6391,-1519.868 217.0385,-1525.871"/>
<text text-anchor="middle" x="163.7048" y="-1514.2" font-family="monospace" font-size="14.00" fill="#000000">-</text>
</g>
<!-- Mul -->
<g id="node19" class="node">
<title>Mul</title>
<ellipse fill="none" stroke="#000000" cx="277.4096" cy="-1424" rx="54" ry="54"/>
<ellipse fill="none" stroke="#000000" cx="277.4096" cy="-1424" rx="58" ry="58"/>
<text text-anchor="middle" x="277.4096" y="-1419.8" font-family="monospace" font-size="14.00" fill="#000000">Mul</text>
</g>
<!-- Start&#45;&gt;Mul -->
<g id="edge36" class="edge">
<title>Start-&gt;Mul</title>
<path fill="none" stroke="#000000" d="M108.0812,-1424C138.3782,-1424 176.4631,-1424 208.8374,-1424"/>
<polygon fill="#000000" stroke="#000000" points="209.1307,-1427.5001 219.1307,-1424 209.1307,-1420.5001 209.1307,-1427.5001"/>
<text text-anchor="middle" x="163.7048" y="-1428.2" font-family="monospace" font-size="14.00" fill="#000000">*</text>
</g>
<!-- Div -->
<g id="node20" class="node">
<title>Div</title>
<ellipse fill="none" stroke="#000000" cx="277.4096" cy="-1290" rx="54" ry="54"/>
<ellipse fill="none" stroke="#000000" cx="277.4096" cy="-1290" rx="58" ry="58"/>
<text text-anchor="middle" x="277.4096" y="-1285.8" font-family="monospace" font-size="14.00" fill="#000000">Div</text>
</g>
<!-- Start&#45;&gt;Div -->
<g id="edge38" class="edge">
<title>Start-&gt;Div</title>
<path fill="none" stroke="#000000" d="M100.562,-1396.0723C134.895,-1375.4796 181.8481,-1347.3173 218.7459,-1325.1862"/>
<polygon fill="#000000" stroke="#000000" points="220.6391,-1328.132 227.4145,-1319.9868 217.0385,-1322.129 220.6391,-1328.132"/>
<text text-anchor="middle" x="163.7048" y="-1384.2" font-family="monospace" font-size="14.00" fill="#000000">/</text>
</g>
<!-- String_begin -->
<g id="node26" class="node">
<title>String_begin</title>
<ellipse fill="none" stroke="#000000" cx="277.4096" cy="-1160" rx="54" ry="54"/>
<text text-anchor="middle" x="277.4096" y="-1155.8" font-family="monospace" font-size="14.00" fill="#000000">String_begin</text>
</g>
<!-- Start&#45;&gt;String_begin -->
<g id="edge6" class="edge">
<title>Start-&gt;String_begin</title>
<path fill="none" stroke="#000000" d="M82.195,-1377.8649C94.8245,-1358.2775 110.3753,-1335.5477 126,-1316.2 158.4018,-1276.0776 199.3167,-1234.3156 230.4435,-1204.0791"/>
<polygon fill="#000000" stroke="#000000" points="232.9729,-1206.502 237.7316,-1197.036 228.1084,-1201.4684 232.9729,-1206.502"/>
<text text-anchor="middle" x="163.7048" y="-1320.2" font-family="monospace" font-size="14.00" fill="#000000">"</text>
</g>
<!-- Int_in -->
<g id="node30" class="node">
<title>Int_in</title>
<ellipse fill="none" stroke="#000000" cx="277.4096" cy="-996" rx="54" ry="54"/>
<ellipse fill="none" stroke="#000000" cx="277.4096" cy="-996" rx="58" ry="58"/>
<text text-anchor="middle" x="277.4096" y="-991.8" font-family="monospace" font-size="14.00" fill="#000000">Int_in</text>
</g>
<!-- Start&#45;&gt;Int_in -->
<g id="edge13" class="edge">
<title>Start-&gt;Int_in</title>
<path fill="none" stroke="#000000" d="M67.8299,-1371.3458C80.1884,-1328.1334 100.2997,-1266.012 126,-1215.2 156.4957,-1154.9071 201.4913,-1092.0466 234.5077,-1049.1824"/>
<polygon fill="#000000" stroke="#000000" points="237.374,-1051.1975 240.735,-1041.1499 231.8418,-1046.9086 237.374,-1051.1975"/>
<text text-anchor="middle" x="163.7048" y="-1219.2" font-family="monospace" font-size="14.00" fill="#000000">0-9</text>
</g>
<!-- L_r_par -->
<g id="node36" class="node">
<title>L_r_par</title>
<ellipse fill="none" stroke="#000000" cx="277.4096" cy="-862" rx="54" ry="54"/>
<ellipse fill="none" stroke="#000000" cx="277.4096" cy="-862" rx="58" ry="58"/>
<text text-anchor="middle" x="277.4096" y="-857.8" font-family="monospace" font-size="14.00" fill="#000000">L_r_par</text>
</g>
<!-- Start&#45;&gt;L_r_par -->
<g id="edge47" class="edge">
<title>Start-&gt;L_r_par</title>
<path fill="none" stroke="#000000" d="M59.0669,-1370.1157C66.9912,-1300.224 85.7838,-1175.5037 126,-1076.2 150.9721,-1014.5378 196.7481,-953.4989 231.4529,-912.4514"/>
<polygon fill="#000000" stroke="#000000" points="234.1816,-914.6457 238.0165,-904.7693 228.8596,-910.0986 234.1816,-914.6457"/>
<text text-anchor="middle" x="163.7048" y="-1080.2" font-family="monospace" font-size="14.00" fill="#000000">(</text>
</g>
<!-- R_r_par -->
<g id="node37" class="node">
<title>R_r_par</title>
<ellipse fill="none" stroke="#000000" cx="277.4096" cy="-728" rx="54" ry="54"/>
<ellipse fill="none" stroke="#000000" cx="277.4096" cy="-728" rx="58" ry="58"/>
<text text-anchor="middle" x="277.4096" y="-723.8" font-family="monospace" font-size="14.00" fill="#000000">R_r_par</text>
</g>
<!-- Start&#45;&gt;R_r_par -->
<g id="edge48" class="edge">
<title>Start-&gt;R_r_par</title>
<path fill="none" stroke="#000000" d="M58.8617,-1369.991C69.2895,-1259.6663 95.3625,-1012.1871 126,-933.2 149.1151,-873.6065 194.3148,-815.9651 229.3373,-777.0281"/>
<polygon fill="#000000" stroke="#000000" points="232.0518,-779.2455 236.1965,-769.495 226.8759,-774.5327 232.0518,-779.2455"/>
<text text-anchor="middle" x="163.7048" y="-937.2" font-family="monospace" font-size="14.00" fill="#000000">)</text>
</g>
<!-- L_c_par -->
<g id="node38" class="node">
<title>L_c_par</title>
<ellipse fill="none" stroke="#000000" cx="277.4096" cy="-594" rx="54" ry="54"/>
<ellipse fill="none" stroke="#000000" cx="277.4096" cy="-594" rx="58" ry="58"/>
<text text-anchor="middle" x="277.4096" y="-589.8" font-family="monospace" font-size="14.00" fill="#000000">L_c_par</text>
</g>
<!-- Start&#45;&gt;L_c_par -->
<g id="edge49" class="edge">
<title>Start-&gt;L_c_par</title>
<path fill="none" stroke="#000000" d="M56.5987,-1369.6062C63.5509,-1235.9675 84.9009,-894.7528 126,-789.2 148.1554,-732.2994 192.4981,-678.314 227.4968,-641.6004"/>
<polygon fill="#000000" stroke="#000000" points="230.3779,-643.6558 234.812,-634.0334 225.3451,-638.7905 230.3779,-643.6558"/>
<text text-anchor="middle" x="163.7048" y="-793.2" font-family="monospace" font-size="14.00" fill="#000000">{</text>
</g>
<!-- R_c_par -->
<g id="node39" class="node">
<title>R_c_par</title>
<ellipse fill="none" stroke="#000000" cx="277.4096" cy="-460" rx="54" ry="54"/>
<ellipse fill="none" stroke="#000000" cx="277.4096" cy="-460" rx="58" ry="58"/>
<text text-anchor="middle" x="277.4096" y="-455.8" font-family="monospace" font-size="14.00" fill="#000000">R_c_par</text>
</g>
<!-- Start&#45;&gt;R_c_par -->
<g id="edge50" class="edge">
<title>Start-&gt;R_c_par</title>
<path fill="none" stroke="#000000" d="M55.1881,-1369.9966C59.1599,-1216.7955 74.7634,-782.0053 126,-650.2 147.7003,-594.3764 191.8666,-541.9981 226.9243,-506.3985"/>
<polygon fill="#000000" stroke="#000000" points="229.6632,-508.6092 234.2557,-499.0614 224.7115,-503.6614 229.6632,-508.6092"/>
<text text-anchor="middle" x="163.7048" y="-654.2" font-family="monospace" font-size="14.00" fill="#000000">}</text>
</g>
<!-- Whitespace -->
<g id="node40" class="node">
<title>Whitespace</title>
<ellipse fill="none" stroke="#000000" cx="277.4096" cy="-326" rx="54" ry="54"/>
<ellipse fill="none" stroke="#000000" cx="277.4096" cy="-326" rx="58" ry="58"/>
<text text-anchor="middle" x="277.4096" y="-321.8" font-family="monospace" font-size="14.00" fill="#000000">Whitespace</text>
</g>
<!-- Start&#45;&gt;Whitespace -->
<g id="edge51" class="edge">
<title>Start-&gt;Whitespace</title>
<path fill="none" stroke="#000000" d="M56.4859,-1369.8344C65.1632,-1186.1629 95.2536,-593.9921 126,-514.2 147.3265,-458.8542 191.3057,-407.2165 226.3964,-372.084"/>
<polygon fill="#000000" stroke="#000000" points="229.0766,-374.3564 233.7381,-364.8422 224.1609,-369.3729 229.0766,-374.3564"/>
<text text-anchor="middle" x="163.7048" y="-518.2" font-family="monospace" font-size="14.00" fill="#000000">(space)</text>
</g>
<!-- Comma -->
<g id="node41" class="node">
<title>Comma</title>
<ellipse fill="none" stroke="#000000" cx="277.4096" cy="-192" rx="54" ry="54"/>
<ellipse fill="none" stroke="#000000" cx="277.4096" cy="-192" rx="58" ry="58"/>
<text text-anchor="middle" x="277.4096" y="-187.8" font-family="monospace" font-size="14.00" fill="#000000">Comma</text>
</g>
<!-- Start&#45;&gt;Comma -->
<g id="edge52" class="edge">
<title>Start-&gt;Comma</title>
<path fill="none" stroke="#000000" d="M55.8769,-1369.9747C63.1075,-1169.101 90.5339,-472.0921 126,-379.2 147.0878,-323.9673 191.092,-272.623 226.253,-237.7304"/>
<polygon fill="#000000" stroke="#000000" points="228.9056,-240.0319 233.6103,-230.5389 224.0126,-235.026 228.9056,-240.0319"/>
<text text-anchor="middle" x="163.7048" y="-383.2" font-family="monospace" font-size="14.00" fill="#000000">,</text>
</g>
<!-- Semicolon -->
<g id="node42" class="node">
<title>Semicolon</title>
<ellipse fill="none" stroke="#000000" cx="277.4096" cy="-58" rx="54" ry="54"/>
<ellipse fill="none" stroke="#000000" cx="277.4096" cy="-58" rx="58" ry="58"/>
<text text-anchor="middle" x="277.4096" y="-53.8" font-family="monospace" font-size="14.00" fill="#000000">Semicolon</text>
</g>
<!-- Start&#45;&gt;Semicolon -->
<g id="edge53" class="edge">
<title>Start-&gt;Semicolon</title>
<path fill="none" stroke="#000000" d="M55.4131,-1369.8154C61.3389,-1152.4346 85.7613,-350.1963 126,-244.2 146.9151,-189.1057 190.9375,-138.0521 226.1493,-103.392"/>
<polygon fill="#000000" stroke="#000000" points="228.7737,-105.7225 233.5179,-96.2491 223.9015,-100.6963 228.7737,-105.7225"/>
<text text-anchor="middle" x="163.7048" y="-248.2" font-family="monospace" font-size="14.00" fill="#000000">;</text>
</g>
<!-- Identifier&#45;&gt;Identifier -->
<g id="edge2" class="edge">
<title>Identifier-&gt;Identifier</title>
<path fill="none" stroke="#000000" d="M256.8723,-2810.3104C258.642,-2822.8147 265.4877,-2832 277.4096,-2832 285.9784,-2832 291.925,-2827.2548 295.2492,-2819.9428"/>
<polygon fill="#000000" stroke="#000000" points="298.6202,-2820.8838 297.9469,-2810.3104 291.8796,-2818.9959 298.6202,-2820.8838"/>
<text text-anchor="middle" x="277.4096" y="-2836.2" font-family="monospace" font-size="14.00" fill="#000000">  _, 0-9, a-z, A-Z  </text>
</g>
<!-- End_closing -->
<g id="node5" class="node">
<title>End_closing</title>
<ellipse fill="none" stroke="#000000" cx="511.6596" cy="-2488" rx="54" ry="54"/>
<ellipse fill="none" stroke="#000000" cx="511.6596" cy="-2488" rx="58" ry="58"/>
<text text-anchor="middle" x="511.6596" y="-2483.8" font-family="monospace" font-size="14.00" fill="#000000">End_closing</text>
</g>
<!-- Type_prefix&#45;&gt;End_closing -->
<g id="edge5" class="edge">
<title>Type_prefix-&gt;End_closing</title>
<path fill="none" stroke="#000000" d="M335.6151,-2488C368.1563,-2488 408.9023,-2488 442.9966,-2488"/>
<polygon fill="#000000" stroke="#000000" points="443.3477,-2491.5001 453.3476,-2488 443.3476,-2484.5001 443.3477,-2491.5001"/>
<text text-anchor="middle" x="394.5346" y="-2492.2" font-family="monospace" font-size="14.00" fill="#000000">&gt;</text>
</g>
<!-- Eq_in -->
<g id="node7" class="node">
<title>Eq_in</title>
<ellipse fill="none" stroke="#000000" cx="511.6596" cy="-2354" rx="54" ry="54"/>
<text text-anchor="middle" x="511.6596" y="-2349.8" font-family="monospace" font-size="14.00" fill="#000000">Eq_in</text>
</g>
<!-- Assign&#45;&gt;Eq_in -->
<g id="edge24" class="edge">
<title>Assign-&gt;Eq_in</title>
<path fill="none" stroke="#000000" d="M335.6151,-2354C369.5298,-2354 412.3566,-2354 447.2772,-2354"/>
<polygon fill="#000000" stroke="#000000" points="447.3712,-2357.5001 457.3712,-2354 447.3712,-2350.5001 447.3712,-2357.5001"/>
<text text-anchor="middle" x="394.5346" y="-2358.2" font-family="monospace" font-size="14.00" fill="#000000">=</text>
</g>
<!-- Eq_end -->
<g id="node8" class="node">
<title>Eq_end</title>
<ellipse fill="none" stroke="#000000" cx="729.1495" cy="-2354" rx="54" ry="54"/>
<ellipse fill="none" stroke="#000000" cx="729.1495" cy="-2354" rx="58" ry="58"/>
<text text-anchor="middle" x="729.1495" y="-2349.8" font-family="monospace" font-size="14.00" fill="#000000">Eq_end</text>
</g>
<!-- Eq_in&#45;&gt;Eq_end -->
<g id="edge25" class="edge">
<title>Eq_in-&gt;Eq_end</title>
<path fill="none" stroke="#000000" d="M565.7006,-2354C594.4098,-2354 629.9973,-2354 660.6284,-2354"/>
<polygon fill="#000000" stroke="#000000" points="660.8093,-2357.5001 670.8092,-2354 660.8092,-2350.5001 660.8093,-2357.5001"/>
<text text-anchor="middle" x="616.9273" y="-2358.2" font-family="monospace" font-size="14.00" fill="#000000">=</text>
</g>
<!-- Noteq_in -->
<g id="node10" class="node">
<title>Noteq_in</title>
<ellipse fill="none" stroke="#000000" cx="511.6596" cy="-2221" rx="54" ry="54"/>
<text text-anchor="middle" x="511.6596" y="-2216.8" font-family="monospace" font-size="14.00" fill="#000000">Noteq_in</text>
</g>
<!-- Noteq_begin&#45;&gt;Noteq_in -->
<g id="edge27" class="edge">
<title>Noteq_begin-&gt;Noteq_in</title>
<path fill="none" stroke="#000000" d="M331.4454,-2223.308C366.0268,-2222.8651 411.0668,-2222.2883 447.4682,-2221.8221"/>
<polygon fill="#000000" stroke="#000000" points="447.536,-2225.3216 457.4903,-2221.6937 447.4463,-2218.3222 447.536,-2225.3216"/>
<text text-anchor="middle" x="394.5346" y="-2226.2" font-family="monospace" font-size="14.00" fill="#000000">=</text>
</g>
<!-- Noteq_end -->
<g id="node11" class="node">
<title>Noteq_end</title>
<ellipse fill="none" stroke="#000000" cx="729.1495" cy="-2220" rx="54" ry="54"/>
<ellipse fill="none" stroke="#000000" cx="729.1495" cy="-2220" rx="58" ry="58"/>
<text text-anchor="middle" x="729.1495" y="-2215.8" font-family="monospace" font-size="14.00" fill="#000000">Noteq_end</text>
</g>
<!-- Noteq_in&#45;&gt;Noteq_end -->
<g id="edge28" class="edge">
<title>Noteq_in-&gt;Noteq_end</title>
<path fill="none" stroke="#000000" d="M565.7006,-2220.7515C594.4098,-2220.6195 629.9973,-2220.4559 660.6284,-2220.3151"/>
<polygon fill="#000000" stroke="#000000" points="660.8255,-2223.8143 670.8092,-2220.2682 660.7932,-2216.8144 660.8255,-2223.8143"/>
<text text-anchor="middle" x="616.9273" y="-2224.2" font-family="monospace" font-size="14.00" fill="#000000">=</text>
</g>
<!-- Smaller_eq -->
<g id="node15" class="node">
<title>Smaller_eq</title>
<ellipse fill="none" stroke="#000000" cx="511.6596" cy="-1960" rx="54" ry="54"/>
<ellipse fill="none" stroke="#000000" cx="511.6596" cy="-1960" rx="58" ry="58"/>
<text text-anchor="middle" x="511.6596" y="-1955.8" font-family="monospace" font-size="14.00" fill="#000000">Smaller_eq</text>
</g>
<!-- Smaller&#45;&gt;Smaller_eq -->
<g id="edge32" class="edge">
<title>Smaller-&gt;Smaller_eq</title>
<path fill="none" stroke="#000000" d="M335.6151,-1960C368.1563,-1960 408.9023,-1960 442.9966,-1960"/>
<polygon fill="#000000" stroke="#000000" points="443.3477,-1963.5001 453.3476,-1960 443.3476,-1956.5001 443.3477,-1963.5001"/>
<text text-anchor="middle" x="394.5346" y="-1964.2" font-family="monospace" font-size="14.00" fill="#000000">=</text>
</g>
<!-- Larger_eq -->
<g id="node16" class="node">
<title>Larger_eq</title>
<ellipse fill="none" stroke="#000000" cx="511.6596" cy="-1826" rx="54" ry="54"/>
<ellipse fill="none" stroke="#000000" cx="511.6596" cy="-1826" rx="58" ry="58"/>
<text text-anchor="middle" x="511.6596" y="-1821.8" font-family="monospace" font-size="14.00" fill="#000000">Larger_eq</text>
</g>
<!-- Larger&#45;&gt;Larger_eq -->
<g id="edge33" class="edge">
<title>Larger-&gt;Larger_eq</title>
<path fill="none" stroke="#000000" d="M335.6151,-1826C368.1563,-1826 408.9023,-1826 442.9966,-1826"/>
<polygon fill="#000000" stroke="#000000" points="443.3477,-1829.5001 453.3476,-1826 443.3476,-1822.5001 443.3477,-1829.5001"/>
<text text-anchor="middle" x="394.5346" y="-1830.2" font-family="monospace" font-size="14.00" fill="#000000">=</text>
</g>
<!-- Comment_l_in -->
<g id="node21" class="node">
<title>Comment_l_in</title>
<ellipse fill="none" stroke="#000000" cx="511.6596" cy="-1295" rx="54" ry="54"/>
<text text-anchor="middle" x="511.6596" y="-1290.8" font-family="monospace" font-size="14.00" fill="#000000">Comment_l_in</text>
</g>
<!-- Div&#45;&gt;Comment_l_in -->
<g id="edge39" class="edge">
<title>Div-&gt;Comment_l_in</title>
<path fill="none" stroke="#000000" d="M335.6151,-1291.2424C369.5298,-1291.9663 412.3566,-1292.8804 447.2772,-1293.6258"/>
<polygon fill="#000000" stroke="#000000" points="447.2987,-1297.1269 457.3712,-1293.8412 447.4482,-1290.1285 447.2987,-1297.1269"/>
<text text-anchor="middle" x="394.5346" y="-1297.2" font-family="monospace" font-size="14.00" fill="#000000">/</text>
</g>
<!-- Comment_b_in -->
<g id="node23" class="node">
<title>Comment_b_in</title>
<ellipse fill="none" stroke="#000000" cx="511.6596" cy="-1455" rx="54" ry="54"/>
<text text-anchor="middle" x="511.6596" y="-1450.8" font-family="monospace" font-size="14.00" fill="#000000">Comment_b_in</text>
</g>
<!-- Div&#45;&gt;Comment_b_in -->
<g id="edge42" class="edge">
<title>Div-&gt;Comment_b_in</title>
<path fill="none" stroke="#000000" d="M325.0959,-1323.5891C363.9363,-1350.9473 418.7213,-1389.5365 458.8764,-1417.8208"/>
<polygon fill="#000000" stroke="#000000" points="457.021,-1420.795 467.2121,-1423.6922 461.0521,-1415.0722 457.021,-1420.795"/>
<text text-anchor="middle" x="394.5346" y="-1400.2" font-family="monospace" font-size="14.00" fill="#000000">*</text>
</g>
<!-- Comment_l_in&#45;&gt;Comment_l_in -->
<g id="edge40" class="edge">
<title>Comment_l_in-&gt;Comment_l_in</title>
<path fill="none" stroke="#000000" d="M492.5036,-1345.7967C494.0008,-1357.9758 500.3862,-1367 511.6596,-1367 519.5862,-1367 525.0963,-1362.5386 528.1897,-1355.656"/>
<polygon fill="#000000" stroke="#000000" points="531.624,-1356.3607 530.8156,-1345.7967 524.8598,-1354.559 531.624,-1356.3607"/>
<text text-anchor="middle" x="511.6596" y="-1371.2" font-family="monospace" font-size="14.00" fill="#000000">ASCII-{\n, EOF}</text>
</g>
<!-- Comment_l_end -->
<g id="node22" class="node">
<title>Comment_l_end</title>
<ellipse fill="none" stroke="#000000" cx="729.1495" cy="-1342" rx="56.3193" ry="56.3193"/>
<ellipse fill="none" stroke="#000000" cx="729.1495" cy="-1342" rx="60.3303" ry="60.3303"/>
<text text-anchor="middle" x="729.1495" y="-1337.8" font-family="monospace" font-size="14.00" fill="#000000">Comment_l_end</text>
</g>
<!-- Comment_l_in&#45;&gt;Comment_l_end -->
<g id="edge41" class="edge">
<title>Comment_l_in-&gt;Comment_l_end</title>
<path fill="none" stroke="#000000" d="M564.5855,-1306.4374C593.4039,-1312.6651 629.398,-1320.4435 660.3686,-1327.1363"/>
<polygon fill="#000000" stroke="#000000" points="659.7183,-1330.5765 670.232,-1329.2678 661.1969,-1323.7344 659.7183,-1330.5765"/>
<text text-anchor="middle" x="616.9273" y="-1326.2" font-family="monospace" font-size="14.00" fill="#000000">\n, EOF</text>
</g>
<!-- Comment_b_in&#45;&gt;Comment_b_in -->
<g id="edge43" class="edge">
<title>Comment_b_in-&gt;Comment_b_in</title>
<path fill="none" stroke="#000000" d="M492.5036,-1505.7967C494.0008,-1517.9758 500.3862,-1527 511.6596,-1527 519.5862,-1527 525.0963,-1522.5386 528.1897,-1515.656"/>
<polygon fill="#000000" stroke="#000000" points="531.624,-1516.3607 530.8156,-1505.7967 524.8598,-1514.559 531.624,-1516.3607"/>
<text text-anchor="middle" x="511.6596" y="-1531.2" font-family="monospace" font-size="14.00" fill="#000000">ASCII-{*}</text>
</g>
<!-- Comment_b_end_1 -->
<g id="node24" class="node">
<title>Comment_b_end_1</title>
<ellipse fill="none" stroke="#000000" cx="729.1495" cy="-1490" rx="64.909" ry="64.909"/>
<text text-anchor="middle" x="729.1495" y="-1485.8" font-family="monospace" font-size="14.00" fill="#000000">Comment_b_end_1</text>
</g>
<!-- Comment_b_in&#45;&gt;Comment_b_end_1 -->
<g id="edge44" class="edge">
<title>Comment_b_in-&gt;Comment_b_end_1</title>
<path fill="none" stroke="#000000" d="M565.5482,-1448.8776C590.3568,-1447.4323 620.0298,-1447.6568 646.195,-1453.2 651.173,-1454.2546 656.2153,-1455.6288 661.2264,-1457.2252"/>
<polygon fill="#000000" stroke="#000000" points="660.2048,-1460.5754 670.7996,-1460.5435 662.4973,-1453.9614 660.2048,-1460.5754"/>
<text text-anchor="middle" x="616.9273" y="-1457.2" font-family="monospace" font-size="14.00" fill="#000000">*</text>
</g>
<!-- Comment_b_end_1&#45;&gt;Comment_b_in -->
<g id="edge45" class="edge">
<title>Comment_b_end_1-&gt;Comment_b_in</title>
<path fill="none" stroke="#000000" d="M664.5863,-1481.6277C640.4092,-1478.2945 612.7317,-1474.243 587.6596,-1470 583.4826,-1469.2931 579.1828,-1468.5331 574.8537,-1467.7437"/>
<polygon fill="#000000" stroke="#000000" points="575.2154,-1464.2509 564.7434,-1465.8596 573.9329,-1471.1324 575.2154,-1464.2509"/>
<text text-anchor="middle" x="616.9273" y="-1482.2" font-family="monospace" font-size="14.00" fill="#000000">ASCII-{/}</text>
</g>
<!-- Comment_b_end_2 -->
<g id="node25" class="node">
<title>Comment_b_end_2</title>
<ellipse fill="none" stroke="#000000" cx="920.8257" cy="-1490" rx="64.9117" ry="64.9117"/>
<ellipse fill="none" stroke="#000000" cx="920.8257" cy="-1490" rx="68.909" ry="68.909"/>
<text text-anchor="middle" x="920.8257" y="-1485.8" font-family="monospace" font-size="14.00" fill="#000000">Comment_b_end_2</text>
</g>
<!-- Comment_b_end_1&#45;&gt;Comment_b_end_2 -->
<g id="edge46" class="edge">
<title>Comment_b_end_1-&gt;Comment_b_end_2</title>
<path fill="none" stroke="#000000" d="M794.3098,-1490C809.4446,-1490 825.7205,-1490 841.3931,-1490"/>
<polygon fill="#000000" stroke="#000000" points="841.5871,-1493.5001 851.5871,-1490 841.587,-1486.5001 841.5871,-1493.5001"/>
<text text-anchor="middle" x="822.9876" y="-1494.2" font-family="monospace" font-size="14.00" fill="#000000">/</text>
</g>
<!-- String_in -->
<g id="node27" class="node">
<title>String_in</title>
<ellipse fill="none" stroke="#000000" cx="511.6596" cy="-1082" rx="54" ry="54"/>
<text text-anchor="middle" x="511.6596" y="-1077.8" font-family="monospace" font-size="14.00" fill="#000000">String_in</text>
</g>
<!-- String_begin&#45;&gt;String_in -->
<g id="edge7" class="edge">
<title>String_begin-&gt;String_in</title>
<path fill="none" stroke="#000000" d="M328.8168,-1142.8826C364.6696,-1130.9444 412.6695,-1114.9615 450.4924,-1102.3673"/>
<polygon fill="#000000" stroke="#000000" points="451.9903,-1105.5576 460.3724,-1099.0775 449.7788,-1098.9161 451.9903,-1105.5576"/>
<text text-anchor="middle" x="394.5346" y="-1136.2" font-family="monospace" font-size="14.00" fill="#000000">ASCII&gt;31-{"}</text>
</g>
<!-- String_end -->
<g id="node28" class="node">
<title>String_end</title>
<ellipse fill="none" stroke="#000000" cx="729.1495" cy="-1206" rx="54" ry="54"/>
<ellipse fill="none" stroke="#000000" cx="729.1495" cy="-1206" rx="58" ry="58"/>
<text text-anchor="middle" x="729.1495" y="-1201.8" font-family="monospace" font-size="14.00" fill="#000000">String_end</text>
</g>
<!-- String_begin&#45;&gt;String_end -->
<g id="edge12" class="edge">
<title>String_begin-&gt;String_end</title>
<path fill="none" stroke="#000000" d="M331.3921,-1165.9563C366.2689,-1169.7707 412.6361,-1174.7786 453.6596,-1179 524.428,-1186.2822 605.472,-1194.1709 661.2432,-1199.5295"/>
<polygon fill="#000000" stroke="#000000" points="661.066,-1203.0285 671.3546,-1200.4999 661.7348,-1196.0605 661.066,-1203.0285"/>
<text text-anchor="middle" x="511.6596" y="-1194.2" font-family="monospace" font-size="14.00" fill="#000000">"</text>
</g>
<!-- String_in&#45;&gt;String_in -->
<g id="edge10" class="edge">
<title>String_in-&gt;String_in</title>
<path fill="none" stroke="#000000" d="M492.5036,-1132.7967C494.0008,-1144.9758 500.3862,-1154 511.6596,-1154 519.5862,-1154 525.0963,-1149.5386 528.1897,-1142.656"/>
<polygon fill="#000000" stroke="#000000" points="531.624,-1143.3607 530.8156,-1132.7967 524.8598,-1141.559 531.624,-1143.3607"/>
<text text-anchor="middle" x="511.6596" y="-1158.2" font-family="monospace" font-size="14.00" fill="#000000">ASCII&gt;31-{"}</text>
</g>
<!-- String_in&#45;&gt;String_end -->
<g id="edge8" class="edge">
<title>String_in-&gt;String_end</title>
<path fill="none" stroke="#000000" d="M558.5839,-1108.7535C591.1627,-1127.328 634.8265,-1152.2225 669.8197,-1172.1736"/>
<polygon fill="#000000" stroke="#000000" points="668.0966,-1175.2201 678.5174,-1177.1325 671.5637,-1169.139 668.0966,-1175.2201"/>
<text text-anchor="middle" x="616.9273" y="-1159.2" font-family="monospace" font-size="14.00" fill="#000000">"</text>
</g>
<!-- String_esc -->
<g id="node29" class="node">
<title>String_esc</title>
<ellipse fill="none" stroke="#000000" cx="729.1495" cy="-1076" rx="54" ry="54"/>
<text text-anchor="middle" x="729.1495" y="-1071.8" font-family="monospace" font-size="14.00" fill="#000000">String_esc</text>
</g>
<!-- String_in&#45;&gt;String_esc -->
<g id="edge9" class="edge">
<title>String_in-&gt;String_esc</title>
<path fill="none" stroke="#000000" d="M563.1625,-1065.143C571.2798,-1063.0932 579.6398,-1061.3275 587.6596,-1060.2 613.3668,-1056.5859 641.796,-1058.5968 666.3867,-1062.2255"/>
<polygon fill="#000000" stroke="#000000" points="665.889,-1065.6903 676.3151,-1063.807 666.9902,-1058.7774 665.889,-1065.6903"/>
<text text-anchor="middle" x="616.9273" y="-1064.2" font-family="monospace" font-size="14.00" fill="#000000">\</text>
</g>
<!-- String_esc&#45;&gt;String_in -->
<g id="edge11" class="edge">
<title>String_esc-&gt;String_in</title>
<path fill="none" stroke="#000000" d="M675.0096,-1077.4936C644.9104,-1078.3239 607.2738,-1079.3622 575.7158,-1080.2328"/>
<polygon fill="#000000" stroke="#000000" points="575.6002,-1076.7346 565.7006,-1080.5091 575.7933,-1083.7319 575.6002,-1076.7346"/>
<text text-anchor="middle" x="616.9273" y="-1083.2" font-family="monospace" font-size="14.00" fill="#000000">ASCII&gt;31</text>
</g>
<!-- Int_in&#45;&gt;Int_in -->
<g id="edge14" class="edge">
<title>Int_in-&gt;Int_in</title>
<path fill="none" stroke="#000000" d="M256.8723,-1050.3104C258.642,-1062.8147 265.4877,-1072 277.4096,-1072 285.9784,-1072 291.925,-1067.2548 295.2492,-1059.9428"/>
<polygon fill="#000000" stroke="#000000" points="298.6202,-1060.8838 297.9469,-1050.3104 291.8796,-1058.9959 298.6202,-1060.8838"/>
<text text-anchor="middle" x="277.4096" y="-1076.2" font-family="monospace" font-size="14.00" fill="#000000">0-9</text>
</g>
<!-- Float_begin -->
<g id="node31" class="node">
<title>Float_begin</title>
<ellipse fill="none" stroke="#000000" cx="511.6596" cy="-903" rx="54" ry="54"/>
<text text-anchor="middle" x="511.6596" y="-898.8" font-family="monospace" font-size="14.00" fill="#000000">Float_begin</text>
</g>
<!-- Int_in&#45;&gt;Float_begin -->
<g id="edge15" class="edge">
<title>Int_in-&gt;Float_begin</title>
<path fill="none" stroke="#000000" d="M330.8479,-972.5875C338.4007,-969.3807 346.0856,-966.1718 353.4096,-963.2 385.6066,-950.1355 421.8103,-936.3008 451.4559,-925.1926"/>
<polygon fill="#000000" stroke="#000000" points="452.6955,-928.4658 460.8373,-921.6862 450.2448,-921.9088 452.6955,-928.4658"/>
<text text-anchor="middle" x="394.5346" y="-967.2" font-family="monospace" font-size="14.00" fill="#000000">.</text>
</g>
<!-- Exp_begin -->
<g id="node33" class="node">
<title>Exp_begin</title>
<ellipse fill="none" stroke="#000000" cx="920.8257" cy="-956" rx="54" ry="54"/>
<text text-anchor="middle" x="920.8257" y="-951.8" font-family="monospace" font-size="14.00" fill="#000000">Exp_begin</text>
</g>
<!-- Int_in&#45;&gt;Exp_begin -->
<g id="edge18" class="edge">
<title>Int_in-&gt;Exp_begin</title>
<path fill="none" stroke="#000000" d="M335.6641,-995.6831C431.4942,-994.7019 628.3125,-990.7515 794.104,-975 814.7547,-973.038 837.1742,-969.9845 857.3342,-966.895"/>
<polygon fill="#000000" stroke="#000000" points="857.9998,-970.3335 867.3393,-965.3311 856.9187,-963.4175 857.9998,-970.3335"/>
<text text-anchor="middle" x="616.9273" y="-992.2" font-family="monospace" font-size="14.00" fill="#000000">e, E</text>
</g>
<!-- Float_in -->
<g id="node32" class="node">
<title>Float_in</title>
<ellipse fill="none" stroke="#000000" cx="729.1495" cy="-874" rx="54" ry="54"/>
<ellipse fill="none" stroke="#000000" cx="729.1495" cy="-874" rx="58" ry="58"/>
<text text-anchor="middle" x="729.1495" y="-869.8" font-family="monospace" font-size="14.00" fill="#000000">Float_in</text>
</g>
<!-- Float_begin&#45;&gt;Float_in -->
<g id="edge16" class="edge">
<title>Float_begin-&gt;Float_in</title>
<path fill="none" stroke="#000000" d="M565.4212,-895.8315C594.3531,-891.9737 630.3315,-887.1764 661.1871,-883.0621"/>
<polygon fill="#000000" stroke="#000000" points="661.9876,-886.4864 671.4372,-881.6953 661.0623,-879.5478 661.9876,-886.4864"/>
<text text-anchor="middle" x="616.9273" y="-896.2" font-family="monospace" font-size="14.00" fill="#000000">0-9</text>
</g>
<!-- Float_in&#45;&gt;Float_in -->
<g id="edge17" class="edge">
<title>Float_in-&gt;Float_in</title>
<path fill="none" stroke="#000000" d="M712.4565,-929.6733C714.1516,-941.4764 719.7159,-950 729.1495,-950 735.6351,-950 740.2919,-945.9713 743.1198,-939.6179"/>
<polygon fill="#000000" stroke="#000000" points="746.5775,-940.2426 745.8425,-929.6733 739.826,-938.3941 746.5775,-940.2426"/>
<text text-anchor="middle" x="729.1495" y="-954.2" font-family="monospace" font-size="14.00" fill="#000000">0-9</text>
</g>
<!-- Float_in&#45;&gt;Exp_begin -->
<g id="edge23" class="edge">
<title>Float_in-&gt;Exp_begin</title>
<path fill="none" stroke="#000000" d="M782.542,-896.8416C807.098,-907.3467 836.3129,-919.845 861.5491,-930.6412"/>
<polygon fill="#000000" stroke="#000000" points="860.4377,-933.9725 871.0084,-934.6879 863.191,-927.5367 860.4377,-933.9725"/>
<text text-anchor="middle" x="822.9876" y="-921.2" font-family="monospace" font-size="14.00" fill="#000000">e, E</text>
</g>
<!-- Exp_sign -->
<g id="node34" class="node">
<title>Exp_sign</title>
<ellipse fill="none" stroke="#000000" cx="1099.3354" cy="-1029" rx="54" ry="54"/>
<text text-anchor="middle" x="1099.3354" y="-1024.8" font-family="monospace" font-size="14.00" fill="#000000">Exp_sign</text>
</g>
<!-- Exp_begin&#45;&gt;Exp_sign -->
<g id="edge19" class="edge">
<title>Exp_begin-&gt;Exp_sign</title>
<path fill="none" stroke="#000000" d="M971.0257,-976.5288C992.4107,-985.2741 1017.5217,-995.543 1039.8321,-1004.6666"/>
<polygon fill="#000000" stroke="#000000" points="1038.6225,-1007.9533 1049.2033,-1008.4989 1041.2721,-1001.4741 1038.6225,-1007.9533"/>
<text text-anchor="middle" x="1017.5578" y="-1003.2" font-family="monospace" font-size="14.00" fill="#000000">+, -</text>
</g>
<!-- Exp_in -->
<g id="node35" class="node">
<title>Exp_in</title>
<ellipse fill="none" stroke="#000000" cx="1265.996" cy="-956" rx="54" ry="54"/>
<ellipse fill="none" stroke="#000000" cx="1265.996" cy="-956" rx="58" ry="58"/>
<text text-anchor="middle" x="1265.996" y="-951.8" font-family="monospace" font-size="14.00" fill="#000000">Exp_in</text>
</g>
<!-- Exp_begin&#45;&gt;Exp_in -->
<g id="edge20" class="edge">
<title>Exp_begin-&gt;Exp_in</title>
<path fill="none" stroke="#000000" d="M974.7314,-952.4129C996.6297,-951.1234 1022.1802,-949.8318 1045.3354,-949.2 1093.3176,-947.8907 1105.3572,-947.7534 1153.3354,-949.2 1167.8167,-949.6366 1183.3308,-950.3883 1198.0731,-951.2366"/>
<polygon fill="#000000" stroke="#000000" points="1197.9431,-954.7349 1208.1338,-951.8366 1198.3599,-947.7474 1197.9431,-954.7349"/>
<text text-anchor="middle" x="1099.3354" y="-953.2" font-family="monospace" font-size="14.00" fill="#000000">0-9</text>
</g>
<!-- Exp_sign&#45;&gt;Exp_in -->
<g id="edge21" class="edge">
<title>Exp_sign-&gt;Exp_in</title>
<path fill="none" stroke="#000000" d="M1148.8879,-1007.2952C1166.0466,-999.7794 1185.5055,-991.2561 1203.5644,-983.346"/>
<polygon fill="#000000" stroke="#000000" points="1205.1053,-986.4922 1212.8609,-979.274 1202.2968,-980.0803 1205.1053,-986.4922"/>
<text text-anchor="middle" x="1180.6657" y="-1000.2" font-family="monospace" font-size="14.00" fill="#000000">0-9</text>
</g>
<!-- Exp_in&#45;&gt;Exp_in -->
<g id="edge22" class="edge">
<title>Exp_in-&gt;Exp_in</title>
<path fill="none" stroke="#000000" d="M1250.7997,-1012.0096C1252.3994,-1023.638 1257.4648,-1032 1265.996,-1032 1271.8613,-1032 1276.0884,-1028.0477 1278.6773,-1021.7988"/>
<polygon fill="#000000" stroke="#000000" points="1282.0938,-1022.5661 1281.1923,-1012.0096 1275.314,-1020.8241 1282.0938,-1022.5661"/>
<text text-anchor="middle" x="1265.996" y="-1036.2" font-family="monospace" font-size="14.00" fill="#000000">0-9</text>
</g>
</g>
</svg>