<?xml version="1.0" encoding="UTF-8" standalone="no"?><!DOCTYPE svg PUBLIC "-//W3C//DTD SVG 1.1//EN" "http://www.w3.org/Graphics/SVG/1.1/DTD/svg11.dtd"><!-- Generated by graphviz version 2.40.1 (20161225.0304)
 --><!-- Title: fsm Pages: 1 --><svg xmlns="http://www.w3.org/2000/svg" xmlns:xlink="http://www.w3.org/1999/xlink" width="1332pt" height="2723pt" viewBox="0.00 0.00 1332.00 2722.80">
<g id="graph0" class="graph" transform="scale(1 1) rotate(0) translate(4 2718.8)">
<title>fsm</title>
<polygon fill="#ffffff" stroke="transparent" points="-4,4 -4,-2718.8 1327.996,-2718.8 1327.996,4 -4,4"/>
<!-- Start -->
<g id="node1" class="node">
<title>Start</title>
<ellipse fill="none" stroke="#000000" cx="54" cy="-1357" rx="54" ry="54"/>
<text text-anchor="middle" x="54" y="-1352.8" font-family="monospace" font-size="14.00" fill="#000000">Start</text>
</g>
<!-- Identifier -->
<g id="node2" class="node">
<title>Identifier</title>
<ellipse fill="none" stroke="#000000" cx="277.4096" cy="-2622" rx="54" ry="54"/>
<ellipse fill="none" stroke="#000000" cx="277.4096" cy="-2622" rx="58" ry="58"/>
<text text-anchor="middle" x="277.4096" y="-2617.8" font-family="monospace" font-size="14.00" fill="#000000">Identifier</text>
</g>
<!-- Start&#45;&gt;Identifier -->
<g id="edge1" class="edge">
<title>Start-&gt;Identifier</title>
<path fill="none" stroke="#000000" d="M55.7502,-1410.9775C62.6469,-1615.8813 89.3704,-2338.8721 126,-2435 147.0381,-2490.2108 191.0476,-2541.4963 226.2232,-2576.3408"/>
<polygon fill="#000000" stroke="#000000" points="223.9818,-2579.0439 233.5837,-2583.5221 228.8702,-2574.0335 223.9818,-2579.0439"/>
<text text-anchor="middle" x="163.7048" y="-2552.2" font-family="monospace" font-size="14.00" fill="#000000">  _, a-z, A-Z  </text>
</g>
<!-- Var_prefix -->
<g id="node3" class="node">
<title>Var_prefix</title>
<ellipse fill="none" stroke="#000000" cx="277.4096" cy="-2488" rx="54" ry="54"/>
<ellipse fill="none" stroke="#000000" cx="277.4096" cy="-2488" rx="58" ry="58"/>
<text text-anchor="middle" x="277.4096" y="-2483.8" font-family="monospace" font-size="14.00" fill="#000000">Var_prefix</text>
</g>
<!-- Start&#45;&gt;Var_prefix -->
<g id="edge3" class="edge">
<title>Start-&gt;Var_prefix</title>
<path fill="none" stroke="#000000" d="M56.3227,-1411.1724C64.6351,-1599.2407 94.1095,-2216.9953 126,-2300 147.2582,-2355.3311 191.2446,-2406.9093 226.3554,-2441.9915"/>
<polygon fill="#000000" stroke="#000000" points="224.1197,-2444.7019 233.7016,-2449.2227 229.0302,-2439.7133 224.1197,-2444.7019"/>
<text text-anchor="middle" x="163.7048" y="-2418.2" font-family="monospace" font-size="14.00" fill="#000000">$</text>
</g>
<!-- Type_prefix -->
<g id="node4" class="node">
<title>Type_prefix</title>
<ellipse fill="none" stroke="#000000" cx="277.4096" cy="-2354" rx="54" ry="54"/>
<ellipse fill="none" stroke="#000000" cx="277.4096" cy="-2354" rx="58" ry="58"/>
<text text-anchor="middle" x="277.4096" y="-2349.8" font-family="monospace" font-size="14.00" fill="#000000">Type_prefix</text>
</g>
<!-- Start&#45;&gt;Type_prefix -->
<g id="edge4" class="edge">
<title>Start-&gt;Type_prefix</title>
<path fill="none" stroke="#000000" d="M54.8827,-1411.2046C58.0739,-1569.3488 71.8731,-2027.7185 126,-2166 147.6053,-2221.1965 191.5552,-2272.7888 226.5639,-2307.9106"/>
<polygon fill="#000000" stroke="#000000" points="224.3153,-2310.6092 233.8874,-2315.1506 229.2366,-2305.6312 224.3153,-2310.6092"/>
<text text-anchor="middle" x="163.7048" y="-2283.2" font-family="monospace" font-size="14.00" fill="#000000">?</text>
</g>
<!-- Assign -->
<g id="node6" class="node">
<title>Assign</title>
<ellipse fill="none" stroke="#000000" cx="277.4096" cy="-2220" rx="54" ry="54"/>
<ellipse fill="none" stroke="#000000" cx="277.4096" cy="-2220" rx="58" ry="58"/>
<text text-anchor="middle" x="277.4096" y="-2215.8" font-family="monospace" font-size="14.00" fill="#000000">Assign</text>
</g>
<!-- Start&#45;&gt;Assign -->
<g id="edge37" class="edge">
<title>Start-&gt;Assign</title>
<path fill="none" stroke="#000000" d="M55.98,-1411.0442C61.6862,-1550.4733 80.7397,-1919.2862 126,-2032 148.0874,-2087.0053 191.9867,-2138.6177 226.8536,-2173.7958"/>
<polygon fill="#000000" stroke="#000000" points="224.5872,-2176.478 234.1456,-2181.0483 229.5234,-2171.5148 224.5872,-2176.478"/>
<text text-anchor="middle" x="163.7048" y="-2149.2" font-family="monospace" font-size="14.00" fill="#000000">=</text>
</g>
<!-- Noteq_begin -->
<g id="node9" class="node">
<title>Noteq_begin</title>
<ellipse fill="none" stroke="#000000" cx="277.4096" cy="-2090" rx="54" ry="54"/>
<text text-anchor="middle" x="277.4096" y="-2085.8" font-family="monospace" font-size="14.00" fill="#000000">Noteq_begin</text>
</g>
<!-- Start&#45;&gt;Noteq_begin -->
<g id="edge26" class="edge">
<title>Start-&gt;Noteq_begin</title>
<path fill="none" stroke="#000000" d="M58.0095,-1411.0469C67.2805,-1528.9595 92.0321,-1805.7203 126,-1893 148.9312,-1951.9212 195.2387,-2007.9516 230.6368,-2045.0859"/>
<polygon fill="#000000" stroke="#000000" points="228.5462,-2047.9591 238.0124,-2052.7174 233.5796,-2043.0945 228.5462,-2047.9591"/>
<text text-anchor="middle" x="163.7048" y="-2015.2" font-family="monospace" font-size="14.00" fill="#000000">!</text>
</g>
<!-- Concat -->
<g id="node12" class="node">
<title>Concat</title>
<ellipse fill="none" stroke="#000000" cx="277.4096" cy="-1960" rx="54" ry="54"/>
<ellipse fill="none" stroke="#000000" cx="277.4096" cy="-1960" rx="58" ry="58"/>
<text text-anchor="middle" x="277.4096" y="-1955.8" font-family="monospace" font-size="14.00" fill="#000000">Concat</text>
</g>
<!-- Start&#45;&gt;Concat -->
<g id="edge29" class="edge">
<title>Start-&gt;Concat</title>
<path fill="none" stroke="#000000" d="M56.7019,-1411.112C62.1709,-1489.5674 78.4294,-1638.279 126,-1755 150.109,-1814.1548 195.1815,-1871.7887 229.9042,-1910.8026"/>
<polygon fill="#000000" stroke="#000000" points="227.4092,-1913.2623 236.7014,-1918.3521 232.6113,-1908.5785 227.4092,-1913.2623"/>
<text text-anchor="middle" x="163.7048" y="-1876.2" font-family="monospace" font-size="14.00" fill="#000000">.</text>
</g>
<!-- Smaller -->
<g id="node13" class="node">
<title>Smaller</title>
<ellipse fill="none" stroke="#000000" cx="277.4096" cy="-1826" rx="54" ry="54"/>
<ellipse fill="none" stroke="#000000" cx="277.4096" cy="-1826" rx="58" ry="58"/>
<text text-anchor="middle" x="277.4096" y="-1821.8" font-family="monospace" font-size="14.00" fill="#000000">Smaller</text>
</g>
<!-- Start&#45;&gt;Smaller -->
<g id="edge30" class="edge">
<title>Start-&gt;Smaller</title>
<path fill="none" stroke="#000000" d="M62.8034,-1410.2777C73.1942,-1465.5381 93.3213,-1553.5544 126,-1624 156.7036,-1690.1878 174.7095,-1701.3335 219.4096,-1759 223.4626,-1764.2286 227.7904,-1769.5911 232.1863,-1774.8948"/>
<polygon fill="#000000" stroke="#000000" points="229.543,-1777.1897 238.6516,-1782.6011 234.9057,-1772.6906 229.543,-1777.1897"/>
<text text-anchor="middle" x="163.7048" y="-1738.2" font-family="monospace" font-size="14.00" fill="#000000">&lt;</text>
</g>
<!-- Larger -->
<g id="node14" class="node">
<title>Larger</title>
<ellipse fill="none" stroke="#000000" cx="277.4096" cy="-1692" rx="54" ry="54"/>
<ellipse fill="none" stroke="#000000" cx="277.4096" cy="-1692" rx="58" ry="58"/>
<text text-anchor="middle" x="277.4096" y="-1687.8" font-family="monospace" font-size="14.00" fill="#000000">Larger</text>
</g>
<!-- Start&#45;&gt;Larger -->
<g id="edge31" class="edge">
<title>Start-&gt;Larger</title>
<path fill="none" stroke="#000000" d="M74.4454,-1407.1265C87.5715,-1437.2633 105.8887,-1475.8749 126,-1508 161.3078,-1564.3994 176.8684,-1573.8359 219.4096,-1625 223.6391,-1630.0869 228.0842,-1635.3551 232.5531,-1640.6004"/>
<polygon fill="#000000" stroke="#000000" points="229.934,-1642.923 239.0951,-1648.245 235.2524,-1638.3716 229.934,-1642.923"/>
<text text-anchor="middle" x="163.7048" y="-1607.2" font-family="monospace" font-size="14.00" fill="#000000">&gt;</text>
</g>
<!-- Plus -->
<g id="node17" class="node">
<title>Plus</title>
<ellipse fill="none" stroke="#000000" cx="277.4096" cy="-1558" rx="54" ry="54"/>
<ellipse fill="none" stroke="#000000" cx="277.4096" cy="-1558" rx="58" ry="58"/>
<text text-anchor="middle" x="277.4096" y="-1553.8" font-family="monospace" font-size="14.00" fill="#000000">Plus</text>
</g>
<!-- Start&#45;&gt;Plus -->
<g id="edge34" class="edge">
<title>Start-&gt;Plus</title>
<path fill="none" stroke="#000000" d="M94.1992,-1393.1669C131.1806,-1426.4389 186.2007,-1475.94 226.2918,-1512.0097"/>
<polygon fill="#000000" stroke="#000000" points="224.3261,-1514.9493 234.1012,-1519.0357 229.008,-1509.7454 224.3261,-1514.9493"/>
<text text-anchor="middle" x="163.7048" y="-1491.2" font-family="monospace" font-size="14.00" fill="#000000">+</text>
</g>
<!-- Minus -->
<g id="node18" class="node">
<title>Minus</title>
<ellipse fill="none" stroke="#000000" cx="277.4096" cy="-1424" rx="54" ry="54"/>
<ellipse fill="none" stroke="#000000" cx="277.4096" cy="-1424" rx="58" ry="58"/>
<text text-anchor="middle" x="277.4096" y="-1419.8" font-family="monospace" font-size="14.00" fill="#000000">Minus</text>
</g>
<!-- Start&#45;&gt;Minus -->
<g id="edge35" class="edge">
<title>Start-&gt;Minus</title>
<path fill="none" stroke="#000000" d="M105.8162,-1372.5396C137.3754,-1382.0041 177.9892,-1394.1841 211.7817,-1404.3184"/>
<polygon fill="#000000" stroke="#000000" points="210.9903,-1407.735 221.5743,-1407.2551 213.0011,-1401.03 210.9903,-1407.735"/>
<text text-anchor="middle" x="163.7048" y="-1404.2" font-family="monospace" font-size="14.00" fill="#000000">-</text>
</g>
<!-- Mul -->
<g id="node19" class="node">
<title>Mul</title>
<ellipse fill="none" stroke="#000000" cx="277.4096" cy="-1290" rx="54" ry="54"/>
<ellipse fill="none" stroke="#000000" cx="277.4096" cy="-1290" rx="58" ry="58"/>
<text text-anchor="middle" x="277.4096" y="-1285.8" font-family="monospace" font-size="14.00" fill="#000000">Mul</text>
</g>
<!-- Start&#45;&gt;Mul -->
<g id="edge36" class="edge">
<title>Start-&gt;Mul</title>
<path fill="none" stroke="#000000" d="M105.8162,-1341.4604C137.3754,-1331.9959 177.9892,-1319.8159 211.7817,-1309.6816"/>
<polygon fill="#000000" stroke="#000000" points="213.0011,-1312.97 221.5743,-1306.7449 210.9903,-1306.265 213.0011,-1312.97"/>
<text text-anchor="middle" x="163.7048" y="-1339.2" font-family="monospace" font-size="14.00" fill="#000000">*</text>
</g>
<!-- Div -->
<g id="node20" class="node">
<title>Div</title>
<ellipse fill="none" stroke="#000000" cx="277.4096" cy="-1156" rx="54" ry="54"/>
<ellipse fill="none" stroke="#000000" cx="277.4096" cy="-1156" rx="58" ry="58"/>
<text text-anchor="middle" x="277.4096" y="-1151.8" font-family="monospace" font-size="14.00" fill="#000000">Div</text>
</g>
<!-- Start&#45;&gt;Div -->
<g id="edge38" class="edge">
<title>Start-&gt;Div</title>
<path fill="none" stroke="#000000" d="M94.1992,-1320.8331C131.1806,-1287.5611 186.2007,-1238.06 226.2918,-1201.9903"/>
<polygon fill="#000000" stroke="#000000" points="229.008,-1204.2546 234.1012,-1194.9643 224.3261,-1199.0507 229.008,-1204.2546"/>
<text text-anchor="middle" x="163.7048" y="-1295.2" font-family="monospace" font-size="14.00" fill="#000000">/</text>
</g>
<!-- String_begin -->
<g id="node26" class="node">
<title>String_begin</title>
<ellipse fill="none" stroke="#000000" cx="277.4096" cy="-1026" rx="54" ry="54"/>
<text text-anchor="middle" x="277.4096" y="-1021.8" font-family="monospace" font-size="14.00" fill="#000000">String_begin</text>
</g>
<!-- Start&#45;&gt;String_begin -->
<g id="edge6" class="edge">
<title>Start-&gt;String_begin</title>
<path fill="none" stroke="#000000" d="M74.2174,-1306.9238C87.3255,-1276.5653 105.7034,-1237.5743 126,-1205.2 161.197,-1149.0587 176.1877,-1139.2249 219.4096,-1089 223.8401,-1083.8516 228.5366,-1078.5343 233.2629,-1073.2723"/>
<polygon fill="#000000" stroke="#000000" points="236.0657,-1075.3914 240.1814,-1065.6286 230.8758,-1070.6939 236.0657,-1075.3914"/>
<text text-anchor="middle" x="163.7048" y="-1209.2" font-family="monospace" font-size="14.00" fill="#000000">"</text>
</g>
<!-- Int_in -->
<g id="node30" class="node">
<title>Int_in</title>
<ellipse fill="none" stroke="#000000" cx="277.4096" cy="-862" rx="54" ry="54"/>
<ellipse fill="none" stroke="#000000" cx="277.4096" cy="-862" rx="58" ry="58"/>
<text text-anchor="middle" x="277.4096" y="-857.8" font-family="monospace" font-size="14.00" fill="#000000">Int_in</text>
</g>
<!-- Start&#45;&gt;Int_in -->
<g id="edge13" class="edge">
<title>Start-&gt;Int_in</title>
<path fill="none" stroke="#000000" d="M63.0283,-1303.6769C73.6015,-1248.3437 93.8745,-1160.1378 126,-1089.2 154.9019,-1025.3806 200.9002,-959.5206 234.62,-915.2492"/>
<polygon fill="#000000" stroke="#000000" points="237.4553,-917.3035 240.7664,-907.2393 231.9019,-913.042 237.4553,-917.3035"/>
<text text-anchor="middle" x="163.7048" y="-1093.2" font-family="monospace" font-size="14.00" fill="#000000">0-9</text>
</g>
<!-- L_r_par -->
<g id="node36" class="node">
<title>L_r_par</title>
<ellipse fill="none" stroke="#000000" cx="277.4096" cy="-728" rx="54" ry="54"/>
<ellipse fill="none" stroke="#000000" cx="277.4096" cy="-728" rx="58" ry="58"/>
<text text-anchor="middle" x="277.4096" y="-723.8" font-family="monospace" font-size="14.00" fill="#000000">L_r_par</text>
</g>
<!-- Start&#45;&gt;L_r_par -->
<g id="edge47" class="edge">
<title>Start-&gt;L_r_par</title>
<path fill="none" stroke="#000000" d="M56.4774,-1302.8669C61.7026,-1221.5598 77.7014,-1064.2244 126,-940.2 149.9143,-878.7913 195.6109,-818.5862 230.5726,-778.0839"/>
<polygon fill="#000000" stroke="#000000" points="233.2503,-780.3386 237.1898,-770.5034 227.9769,-775.7352 233.2503,-780.3386"/>
<text text-anchor="middle" x="163.7048" y="-944.2" font-family="monospace" font-size="14.00" fill="#000000">(</text>
</g>
<!-- R_r_par -->
<g id="node37" class="node">
<title>R_r_par</title>
<ellipse fill="none" stroke="#000000" cx="277.4096" cy="-594" rx="54" ry="54"/>
<ellipse fill="none" stroke="#000000" cx="277.4096" cy="-594" rx="58" ry="58"/>
<text text-anchor="middle" x="277.4096" y="-589.8" font-family="monospace" font-size="14.00" fill="#000000">R_r_par</text>
</g>
<!-- Start&#45;&gt;R_r_par -->
<g id="edge48" class="edge">
<title>Start-&gt;R_r_par</title>
<path fill="none" stroke="#000000" d="M57.7136,-1302.8717C66.589,-1181.1068 90.935,-889.0926 126,-797.2 148.6445,-737.8569 193.9044,-680.8196 229.0689,-642.3618"/>
<polygon fill="#000000" stroke="#000000" points="231.7311,-644.6381 235.9575,-634.9228 226.595,-639.882 231.7311,-644.6381"/>
<text text-anchor="middle" x="163.7048" y="-801.2" font-family="monospace" font-size="14.00" fill="#000000">)</text>
</g>
<!-- L_c_par -->
<g id="node38" class="node">
<title>L_c_par</title>
<ellipse fill="none" stroke="#000000" cx="277.4096" cy="-460" rx="54" ry="54"/>
<ellipse fill="none" stroke="#000000" cx="277.4096" cy="-460" rx="58" ry="58"/>
<text text-anchor="middle" x="277.4096" y="-455.8" font-family="monospace" font-size="14.00" fill="#000000">L_c_par</text>
</g>
<!-- Start&#45;&gt;L_c_par -->
<g id="edge49" class="edge">
<title>Start-&gt;L_c_par</title>
<path fill="none" stroke="#000000" d="M55.8774,-1302.892C61.4306,-1159.5212 80.3333,-772.7291 126,-654.2 147.8827,-597.403 192.256,-543.7152 227.3356,-507.2455"/>
<polygon fill="#000000" stroke="#000000" points="230.1903,-509.3314 234.6687,-499.7296 225.18,-504.443 230.1903,-509.3314"/>
<text text-anchor="middle" x="163.7048" y="-658.2" font-family="monospace" font-size="14.00" fill="#000000">{</text>
</g>
<!-- R_c_par -->
<g id="node39" class="node">
<title>R_c_par</title>
<ellipse fill="none" stroke="#000000" cx="277.4096" cy="-326" rx="54" ry="54"/>
<ellipse fill="none" stroke="#000000" cx="277.4096" cy="-326" rx="58" ry="58"/>
<text text-anchor="middle" x="277.4096" y="-321.8" font-family="monospace" font-size="14.00" fill="#000000">R_c_par</text>
</g>
<!-- Start&#45;&gt;R_c_par -->
<g id="edge50" class="edge">
<title>Start-&gt;R_c_par</title>
<path fill="none" stroke="#000000" d="M54.6942,-1302.9373C57.3911,-1140.6433 70.0218,-659.9587 126,-515.2 147.5323,-459.5178 191.7169,-407.4314 226.8242,-372.0639"/>
<polygon fill="#000000" stroke="#000000" points="229.5353,-374.3044 234.1666,-364.7753 224.6038,-369.3364 229.5353,-374.3044"/>
<text text-anchor="middle" x="163.7048" y="-519.2" font-family="monospace" font-size="14.00" fill="#000000">}</text>
</g>
<!-- Whitespace -->
<g id="node40" class="node">
<title>Whitespace</title>
<ellipse fill="none" stroke="#000000" cx="277.4096" cy="-192" rx="54" ry="54"/>
<ellipse fill="none" stroke="#000000" cx="277.4096" cy="-192" rx="58" ry="58"/>
<text text-anchor="middle" x="277.4096" y="-187.8" font-family="monospace" font-size="14.00" fill="#000000">Whitespace</text>
</g>
<!-- Start&#45;&gt;Whitespace -->
<g id="edge51" class="edge">
<title>Start-&gt;Whitespace</title>
<path fill="none" stroke="#000000" d="M56.1554,-1302.8361C64.07,-1110.254 92.8029,-465.5399 126,-379.2 147.2175,-324.017 191.2081,-272.6675 226.3309,-237.7602"/>
<polygon fill="#000000" stroke="#000000" points="228.9826,-240.0623 233.6798,-230.5655 224.0856,-235.0603 228.9826,-240.0623"/>
<text text-anchor="middle" x="163.7048" y="-383.2" font-family="monospace" font-size="14.00" fill="#000000">(space)</text>
</g>
<!-- Semicolon -->
<g id="node41" class="node">
<title>Semicolon</title>
<ellipse fill="none" stroke="#000000" cx="277.4096" cy="-58" rx="54" ry="54"/>
<ellipse fill="none" stroke="#000000" cx="277.4096" cy="-58" rx="58" ry="58"/>
<text text-anchor="middle" x="277.4096" y="-53.8" font-family="monospace" font-size="14.00" fill="#000000">Semicolon</text>
</g>
<!-- Start&#45;&gt;Semicolon -->
<g id="edge52" class="edge">
<title>Start-&gt;Semicolon</title>
<path fill="none" stroke="#000000" d="M55.6294,-1302.7158C62.1758,-1093.1568 88.049,-343.6215 126,-244.2 147.0159,-189.144 191.0277,-138.0864 226.2098,-103.415"/>
<polygon fill="#000000" stroke="#000000" points="228.8336,-105.7459 233.5718,-96.2697 223.9583,-100.7228 228.8336,-105.7459"/>
<text text-anchor="middle" x="163.7048" y="-248.2" font-family="monospace" font-size="14.00" fill="#000000">;</text>
</g>
<!-- Identifier&#45;&gt;Identifier -->
<g id="edge2" class="edge">
<title>Identifier-&gt;Identifier</title>
<path fill="none" stroke="#000000" d="M256.8723,-2676.3104C258.642,-2688.8147 265.4877,-2698 277.4096,-2698 285.9784,-2698 291.925,-2693.2548 295.2492,-2685.9428"/>
<polygon fill="#000000" stroke="#000000" points="298.6202,-2686.8838 297.9469,-2676.3104 291.8796,-2684.9959 298.6202,-2686.8838"/>
<text text-anchor="middle" x="277.4096" y="-2702.2" font-family="monospace" font-size="14.00" fill="#000000">  _, 0-9, a-z, A-Z  </text>
</g>
<!-- End_closing -->
<g id="node5" class="node">
<title>End_closing</title>
<ellipse fill="none" stroke="#000000" cx="511.6596" cy="-2354" rx="54" ry="54"/>
<ellipse fill="none" stroke="#000000" cx="511.6596" cy="-2354" rx="58" ry="58"/>
<text text-anchor="middle" x="511.6596" y="-2349.8" font-family="monospace" font-size="14.00" fill="#000000">End_closing</text>
</g>
<!-- Type_prefix&#45;&gt;End_closing -->
<g id="edge5" class="edge">
<title>Type_prefix-&gt;End_closing</title>
<path fill="none" stroke="#000000" d="M335.6151,-2354C368.1563,-2354 408.9023,-2354 442.9966,-2354"/>
<polygon fill="#000000" stroke="#000000" points="443.3477,-2357.5001 453.3476,-2354 443.3476,-2350.5001 443.3477,-2357.5001"/>
<text text-anchor="middle" x="394.5346" y="-2358.2" font-family="monospace" font-size="14.00" fill="#000000">&gt;</text>
</g>
<!-- Eq_in -->
<g id="node7" class="node">
<title>Eq_in</title>
<ellipse fill="none" stroke="#000000" cx="511.6596" cy="-2220" rx="54" ry="54"/>
<text text-anchor="middle" x="511.6596" y="-2215.8" font-family="monospace" font-size="14.00" fill="#000000">Eq_in</text>
</g>
<!-- Assign&#45;&gt;Eq_in -->
<g id="edge24" class="edge">
<title>Assign-&gt;Eq_in</title>
<path fill="none" stroke="#000000" d="M335.6151,-2220C369.5298,-2220 412.3566,-2220 447.2772,-2220"/>
<polygon fill="#000000" stroke="#000000" points="447.3712,-2223.5001 457.3712,-2220 447.3712,-2216.5001 447.3712,-2223.5001"/>
<text text-anchor="middle" x="394.5346" y="-2224.2" font-family="monospace" font-size="14.00" fill="#000000">=</text>
</g>
<!-- Eq_end -->
<g id="node8" class="node">
<title>Eq_end</title>
<ellipse fill="none" stroke="#000000" cx="729.1495" cy="-2220" rx="54" ry="54"/>
<ellipse fill="none" stroke="#000000" cx="729.1495" cy="-2220" rx="58" ry="58"/>
<text text-anchor="middle" x="729.1495" y="-2215.8" font-family="monospace" font-size="14.00" fill="#000000">Eq_end</text>
</g>
<!-- Eq_in&#45;&gt;Eq_end -->
<g id="edge25" class="edge">
<title>Eq_in-&gt;Eq_end</title>
<path fill="none" stroke="#000000" d="M565.7006,-2220C594.4098,-2220 629.9973,-2220 660.6284,-2220"/>
<polygon fill="#000000" stroke="#000000" points="660.8093,-2223.5001 670.8092,-2220 660.8092,-2216.5001 660.8093,-2223.5001"/>
<text text-anchor="middle" x="616.9273" y="-2224.2" font-family="monospace" font-size="14.00" fill="#000000">=</text>
</g>
<!-- Noteq_in -->
<g id="node10" class="node">
<title>Noteq_in</title>
<ellipse fill="none" stroke="#000000" cx="511.6596" cy="-2087" rx="54" ry="54"/>
<text text-anchor="middle" x="511.6596" y="-2082.8" font-family="monospace" font-size="14.00" fill="#000000">Noteq_in</text>
</g>
<!-- Noteq_begin&#45;&gt;Noteq_in -->
<g id="edge27" class="edge">
<title>Noteq_begin-&gt;Noteq_in</title>
<path fill="none" stroke="#000000" d="M331.4454,-2089.308C366.0268,-2088.8651 411.0668,-2088.2883 447.4682,-2087.8221"/>
<polygon fill="#000000" stroke="#000000" points="447.536,-2091.3216 457.4903,-2087.6937 447.4463,-2084.3222 447.536,-2091.3216"/>
<text text-anchor="middle" x="394.5346" y="-2092.2" font-family="monospace" font-size="14.00" fill="#000000">=</text>
</g>
<!-- Noteq_end -->
<g id="node11" class="node">
<title>Noteq_end</title>
<ellipse fill="none" stroke="#000000" cx="729.1495" cy="-2086" rx="54" ry="54"/>
<ellipse fill="none" stroke="#000000" cx="729.1495" cy="-2086" rx="58" ry="58"/>
<text text-anchor="middle" x="729.1495" y="-2081.8" font-family="monospace" font-size="14.00" fill="#000000">Noteq_end</text>
</g>
<!-- Noteq_in&#45;&gt;Noteq_end -->
<g id="edge28" class="edge">
<title>Noteq_in-&gt;Noteq_end</title>
<path fill="none" stroke="#000000" d="M565.7006,-2086.7515C594.4098,-2086.6195 629.9973,-2086.4559 660.6284,-2086.3151"/>
<polygon fill="#000000" stroke="#000000" points="660.8255,-2089.8143 670.8092,-2086.2682 660.7932,-2082.8144 660.8255,-2089.8143"/>
<text text-anchor="middle" x="616.9273" y="-2090.2" font-family="monospace" font-size="14.00" fill="#000000">=</text>
</g>
<!-- Smaller_eq -->
<g id="node15" class="node">
<title>Smaller_eq</title>
<ellipse fill="none" stroke="#000000" cx="511.6596" cy="-1826" rx="54" ry="54"/>
<ellipse fill="none" stroke="#000000" cx="511.6596" cy="-1826" rx="58" ry="58"/>
<text text-anchor="middle" x="511.6596" y="-1821.8" font-family="monospace" font-size="14.00" fill="#000000">Smaller_eq</text>
</g>
<!-- Smaller&#45;&gt;Smaller_eq -->
<g id="edge32" class="edge">
<title>Smaller-&gt;Smaller_eq</title>
<path fill="none" stroke="#000000" d="M335.6151,-1826C368.1563,-1826 408.9023,-1826 442.9966,-1826"/>
<polygon fill="#000000" stroke="#000000" points="443.3477,-1829.5001 453.3476,-1826 443.3476,-1822.5001 443.3477,-1829.5001"/>
<text text-anchor="middle" x="394.5346" y="-1830.2" font-family="monospace" font-size="14.00" fill="#000000">=</text>
</g>
<!-- Larger_eq -->
<g id="node16" class="node">
<title>Larger_eq</title>
<ellipse fill="none" stroke="#000000" cx="511.6596" cy="-1692" rx="54" ry="54"/>
<ellipse fill="none" stroke="#000000" cx="511.6596" cy="-1692" rx="58" ry="58"/>
<text text-anchor="middle" x="511.6596" y="-1687.8" font-family="monospace" font-size="14.00" fill="#000000">Larger_eq</text>
</g>
<!-- Larger&#45;&gt;Larger_eq -->
<g id="edge33" class="edge">
<title>Larger-&gt;Larger_eq</title>
<path fill="none" stroke="#000000" d="M335.6151,-1692C368.1563,-1692 408.9023,-1692 442.9966,-1692"/>
<polygon fill="#000000" stroke="#000000" points="443.3477,-1695.5001 453.3476,-1692 443.3476,-1688.5001 443.3477,-1695.5001"/>
<text text-anchor="middle" x="394.5346" y="-1696.2" font-family="monospace" font-size="14.00" fill="#000000">=</text>
</g>
<!-- Comment_l_in -->
<g id="node21" class="node">
<title>Comment_l_in</title>
<ellipse fill="none" stroke="#000000" cx="511.6596" cy="-1161" rx="54" ry="54"/>
<text text-anchor="middle" x="511.6596" y="-1156.8" font-family="monospace" font-size="14.00" fill="#000000">Comment_l_in</text>
</g>
<!-- Div&#45;&gt;Comment_l_in -->
<g id="edge39" class="edge">
<title>Div-&gt;Comment_l_in</title>
<path fill="none" stroke="#000000" d="M335.6151,-1157.2424C369.5298,-1157.9663 412.3566,-1158.8804 447.2772,-1159.6258"/>
<polygon fill="#000000" stroke="#000000" points="447.2987,-1163.1269 457.3712,-1159.8412 447.4482,-1156.1285 447.2987,-1163.1269"/>
<text text-anchor="middle" x="394.5346" y="-1163.2" font-family="monospace" font-size="14.00" fill="#000000">/</text>
</g>
<!-- Comment_b_in -->
<g id="node23" class="node">
<title>Comment_b_in</title>
<ellipse fill="none" stroke="#000000" cx="511.6596" cy="-1321" rx="54" ry="54"/>
<text text-anchor="middle" x="511.6596" y="-1316.8" font-family="monospace" font-size="14.00" fill="#000000">Comment_b_in</text>
</g>
<!-- Div&#45;&gt;Comment_b_in -->
<g id="edge42" class="edge">
<title>Div-&gt;Comment_b_in</title>
<path fill="none" stroke="#000000" d="M325.0959,-1189.5891C363.9363,-1216.9473 418.7213,-1255.5365 458.8764,-1283.8208"/>
<polygon fill="#000000" stroke="#000000" points="457.021,-1286.795 467.2121,-1289.6922 461.0521,-1281.0722 457.021,-1286.795"/>
<text text-anchor="middle" x="394.5346" y="-1266.2" font-family="monospace" font-size="14.00" fill="#000000">*</text>
</g>
<!-- Comment_l_in&#45;&gt;Comment_l_in -->
<g id="edge40" class="edge">
<title>Comment_l_in-&gt;Comment_l_in</title>
<path fill="none" stroke="#000000" d="M492.5036,-1211.7967C494.0008,-1223.9758 500.3862,-1233 511.6596,-1233 519.5862,-1233 525.0963,-1228.5386 528.1897,-1221.656"/>
<polygon fill="#000000" stroke="#000000" points="531.624,-1222.3607 530.8156,-1211.7967 524.8598,-1220.559 531.624,-1222.3607"/>
<text text-anchor="middle" x="511.6596" y="-1237.2" font-family="monospace" font-size="14.00" fill="#000000">ASCII-{\n, EOF}</text>
</g>
<!-- Comment_l_end -->
<g id="node22" class="node">
<title>Comment_l_end</title>
<ellipse fill="none" stroke="#000000" cx="729.1495" cy="-1208" rx="56.3193" ry="56.3193"/>
<ellipse fill="none" stroke="#000000" cx="729.1495" cy="-1208" rx="60.3303" ry="60.3303"/>
<text text-anchor="middle" x="729.1495" y="-1203.8" font-family="monospace" font-size="14.00" fill="#000000">Comment_l_end</text>
</g>
<!-- Comment_l_in&#45;&gt;Comment_l_end -->
<g id="edge41" class="edge">
<title>Comment_l_in-&gt;Comment_l_end</title>
<path fill="none" stroke="#000000" d="M564.5855,-1172.4374C593.4039,-1178.6651 629.398,-1186.4435 660.3686,-1193.1363"/>
<polygon fill="#000000" stroke="#000000" points="659.7183,-1196.5765 670.232,-1195.2678 661.1969,-1189.7344 659.7183,-1196.5765"/>
<text text-anchor="middle" x="616.9273" y="-1192.2" font-family="monospace" font-size="14.00" fill="#000000">\n, EOF</text>
</g>
<!-- Comment_b_in&#45;&gt;Comment_b_in -->
<g id="edge43" class="edge">
<title>Comment_b_in-&gt;Comment_b_in</title>
<path fill="none" stroke="#000000" d="M492.5036,-1371.7967C494.0008,-1383.9758 500.3862,-1393 511.6596,-1393 519.5862,-1393 525.0963,-1388.5386 528.1897,-1381.656"/>
<polygon fill="#000000" stroke="#000000" points="531.624,-1382.3607 530.8156,-1371.7967 524.8598,-1380.559 531.624,-1382.3607"/>
<text text-anchor="middle" x="511.6596" y="-1397.2" font-family="monospace" font-size="14.00" fill="#000000">ASCII-{*}</text>
</g>
<!-- Comment_b_end_1 -->
<g id="node24" class="node">
<title>Comment_b_end_1</title>
<ellipse fill="none" stroke="#000000" cx="729.1495" cy="-1356" rx="64.909" ry="64.909"/>
<text text-anchor="middle" x="729.1495" y="-1351.8" font-family="monospace" font-size="14.00" fill="#000000">Comment_b_end_1</text>
</g>
<!-- Comment_b_in&#45;&gt;Comment_b_end_1 -->
<g id="edge44" class="edge">
<title>Comment_b_in-&gt;Comment_b_end_1</title>
<path fill="none" stroke="#000000" d="M565.5482,-1314.8776C590.3568,-1313.4323 620.0298,-1313.6568 646.195,-1319.2 651.173,-1320.2546 656.2153,-1321.6288 661.2264,-1323.2252"/>
<polygon fill="#000000" stroke="#000000" points="660.2048,-1326.5754 670.7996,-1326.5435 662.4973,-1319.9614 660.2048,-1326.5754"/>
<text text-anchor="middle" x="616.9273" y="-1323.2" font-family="monospace" font-size="14.00" fill="#000000">*</text>
</g>
<!-- Comment_b_end_1&#45;&gt;Comment_b_in -->
<g id="edge45" class="edge">
<title>Comment_b_end_1-&gt;Comment_b_in</title>
<path fill="none" stroke="#000000" d="M664.5863,-1347.6277C640.4092,-1344.2945 612.7317,-1340.243 587.6596,-1336 583.4826,-1335.2931 579.1828,-1334.5331 574.8537,-1333.7437"/>
<polygon fill="#000000" stroke="#000000" points="575.2154,-1330.2509 564.7434,-1331.8596 573.9329,-1337.1324 575.2154,-1330.2509"/>
<text text-anchor="middle" x="616.9273" y="-1348.2" font-family="monospace" font-size="14.00" fill="#000000">ASCII-{/}</text>
</g>
<!-- Comment_b_end_2 -->
<g id="node25" class="node">
<title>Comment_b_end_2</title>
<ellipse fill="none" stroke="#000000" cx="920.8257" cy="-1356" rx="64.9117" ry="64.9117"/>
<ellipse fill="none" stroke="#000000" cx="920.8257" cy="-1356" rx="68.909" ry="68.909"/>
<text text-anchor="middle" x="920.8257" y="-1351.8" font-family="monospace" font-size="14.00" fill="#000000">Comment_b_end_2</text>
</g>
<!-- Comment_b_end_1&#45;&gt;Comment_b_end_2 -->
<g id="edge46" class="edge">
<title>Comment_b_end_1-&gt;Comment_b_end_2</title>
<path fill="none" stroke="#000000" d="M794.3098,-1356C809.4446,-1356 825.7205,-1356 841.3931,-1356"/>
<polygon fill="#000000" stroke="#000000" points="841.5871,-1359.5001 851.5871,-1356 841.587,-1352.5001 841.5871,-1359.5001"/>
<text text-anchor="middle" x="822.9876" y="-1360.2" font-family="monospace" font-size="14.00" fill="#000000">/</text>
</g>
<!-- String_in -->
<g id="node27" class="node">
<title>String_in</title>
<ellipse fill="none" stroke="#000000" cx="511.6596" cy="-948" rx="54" ry="54"/>
<text text-anchor="middle" x="511.6596" y="-943.8" font-family="monospace" font-size="14.00" fill="#000000">String_in</text>
</g>
<!-- String_begin&#45;&gt;String_in -->
<g id="edge7" class="edge">
<title>String_begin-&gt;String_in</title>
<path fill="none" stroke="#000000" d="M328.8168,-1008.8826C364.6696,-996.9444 412.6695,-980.9615 450.4924,-968.3673"/>
<polygon fill="#000000" stroke="#000000" points="451.9903,-971.5576 460.3724,-965.0775 449.7788,-964.9161 451.9903,-971.5576"/>
<text text-anchor="middle" x="394.5346" y="-1002.2" font-family="monospace" font-size="14.00" fill="#000000">ASCII&gt;31-{"}</text>
</g>
<!-- String_end -->
<g id="node28" class="node">
<title>String_end</title>
<ellipse fill="none" stroke="#000000" cx="729.1495" cy="-1072" rx="54" ry="54"/>
<ellipse fill="none" stroke="#000000" cx="729.1495" cy="-1072" rx="58" ry="58"/>
<text text-anchor="middle" x="729.1495" y="-1067.8" font-family="monospace" font-size="14.00" fill="#000000">String_end</text>
</g>
<!-- String_begin&#45;&gt;String_end -->
<g id="edge12" class="edge">
<title>String_begin-&gt;String_end</title>
<path fill="none" stroke="#000000" d="M331.3921,-1031.9563C366.2689,-1035.7707 412.6361,-1040.7786 453.6596,-1045 524.428,-1052.2822 605.472,-1060.1709 661.2432,-1065.5295"/>
<polygon fill="#000000" stroke="#000000" points="661.066,-1069.0285 671.3546,-1066.4999 661.7348,-1062.0605 661.066,-1069.0285"/>
<text text-anchor="middle" x="511.6596" y="-1060.2" font-family="monospace" font-size="14.00" fill="#000000">"</text>
</g>
<!-- String_in&#45;&gt;String_in -->
<g id="edge10" class="edge">
<title>String_in-&gt;String_in</title>
<path fill="none" stroke="#000000" d="M492.5036,-998.7967C494.0008,-1010.9758 500.3862,-1020 511.6596,-1020 519.5862,-1020 525.0963,-1015.5386 528.1897,-1008.656"/>
<polygon fill="#000000" stroke="#000000" points="531.624,-1009.3607 530.8156,-998.7967 524.8598,-1007.559 531.624,-1009.3607"/>
<text text-anchor="middle" x="511.6596" y="-1024.2" font-family="monospace" font-size="14.00" fill="#000000">ASCII&gt;31-{"}</text>
</g>
<!-- String_in&#45;&gt;String_end -->
<g id="edge8" class="edge">
<title>String_in-&gt;String_end</title>
<path fill="none" stroke="#000000" d="M558.5839,-974.7535C591.1627,-993.328 634.8265,-1018.2225 669.8197,-1038.1736"/>
<polygon fill="#000000" stroke="#000000" points="668.0966,-1041.2201 678.5174,-1043.1325 671.5637,-1035.139 668.0966,-1041.2201"/>
<text text-anchor="middle" x="616.9273" y="-1025.2" font-family="monospace" font-size="14.00" fill="#000000">"</text>
</g>
<!-- String_esc -->
<g id="node29" class="node">
<title>String_esc</title>
<ellipse fill="none" stroke="#000000" cx="729.1495" cy="-942" rx="54" ry="54"/>
<text text-anchor="middle" x="729.1495" y="-937.8" font-family="monospace" font-size="14.00" fill="#000000">String_esc</text>
</g>
<!-- String_in&#45;&gt;String_esc -->
<g id="edge9" class="edge">
<title>String_in-&gt;String_esc</title>
<path fill="none" stroke="#000000" d="M562.1732,-928.3067C570.5686,-925.7743 579.2734,-923.5846 587.6596,-922.2 613.5777,-917.9207 642.2671,-920.5709 666.9989,-925.1495"/>
<polygon fill="#000000" stroke="#000000" points="666.4871,-928.6162 676.9784,-927.1387 667.8555,-921.7513 666.4871,-928.6162"/>
<text text-anchor="middle" x="616.9273" y="-926.2" font-family="monospace" font-size="14.00" fill="#000000">\</text>
</g>
<!-- String_esc&#45;&gt;String_in -->
<g id="edge11" class="edge">
<title>String_esc-&gt;String_in</title>
<path fill="none" stroke="#000000" d="M675.0096,-943.4936C644.9104,-944.3239 607.2738,-945.3622 575.7158,-946.2328"/>
<polygon fill="#000000" stroke="#000000" points="575.6002,-942.7346 565.7006,-946.5091 575.7933,-949.7319 575.6002,-942.7346"/>
<text text-anchor="middle" x="616.9273" y="-949.2" font-family="monospace" font-size="14.00" fill="#000000">ASCII&gt;31</text>
</g>
<!-- Int_in&#45;&gt;Int_in -->
<g id="edge14" class="edge">
<title>Int_in-&gt;Int_in</title>
<path fill="none" stroke="#000000" d="M256.8723,-916.3104C258.642,-928.8147 265.4877,-938 277.4096,-938 285.9784,-938 291.925,-933.2548 295.2492,-925.9428"/>
<polygon fill="#000000" stroke="#000000" points="298.6202,-926.8838 297.9469,-916.3104 291.8796,-924.9959 298.6202,-926.8838"/>
<text text-anchor="middle" x="277.4096" y="-942.2" font-family="monospace" font-size="14.00" fill="#000000">0-9</text>
</g>
<!-- Float_begin -->
<g id="node31" class="node">
<title>Float_begin</title>
<ellipse fill="none" stroke="#000000" cx="511.6596" cy="-769" rx="54" ry="54"/>
<text text-anchor="middle" x="511.6596" y="-764.8" font-family="monospace" font-size="14.00" fill="#000000">Float_begin</text>
</g>
<!-- Int_in&#45;&gt;Float_begin -->
<g id="edge15" class="edge">
<title>Int_in-&gt;Float_begin</title>
<path fill="none" stroke="#000000" d="M330.8479,-838.5875C338.4007,-835.3807 346.0856,-832.1718 353.4096,-829.2 385.6066,-816.1355 421.8103,-802.3008 451.4559,-791.1926"/>
<polygon fill="#000000" stroke="#000000" points="452.6955,-794.4658 460.8373,-787.6862 450.2448,-787.9088 452.6955,-794.4658"/>
<text text-anchor="middle" x="394.5346" y="-833.2" font-family="monospace" font-size="14.00" fill="#000000">.</text>
</g>
<!-- Exp_begin -->
<g id="node33" class="node">
<title>Exp_begin</title>
<ellipse fill="none" stroke="#000000" cx="920.8257" cy="-830" rx="54" ry="54"/>
<text text-anchor="middle" x="920.8257" y="-825.8" font-family="monospace" font-size="14.00" fill="#000000">Exp_begin</text>
</g>
<!-- Int_in&#45;&gt;Exp_begin -->
<g id="edge18" class="edge">
<title>Int_in-&gt;Exp_begin</title>
<path fill="none" stroke="#000000" d="M335.5708,-860.5077C431.2685,-857.8564 627.9027,-851.5853 794.104,-841 814.5597,-839.6972 836.8407,-837.8931 856.9343,-836.1224"/>
<polygon fill="#000000" stroke="#000000" points="857.2635,-839.607 866.9121,-835.2304 856.6401,-832.6348 857.2635,-839.607"/>
<text text-anchor="middle" x="616.9273" y="-855.2" font-family="monospace" font-size="14.00" fill="#000000">e, E</text>
</g>
<!-- Float_in -->
<g id="node32" class="node">
<title>Float_in</title>
<ellipse fill="none" stroke="#000000" cx="729.1495" cy="-740" rx="54" ry="54"/>
<ellipse fill="none" stroke="#000000" cx="729.1495" cy="-740" rx="58" ry="58"/>
<text text-anchor="middle" x="729.1495" y="-735.8" font-family="monospace" font-size="14.00" fill="#000000">Float_in</text>
</g>
<!-- Float_begin&#45;&gt;Float_in -->
<g id="edge16" class="edge">
<title>Float_begin-&gt;Float_in</title>
<path fill="none" stroke="#000000" d="M565.4212,-761.8315C594.3531,-757.9737 630.3315,-753.1764 661.1871,-749.0621"/>
<polygon fill="#000000" stroke="#000000" points="661.9876,-752.4864 671.4372,-747.6953 661.0623,-745.5478 661.9876,-752.4864"/>
<text text-anchor="middle" x="616.9273" y="-762.2" font-family="monospace" font-size="14.00" fill="#000000">0-9</text>
</g>
<!-- Float_in&#45;&gt;Float_in -->
<g id="edge17" class="edge">
<title>Float_in-&gt;Float_in</title>
<path fill="none" stroke="#000000" d="M712.4565,-795.6733C714.1516,-807.4764 719.7159,-816 729.1495,-816 735.6351,-816 740.2919,-811.9713 743.1198,-805.6179"/>
<polygon fill="#000000" stroke="#000000" points="746.5775,-806.2426 745.8425,-795.6733 739.826,-804.3941 746.5775,-806.2426"/>
<text text-anchor="middle" x="729.1495" y="-820.2" font-family="monospace" font-size="14.00" fill="#000000">0-9</text>
</g>
<!-- Float_in&#45;&gt;Exp_begin -->
<g id="edge23" class="edge">
<title>Float_in-&gt;Exp_begin</title>
<path fill="none" stroke="#000000" d="M781.7794,-764.7119C806.8507,-776.484 836.9115,-790.5988 862.6584,-802.688"/>
<polygon fill="#000000" stroke="#000000" points="861.3923,-805.9601 871.9317,-807.0422 864.3675,-799.6238 861.3923,-805.9601"/>
<text text-anchor="middle" x="822.9876" y="-791.2" font-family="monospace" font-size="14.00" fill="#000000">e, E</text>
</g>
<!-- Exp_sign -->
<g id="node34" class="node">
<title>Exp_sign</title>
<ellipse fill="none" stroke="#000000" cx="1099.3354" cy="-903" rx="54" ry="54"/>
<text text-anchor="middle" x="1099.3354" y="-898.8" font-family="monospace" font-size="14.00" fill="#000000">Exp_sign</text>
</g>
<!-- Exp_begin&#45;&gt;Exp_sign -->
<g id="edge19" class="edge">
<title>Exp_begin-&gt;Exp_sign</title>
<path fill="none" stroke="#000000" d="M971.0257,-850.5288C992.4107,-859.2741 1017.5217,-869.543 1039.8321,-878.6666"/>
<polygon fill="#000000" stroke="#000000" points="1038.6225,-881.9533 1049.2033,-882.4989 1041.2721,-875.4741 1038.6225,-881.9533"/>
<text text-anchor="middle" x="1017.5578" y="-877.2" font-family="monospace" font-size="14.00" fill="#000000">+, -</text>
</g>
<!-- Exp_in -->
<g id="node35" class="node">
<title>Exp_in</title>
<ellipse fill="none" stroke="#000000" cx="1265.996" cy="-830" rx="54" ry="54"/>
<ellipse fill="none" stroke="#000000" cx="1265.996" cy="-830" rx="58" ry="58"/>
<text text-anchor="middle" x="1265.996" y="-825.8" font-family="monospace" font-size="14.00" fill="#000000">Exp_in</text>
</g>
<!-- Exp_begin&#45;&gt;Exp_in -->
<g id="edge20" class="edge">
<title>Exp_begin-&gt;Exp_in</title>
<path fill="none" stroke="#000000" d="M974.7314,-826.4129C996.6297,-825.1234 1022.1802,-823.8318 1045.3354,-823.2 1093.3176,-821.8907 1105.3572,-821.7534 1153.3354,-823.2 1167.8167,-823.6366 1183.3308,-824.3883 1198.0731,-825.2366"/>
<polygon fill="#000000" stroke="#000000" points="1197.9431,-828.7349 1208.1338,-825.8366 1198.3599,-821.7474 1197.9431,-828.7349"/>
<text text-anchor="middle" x="1099.3354" y="-827.2" font-family="monospace" font-size="14.00" fill="#000000">0-9</text>
</g>
<!-- Exp_sign&#45;&gt;Exp_in -->
<g id="edge21" class="edge">
<title>Exp_sign-&gt;Exp_in</title>
<path fill="none" stroke="#000000" d="M1148.8879,-881.2952C1166.0466,-873.7794 1185.5055,-865.2561 1203.5644,-857.346"/>
<polygon fill="#000000" stroke="#000000" points="1205.1053,-860.4922 1212.8609,-853.274 1202.2968,-854.0803 1205.1053,-860.4922"/>
<text text-anchor="middle" x="1180.6657" y="-874.2" font-family="monospace" font-size="14.00" fill="#000000">0-9</text>
</g>
<!-- Exp_in&#45;&gt;Exp_in -->
<g id="edge22" class="edge">
<title>Exp_in-&gt;Exp_in</title>
<path fill="none" stroke="#000000" d="M1250.7997,-886.0096C1252.3994,-897.638 1257.4648,-906 1265.996,-906 1271.8613,-906 1276.0884,-902.0477 1278.6773,-895.7988"/>
<polygon fill="#000000" stroke="#000000" points="1282.0938,-896.5661 1281.1923,-886.0096 1275.314,-894.8241 1282.0938,-896.5661"/>
<text text-anchor="middle" x="1265.996" y="-910.2" font-family="monospace" font-size="14.00" fill="#000000">0-9</text>
</g>
</g>
</svg>